<?xml version="1.0" standalone="no"?>
<!DOCTYPE svg PUBLIC "-//W3C//DTD SVG 20010904//EN"
 "http://www.w3.org/TR/2001/REC-SVG-20010904/DTD/svg10.dtd">
<svg version="1.0" xmlns="http://www.w3.org/2000/svg"
 width="1080.000000pt" height="240.000000pt" viewBox="0 0 1080.000000 240.000000"
 preserveAspectRatio="xMidYMid meet">
<g transform="translate(0.000000,240.000000) scale(0.100000,-0.100000)"
fill="#ffffff" stroke="none">
<path d="M0 2353 c0 -27 5 -66 10 -88 6 -22 10 -73 10 -113 1 -63 3 -72 15
-62 54 44 40 310 -15 310 -17 0 -20 -7 -20 -47z"/>
<path d="M1890 2381 c5 -11 10 -32 10 -48 -1 -24 -2 -25 -11 -11 -5 10 -18 22
-29 28 -15 8 -19 7 -17 -9 0 -11 6 -19 12 -18 5 1 9 -9 7 -22 -2 -14 0 -21 7
-17 6 4 13 -9 16 -31 4 -21 9 -47 13 -58 4 -11 6 -78 4 -148 -2 -103 -5 -128
-16 -124 -23 9 -34 -13 -28 -55 l5 -41 -31 6 c-19 4 -32 2 -32 -3 0 -6 6 -10
13 -10 33 -1 37 -14 21 -80 -13 -58 -26 -79 -46 -80 -4 0 -3 12 2 26 13 32 12
37 0 29 -5 -3 -10 1 -10 10 0 11 5 15 14 12 29 -11 24 21 -5 33 -31 13 -37 25
-16 33 10 4 10 6 0 6 -20 1 -17 96 3 116 22 22 5 38 -30 29 -25 -6 -27 -9 -20
-50 4 -32 3 -44 -6 -44 -8 0 -9 -4 -3 -12 5 -7 10 -25 11 -39 2 -36 19 -79 32
-79 5 0 7 -12 4 -28 -4 -19 0 -34 10 -45 18 -18 21 -43 6 -52 -8 -5 -7 -11 0
-20 6 -8 10 -26 8 -42 -3 -24 -6 -19 -22 32 -10 33 -20 67 -21 75 -1 8 -5 22
-8 30 -7 20 -38 130 -43 154 -2 10 -8 24 -15 32 -6 8 -9 24 -6 36 6 21 -23 70
-40 68 -4 -1 -10 7 -11 16 -5 20 14 34 46 34 32 0 25 31 -8 40 -39 11 -70 -5
-70 -35 0 -16 4 -24 11 -20 7 5 9 -11 8 -47 -2 -36 8 -94 30 -178 18 -69 46
-171 61 -228 15 -56 24 -104 21 -106 -4 -3 -72 95 -151 217 -79 122 -180 276
-223 341 -65 100 -77 124 -72 148 4 17 2 28 -4 28 -6 0 -11 -8 -11 -17 0 -15
-4 -13 -21 7 -19 24 -19 22 2 -20 22 -45 59 -103 274 -430 223 -338 258 -395
266 -429 4 -18 4 -30 -1 -25 -11 12 -256 385 -340 517 -133 210 -252 389 -256
384 -6 -5 36 -74 156 -257 52 -79 113 -172 135 -207 22 -35 97 -151 168 -258
70 -107 127 -204 127 -215 0 -12 -5 -18 -10 -15 -13 8 -80 112 -80 124 0 5 -6
11 -14 14 -7 3 -23 25 -35 49 -13 24 -40 66 -62 93 -22 28 -50 73 -63 100 -14
28 -37 65 -53 84 -33 39 -126 181 -150 231 -10 19 -22 40 -26 45 -4 6 -27 38
-51 72 -30 43 -46 59 -53 52 -7 -7 29 -72 120 -212 71 -111 151 -236 178 -277
27 -41 62 -93 78 -115 51 -70 199 -310 203 -330 2 -11 -4 -27 -14 -37 -14 -14
-15 -22 -5 -47 6 -17 15 -31 19 -31 4 0 8 -17 8 -37 -1 -35 -4 -31 -49 62 -94
191 -268 333 -471 385 -70 18 -90 19 -135 10 -97 -20 -243 -87 -276 -126 -7
-8 14 1 47 20 67 40 218 87 273 85 26 -1 29 -3 11 -6 -41 -7 -162 -44 -158
-48 2 -3 26 2 53 10 98 30 191 14 325 -56 93 -48 176 -121 237 -206 48 -67
103 -190 102 -227 0 -11 -8 4 -18 34 -55 172 -179 317 -334 394 -72 35 -171
66 -214 66 -31 0 -174 -46 -198 -64 -11 -8 9 -3 45 11 40 16 90 27 130 29 64
3 64 3 15 -5 -69 -12 -175 -54 -234 -93 -61 -39 -60 -47 1 -14 66 35 100 42
47 9 -59 -37 -129 -94 -129 -106 0 -5 -22 -37 -49 -71 -47 -59 -91 -134 -91
-156 0 -5 11 -10 25 -10 37 0 100 -43 115 -79 7 -17 18 -31 25 -31 24 0 23
-78 -2 -129 -24 -48 -32 -90 -38 -198 -3 -43 0 -63 8 -63 8 0 8 -3 -1 -12 -7
-7 -12 -39 -12 -74 0 -57 2 -63 22 -67 20 -4 19 -4 -4 -6 l-28 -1 1 -107 c0
-60 3 -103 5 -97 8 19 64 -14 64 -37 0 -18 10 -19 288 -17 158 1 265 3 237 5
-67 5 -82 10 -67 25 7 7 12 29 12 50 0 21 5 38 10 38 14 0 12 27 -2 33 -7 3
-5 6 6 6 18 1 18 2 3 19 -10 10 -14 22 -10 25 3 4 -4 7 -16 7 -18 0 -21 -4
-17 -22 3 -13 3 -18 1 -12 -3 6 -23 10 -45 8 -36 -3 -39 -1 -45 28 -5 20 -3
33 5 38 9 5 9 9 1 14 -17 11 -14 66 4 66 12 0 15 18 17 98 1 53 1 106 0 117
-2 31 31 175 40 175 5 0 6 -11 2 -24 -3 -14 1 -37 10 -54 12 -24 16 -66 17
-189 1 -180 14 -153 18 38 1 66 5 127 8 135 3 8 -2 17 -11 20 -9 3 -13 10 -10
15 3 6 0 17 -7 25 -14 17 -6 111 11 128 7 7 10 -9 10 -51 0 -59 1 -60 25 -55
21 4 25 10 26 41 1 20 5 47 9 61 8 25 8 25 10 -5 2 -28 3 -27 14 13 6 24 14
40 18 37 4 -4 10 6 13 21 11 48 14 56 25 49 5 -3 17 20 26 50 19 67 30 68 13
1 -6 -26 -9 -49 -6 -52 2 -3 8 12 12 33 9 48 23 75 36 68 11 -7 33 -50 43 -82
7 -21 4 -23 -31 -25 l-38 -1 35 -4 c19 -3 39 -9 45 -14 5 -5 13 -42 17 -82 4
-39 10 -93 14 -119 l7 -48 -72 0 c-41 0 -71 -4 -71 -10 0 -6 30 -10 70 -10
l70 0 0 -183 0 -184 -108 -6 c-59 -3 -139 -4 -179 0 -71 6 -72 5 -66 -16 5
-19 10 -22 32 -16 14 3 88 11 163 17 172 14 171 14 159 -99 -4 -43 -9 -82 -11
-88 -1 -5 -2 -20 -1 -32 1 -23 2 -23 156 -23 111 0 155 3 155 12 0 6 -3 9 -6
5 -8 -8 -64 13 -64 24 0 5 4 9 9 9 12 0 -9 83 -25 96 -20 17 -12 48 16 55 54
14 122 10 135 -8 12 -17 14 -17 32 -1 10 10 44 20 74 24 l56 6 7 -51 c6 -45 9
-51 31 -51 13 0 31 -3 40 -6 13 -5 15 -2 10 19 -4 14 -2 28 4 32 6 3 9 11 6
16 -4 5 -1 9 4 9 6 0 11 -6 11 -12 0 -9 4 -8 10 2 8 12 10 10 10 -10 l1 -25
26 30 c15 17 30 29 35 27 4 -1 8 2 8 8 0 6 -38 10 -95 10 -77 0 -95 3 -95 15
0 11 -5 12 -23 6 -12 -5 -92 -8 -177 -7 -118 1 -154 4 -152 14 1 6 -2 12 -8
12 -12 0 -13 47 -1 54 4 3 5 27 1 53 -4 26 -8 100 -8 164 -1 64 -2 120 -3 125
-9 48 36 74 126 74 42 0 55 -3 55 -15 0 -20 14 -19 31 1 10 12 24 15 60 10 48
-7 79 -1 79 15 0 5 -10 9 -22 9 -13 0 -40 3 -60 6 -33 5 -38 10 -44 40 -8 43
-6 50 12 46 18 -4 18 8 0 31 -14 18 -14 18 -18 0 -3 -10 -10 16 -18 57 -18 98
-17 90 -18 128 -3 60 -19 24 -24 -53 -3 -41 -7 -77 -9 -80 -10 -10 -89 18 -89
32 0 8 3 12 8 10 4 -3 17 -1 28 3 16 6 20 15 17 34 -3 14 -13 27 -22 29 -10 3
-8 5 7 6 22 1 22 2 -7 30 -16 16 -27 32 -24 35 4 3 1 6 -5 6 -14 0 -16 66 -3
74 5 3 11 -3 14 -13 4 -16 11 -19 46 -14 25 3 46 1 55 -7 13 -10 17 -6 29 22
8 18 14 37 15 43 1 15 33 24 95 24 51 1 57 -1 57 -19 0 -18 7 -20 58 -20 31 0
74 -4 95 -9 20 -5 37 -5 37 -1 0 12 -22 18 -99 26 -60 6 -71 9 -71 25 0 16 -8
19 -50 19 -36 0 -52 4 -56 15 -7 16 -44 21 -44 6 0 -5 -9 -13 -20 -16 -11 -3
-20 -13 -20 -22 0 -9 -6 -13 -15 -9 -8 3 -14 2 -14 -2 4 -26 -2 -34 -23 -27
-13 3 -32 8 -42 9 -38 5 -29 26 11 27 30 2 32 3 11 6 -16 2 -28 11 -28 19 0 8
-4 14 -10 14 -5 0 -10 7 -10 15 0 25 -22 64 -39 68 -13 4 -12 5 3 6 16 1 18 7
12 54 -20 173 -20 164 2 176 25 13 87 8 108 -10 11 -9 14 -8 14 5 0 16 -34 35
-61 34 -42 -3 -79 3 -79 12 0 6 6 10 14 10 8 0 17 6 19 13 4 9 8 8 16 -3 6 -8
11 -10 11 -5 0 6 5 3 11 -5 8 -11 12 -12 16 -2 5 14 33 17 33 3 0 -9 50 -2 65
10 6 4 38 11 73 15 61 6 62 6 62 -17 0 -21 5 -24 43 -26 23 -1 58 -5 77 -8 23
-4 30 -2 20 4 -8 5 -41 12 -72 16 -48 5 -58 10 -58 26 0 14 -7 19 -25 19 -14
0 -25 4 -25 9 0 5 -20 6 -45 3 -43 -4 -45 -4 -45 22 0 20 5 26 23 27 17 1 16
3 -8 8 -16 4 -33 3 -36 -2 -4 -5 -10 -4 -13 2 -4 6 -11 9 -16 6 -4 -3 -10 2
-14 10 -3 8 0 15 7 15 8 0 9 3 1 8 -21 14 -33 95 -24 159 4 34 11 67 14 72 3
5 0 11 -6 14 -7 2 1 8 17 11 17 4 42 14 57 22 14 8 45 14 67 14 36 0 41 -3 41
-24 0 -21 5 -24 55 -29 30 -3 69 -12 85 -21 17 -8 30 -11 30 -7 0 13 -53 33
-105 40 -40 5 -51 10 -53 27 -2 17 -14 22 -73 30 -39 5 -72 7 -75 3 -2 -4 -17
-7 -33 -7 -15 1 -33 -2 -40 -6 -7 -5 -11 0 -11 13 0 14 5 19 15 14 9 -3 15 -2
14 3 -5 27 3 34 29 29 21 -4 20 -2 -6 7 -29 10 -33 15 -29 37 3 16 -1 33 -11
44 -11 12 -13 21 -6 25 16 10 26 60 13 67 -6 4 -7 19 -4 36 6 28 6 29 -35 29
-37 0 -40 -2 -30 -19z"/>
<path d="M2300 2392 c0 -3 7 -13 15 -22 10 -12 18 -47 22 -104 5 -70 9 -86 22
-86 12 0 16 -10 17 -42 0 -23 -2 -36 -4 -30 -6 19 -22 14 -22 -8 0 -12 7 -20
18 -21 10 0 12 -3 5 -6 -16 -6 -17 -29 -1 -39 7 -5 8 -3 3 6 -5 9 -4 11 3 6
14 -8 16 -36 3 -36 -5 0 -7 -9 -4 -20 5 -20 -4 -25 -36 -20 -11 1 -10 -2 3
-15 9 -9 16 -27 16 -41 0 -14 6 -24 14 -24 19 0 29 -17 19 -32 -11 -19 -12
-37 -3 -66 5 -15 11 -40 15 -56 3 -17 9 -25 13 -19 4 6 7 -18 8 -53 0 -44 -4
-64 -12 -64 -6 0 -15 -7 -18 -16 -4 -11 -13 -14 -27 -11 -19 5 -20 4 -5 -12 9
-10 16 -24 16 -32 1 -22 30 -56 38 -43 8 13 52 25 52 15 0 -4 -3 -11 -7 -15
-4 -4 -6 -22 -5 -40 2 -23 -2 -35 -12 -39 -10 -4 -13 -1 -9 9 3 7 0 14 -6 14
-6 0 -11 -4 -11 -9 0 -5 -3 -16 -6 -24 -4 -11 2 -16 18 -19 30 -4 37 -38 9
-45 -12 -3 -21 -10 -21 -15 0 -5 4 -7 9 -3 16 9 25 -17 29 -85 3 -60 2 -63
-12 -45 -14 19 -15 18 -11 -12 4 -31 3 -32 -28 -27 -27 5 -30 3 -17 -8 8 -7
20 -22 26 -33 9 -15 22 -20 48 -19 41 1 45 -5 16 -26 -24 -17 -26 -30 -5 -30
21 0 19 -40 -2 -57 -13 -10 -15 -16 -5 -19 20 -9 14 -21 -15 -29 -27 -6 -27
-7 -8 -21 11 -8 25 -12 32 -10 17 7 16 -4 -2 -47 -19 -45 -19 -53 0 -37 12 10
15 7 21 -14 7 -30 -1 -46 -24 -46 -13 0 -13 -2 4 -14 10 -8 15 -18 11 -22 -4
-5 -12 -2 -17 6 -8 12 -10 12 -10 1 0 -9 -9 -12 -30 -9 -16 3 -30 2 -30 -1 0
-3 18 -23 41 -44 31 -30 43 -36 54 -27 18 15 31 -6 15 -25 -9 -11 -9 -15 -1
-15 17 0 13 -31 -6 -52 -11 -13 -14 -22 -7 -26 6 -4 14 -28 17 -55 6 -45 6
-47 -18 -47 -21 0 -25 -5 -25 -28 0 -15 5 -33 12 -40 9 -9 9 -12 -3 -12 -8 0
-24 -9 -36 -19 -13 -13 -25 -16 -34 -10 -8 5 -67 9 -131 8 -107 -1 -118 -3
-118 -19 0 -18 12 -18 208 -16 114 1 212 5 217 8 6 4 75 9 154 13 78 3 163 10
188 14 52 10 77 5 69 -15 -3 -7 -1 -16 4 -19 5 -3 12 -30 16 -61 3 -31 12 -58
18 -60 6 -2 45 -8 86 -12 l75 -7 -45 -22 c-25 -12 -71 -30 -104 -39 -32 -10
-63 -23 -69 -29 -6 -7 -18 -10 -27 -8 -8 2 -44 -8 -80 -22 l-65 -25 730 4
c402 1 737 6 746 10 9 4 16 13 16 21 0 10 -5 11 -18 4 -12 -6 -20 -5 -24 2 -9
13 -11 11 52 43 36 18 51 31 50 44 -1 14 -7 18 -20 14 -35 -9 10 45 53 64 22
10 37 21 34 26 -4 5 -12 7 -18 5 -7 -3 -13 0 -13 7 0 6 18 19 39 28 21 9 35
12 32 6 -5 -8 -1 -9 10 -5 10 4 23 7 29 7 6 0 1 7 -11 16 l-23 16 26 23 c24
23 34 46 18 44 -5 -1 -17 -1 -28 0 -35 2 5 21 46 21 20 0 42 6 48 14 9 11 4
15 -30 20 -43 7 -77 30 -59 41 15 9 2 25 -19 25 -10 0 -21 9 -24 20 -6 22 17
42 60 55 31 9 29 29 -2 23 -26 -5 -35 6 -12 15 8 4 7 6 -3 7 -8 1 1 7 20 14
l35 13 -55 10 c-48 9 -51 11 -20 13 19 1 46 6 60 10 21 7 22 8 5 9 -11 1 -16
5 -10 9 6 4 11 15 13 25 2 12 -4 17 -20 17 -22 0 -63 19 -43 20 6 0 3 5 -5 10
-13 8 -12 10 3 10 11 0 30 9 43 19 l25 20 -43 9 c-39 9 -40 10 -11 11 40 1 64
11 57 22 -3 5 7 9 23 9 15 0 42 7 58 16 27 14 120 34 168 35 31 1 18 19 -14
19 -18 0 -28 -4 -24 -10 4 -7 -22 -10 -78 -9 -63 1 -84 5 -81 14 5 12 -62 25
-138 25 -20 0 -40 5 -43 10 -6 9 17 15 40 10 35 -7 201 -8 209 -1 15 12 135
18 139 7 2 -5 30 -12 62 -17 47 -6 63 -5 75 6 12 13 12 15 -7 15 -12 0 -25 5
-28 11 -4 6 -22 8 -46 4 -22 -4 -39 -3 -39 2 0 5 -112 11 -257 12 -264 3 -425
15 -278 21 39 2 150 3 248 2 97 -1 177 2 177 7 0 4 -11 6 -25 3 -14 -2 -25 0
-25 6 0 6 67 10 182 11 182 2 262 10 112 12 l-79 1 45 11 45 12 -43 3 c-35 3
-40 5 -29 17 7 7 22 15 33 18 10 2 -17 5 -61 6 -255 4 -833 33 -869 43 -22 6
-47 10 -54 9 -8 -1 -20 3 -27 9 -8 7 -19 9 -25 5 -5 -3 -10 -1 -10 5 0 7 12 9
29 7 16 -3 33 -2 36 1 4 4 19 8 33 8 40 3 42 3 42 14 0 6 -9 10 -20 10 -11 0
-20 5 -20 10 0 6 -5 9 -11 8 -6 -2 -14 3 -16 10 -3 6 2 12 11 12 9 0 16 5 16
10 0 6 19 10 43 11 40 1 41 1 14 11 -15 5 -25 13 -22 18 6 9 -253 5 -262 -4
-3 -3 6 -8 21 -12 22 -5 24 -8 11 -21 -20 -20 -19 -30 6 -38 11 -4 18 -9 15
-13 -4 -3 7 -11 24 -18 16 -7 30 -19 30 -25 0 -7 -3 -9 -6 -6 -4 3 -16 1 -27
-5 -12 -6 -66 -14 -121 -17 l-101 -6 -6 -35 c-6 -31 -7 -29 -8 18 -1 50 -12
65 -27 40 -6 -9 -10 -5 -14 12 -4 18 -14 26 -33 28 -15 2 -25 8 -22 13 10 15
-22 22 -71 14 -45 -6 -45 -7 -39 -38 6 -30 1 -26 -82 53 l-88 85 75 -80 c41
-44 80 -83 85 -87 6 -4 15 -11 21 -15 6 -4 14 -18 18 -30 5 -17 3 -23 -8 -23
-12 0 -13 -6 -5 -32 5 -18 9 -48 9 -67 0 -29 -2 -32 -15 -21 -9 7 -18 11 -21
8 -2 -3 7 -13 21 -22 19 -13 25 -25 25 -49 -1 -18 4 -58 11 -90 6 -32 9 -60 6
-63 -3 -3 -20 2 -37 11 -18 9 -30 12 -26 7 3 -5 19 -15 35 -22 33 -13 40 -27
47 -92 12 -109 31 -212 34 -178 1 19 2 38 1 43 0 4 14 7 31 6 31 -1 32 -1 8
-9 l-25 -8 28 -1 c15 -1 27 4 27 9 0 6 8 10 17 10 15 0 14 2 -3 16 -17 14 -17
15 -1 10 10 -3 21 -6 23 -6 2 0 4 -56 4 -125 0 -113 -2 -125 -18 -125 -21 0
-46 53 -39 80 3 11 0 23 -5 26 -7 5 -9 -14 -6 -55 3 -43 1 -61 -8 -61 -7 0
-15 28 -20 73 l-8 72 -6 -45 c-4 -25 -8 -39 -8 -32 -2 10 -5 10 -16 0 -11 -10
-11 -15 -1 -20 7 -4 15 -34 19 -67 l7 -59 44 -7 c25 -3 49 -3 55 0 6 4 10 -6
10 -22 0 -21 -3 -24 -9 -14 -8 12 -18 13 -61 3 -28 -7 -94 -12 -146 -12 -89 0
-94 1 -99 23 -16 73 -25 120 -23 121 2 1 14 7 28 13 l25 12 -32 0 c-28 1 -32
4 -38 40 -5 33 -12 41 -37 50 -17 6 -39 11 -48 11 -14 0 -20 16 -30 93 -12 89
-22 212 -21 251 0 11 5 22 11 26 7 5 6 11 -5 20 -8 7 -15 20 -15 30 0 19 -30
50 -49 50 -8 0 -10 -11 -7 -32 7 -40 26 -221 26 -243 0 -14 -8 -16 -42 -11
l-43 5 38 -12 c48 -16 57 -30 57 -94 0 -48 -1 -51 -22 -45 -13 3 -25 8 -28 11
-3 3 -16 15 -29 26 l-23 20 7 -111 c7 -111 7 -112 -16 -119 -32 -10 -369 -13
-375 -3 -3 5 2 11 10 14 20 8 21 30 2 41 -21 13 -31 53 -12 53 18 0 21 11 7
26 -17 19 -32 77 -20 84 7 5 7 19 -1 49 -8 30 -16 41 -30 41 -11 0 -20 5 -20
10 0 6 7 10 15 10 8 0 15 5 15 10 0 6 58 10 153 11 94 0 144 4 132 9 -11 5
-78 9 -149 9 l-128 1 6 24 c3 12 2 26 -1 30 -4 4 -8 66 -10 139 -1 94 -6 143
-18 170 -14 34 -14 38 1 44 30 11 244 -7 282 -25 20 -9 39 -20 42 -24 10 -13
339 -172 345 -166 2 1 -98 55 -221 118 -213 109 -228 115 -287 116 -34 0 -85
1 -112 2 l-51 2 -1 110 c-1 60 -5 115 -9 122 -4 7 -9 30 -11 53 -1 22 -6 55
-9 74 l-7 33 114 -7 c89 -6 120 -12 142 -27 15 -11 27 -15 27 -9 0 26 -53 44
-158 52 -59 4 -110 8 -114 8 -3 1 -5 37 -4 82 1 44 0 82 -2 84 -3 2 -6 23 -8
47 -9 101 -12 124 -19 141 -9 21 2 21 130 7 l90 -11 84 -87 c96 -99 89 -82 -9
26 l-66 72 -114 15 c-63 8 -116 15 -118 15 -2 0 -2 26 -1 58 1 45 -11 164 -24
236 -2 13 -7 13 126 -3 103 -13 109 -15 130 -45 12 -17 47 -63 78 -102 32 -38
57 -77 57 -85 -3 -43 2 -52 18 -38 13 10 17 10 24 -1 4 -7 6 -20 3 -29 -4 -13
-3 -13 5 -2 7 10 13 8 26 -10 18 -26 21 -43 7 -35 -5 4 -4 -5 2 -18 8 -16 17
-22 31 -18 14 4 17 2 11 -8 -5 -8 -4 -11 2 -7 5 3 19 -7 31 -23 14 -19 18 -30
10 -32 -9 -3 -9 -6 0 -12 7 -4 12 -2 12 5 0 8 4 8 15 -1 18 -15 20 -35 3 -24
-7 4 -8 3 -4 -5 4 -6 12 -9 17 -5 6 3 7 -4 3 -19 -5 -21 -3 -25 13 -21 12 3
29 -6 47 -25 17 -17 25 -31 19 -31 -6 0 -9 -9 -6 -20 4 -14 11 -19 23 -15 13
4 24 -3 36 -25 10 -16 22 -30 26 -30 13 0 9 13 -12 40 -11 14 -20 29 -20 33 0
4 -18 25 -40 46 -33 32 -40 43 -35 64 4 14 2 28 -4 31 -6 4 -11 2 -11 -3 0
-20 -21 -11 -48 21 -43 50 -62 82 -57 96 2 6 0 12 -5 12 -17 0 -49 33 -105
106 -40 52 -55 80 -56 105 -1 29 -2 31 -8 10 -6 -23 -7 -22 -42 20 -20 24 -44
56 -53 71 -10 15 -30 30 -46 33 -20 4 -27 11 -23 21 3 8 -1 14 -8 14 -11 0
-11 3 1 10 13 8 12 10 -4 10 -13 0 -17 -5 -14 -18 4 -15 0 -18 -20 -16 -13 1
-30 8 -36 14 -6 6 -7 11 -1 10 19 -4 35 0 35 8 0 13 -94 32 -101 21 -3 -5 -13
-7 -22 -3 -11 4 -17 1 -17 -7 0 -7 -3 -9 -7 -6 -7 7 -11 33 -12 80 l-1 28 -75
-2 c-41 -1 -75 -4 -75 -7z"/>
<path d="M2860 2386 c0 -6 7 -40 15 -75 17 -69 14 -85 -11 -55 -17 21 -8 -2
10 -26 19 -24 35 -82 37 -132 2 -31 10 -57 25 -75 l22 -28 -4 55 c-10 119 -11
256 -2 267 6 7 5 14 -2 18 -17 11 -11 27 9 20 24 -7 36 21 13 30 -30 13 -112
13 -112 1z"/>
<path d="M7199 2368 c-2 -31 -2 -32 -6 -5 -4 27 -7 28 -50 25 -45 -3 -47 -5
-84 -67 -22 -34 -39 -67 -39 -72 0 -4 -8 -13 -17 -18 -25 -13 -56 -68 -43 -76
18 -11 11 -33 -12 -40 -35 -11 -68 -46 -68 -71 0 -13 -4 -25 -10 -29 -5 -3 -7
-12 -4 -20 4 -8 10 -13 14 -10 4 2 16 -5 26 -16 19 -21 18 -21 -9 -44 -15 -13
-27 -33 -27 -45 0 -12 -10 -25 -24 -31 -13 -6 -30 -22 -37 -36 -11 -20 -11
-26 1 -33 8 -6 11 -10 6 -10 -6 0 -5 -5 1 -11 8 -8 8 -18 1 -35 -10 -20 -8
-28 13 -50 19 -21 21 -28 11 -42 -29 -40 -52 -78 -52 -85 0 -4 11 -13 25 -19
30 -14 32 -24 5 -38 -27 -14 -25 -27 5 -34 16 -4 22 -11 19 -21 -5 -11 -22
-15 -63 -15 -48 0 -61 -4 -81 -25 -25 -27 -59 -32 -78 -13 -8 8 -20 2 -47 -25
-21 -21 -51 -39 -71 -43 -41 -8 -44 -19 -6 -29 31 -8 62 -33 62 -50 0 -7 7
-18 16 -26 14 -11 14 -13 0 -21 -12 -7 -14 -14 -6 -28 22 -41 -6 -43 -484 -36
-454 7 -534 2 -425 -25 30 -7 62 -12 72 -11 9 0 15 -3 12 -8 -3 -5 -21 -6 -40
-3 -47 8 -47 -14 0 -23 19 -3 46 -3 59 0 14 3 27 2 30 -3 4 -5 -8 -13 -26 -17
-18 -4 -36 -9 -40 -10 -5 -1 -23 -2 -40 -4 -23 -1 -10 -6 42 -16 78 -14 224
-9 198 7 -7 5 -26 9 -42 9 -16 0 -27 3 -23 6 3 3 59 2 124 -2 104 -7 112 -9
68 -15 -140 -20 -151 -24 -135 -49 5 -9 32 -14 77 -16 37 -1 79 -6 93 -12 25
-9 25 -9 -9 -17 -39 -8 -25 -25 22 -25 15 0 27 -4 27 -8 0 -4 -16 -6 -36 -4
-26 3 -35 1 -30 -7 4 -6 25 -11 47 -11 21 0 39 -4 39 -9 0 -5 12 -12 28 -16
l27 -8 -37 -9 c-42 -11 -49 -23 -19 -33 33 -10 32 -32 -1 -39 -26 -5 -29 -8
-18 -21 7 -8 22 -16 34 -16 19 -1 19 -2 2 -6 -18 -5 -18 -6 5 -18 l24 -13 -26
-7 c-20 -5 -25 -11 -22 -26 4 -12 0 -19 -9 -19 -9 0 -14 -9 -14 -23 1 -19 -3
-22 -38 -20 -29 2 -37 -1 -33 -12 3 -7 1 -16 -6 -19 -9 -5 -9 -7 1 -12 6 -3
10 -10 6 -15 -3 -5 3 -9 13 -10 10 -1 0 -7 -22 -14 -22 -8 -34 -14 -26 -14 7
-1 11 -7 8 -15 -4 -9 3 -16 19 -20 28 -7 31 -21 7 -35 -16 -9 -16 -10 4 -11
12 0 25 -4 28 -10 3 -5 1 -10 -4 -10 -6 0 -11 -4 -11 -10 0 -5 12 -10 26 -10
14 0 23 -4 19 -10 -3 -5 0 -10 7 -11 7 0 3 -5 -10 -11 -13 -7 -21 -17 -18 -25
6 -16 1 -16 -26 -2 -14 8 -23 8 -31 0 -8 -8 -5 -11 10 -11 27 0 53 -10 53 -19
0 -16 -53 -31 -104 -31 -40 0 -57 5 -71 20 -10 11 -29 20 -43 20 -18 0 -23 4
-18 16 3 8 11 91 16 182 6 92 13 192 15 222 7 99 -18 140 -87 140 -57 -1 -109
-61 -87 -102 8 -15 10 -83 5 -242 -4 -122 -8 -230 -9 -241 -1 -14 3 -19 16
-17 9 2 25 -2 35 -7 12 -7 -52 -10 -212 -11 -151 0 -227 3 -220 10 5 5 76 11
158 13 113 3 150 7 157 18 5 10 3 16 -9 21 -12 5 -7 7 14 7 29 1 32 4 38 47
10 76 7 87 -29 126 -40 42 -40 42 -19 62 14 15 14 16 -2 16 -16 0 -17 13 -11
170 7 188 2 220 -37 220 -30 0 -46 -25 -46 -74 0 -19 -7 -41 -15 -50 -9 -9
-11 -17 -5 -21 6 -4 10 -60 10 -136 0 -84 -4 -128 -10 -124 -5 3 -10 1 -10 -6
0 -19 -416 4 -437 24 -5 5 -5 3 -3 141 0 77 -4 108 -18 140 -11 23 -25 60 -31
84 -10 37 -15 42 -41 42 -33 0 -50 -23 -50 -69 0 -16 -10 -42 -23 -58 -33 -39
-35 -50 -38 -145 -2 -88 -6 -108 -20 -87 -13 22 -49 -18 -49 -55 0 -20 -7 -36
-19 -43 -11 -7 -21 -29 -25 -54 -4 -24 -11 -48 -15 -54 -12 -15 -23 -239 -11
-251 5 -5 11 -26 14 -47 4 -31 1 -39 -17 -49 -12 -6 -23 -11 -24 -10 -2 1 -17
-5 -35 -13 -29 -12 56 -14 685 -15 394 0 717 2 717 4 0 2 -43 51 -95 108 l-95
103 37 3 c32 3 42 -1 66 -30 16 -18 63 -68 105 -111 l77 -79 87 4 c73 2 90 6
102 23 12 16 15 17 16 4 0 -9 6 -17 13 -19 6 -2 380 -5 829 -7 l818 -3 5 27
c22 109 57 175 138 262 l48 51 52 -16 c29 -9 56 -20 60 -24 5 -4 -11 -26 -35
-49 l-43 -42 39 26 c21 14 42 25 45 25 4 0 14 -21 24 -46 20 -55 17 -64 -60
-149 l-55 -60 43 -3 c35 -3 46 1 61 20 l18 23 0 -22 c0 -14 6 -23 15 -23 8 0
15 5 15 11 0 8 4 8 14 0 8 -7 32 -11 52 -9 l38 3 -32 36 c-27 31 -29 38 -16
43 32 12 44 6 44 -21 1 -57 15 -63 149 -63 l122 0 15 33 15 32 -5 -32 -5 -33
455 0 456 0 -38 43 c-21 23 -114 116 -206 205 l-167 164 -46 141 c-35 110
-130 418 -181 589 -5 16 -3 16 25 2 17 -8 51 -35 76 -60 25 -24 47 -44 49 -44
4 0 142 -126 188 -172 21 -21 40 -38 44 -38 15 0 93 -85 99 -107 3 -14 9 -23
12 -19 3 3 32 -21 63 -54 32 -32 61 -56 64 -52 4 3 23 -11 44 -31 21 -21 42
-34 47 -30 4 5 5 2 1 -4 -8 -15 6 -46 20 -43 5 1 13 -13 18 -30 6 -19 14 -29
22 -26 17 6 29 -10 33 -45 1 -8 6 -8 16 1 13 11 15 -11 15 -189 l0 -201 445 0
445 0 0 485 c-1 266 -5 487 -9 489 -7 5 -265 -12 -515 -34 -60 -5 -113 -7
-117 -4 -5 3 -9 -5 -9 -18 l0 -23 -20 25 c-17 22 -19 23 -25 7 -9 -21 -53 -23
-62 -1 -3 8 0 33 7 54 l12 38 107 11 c58 6 224 20 369 32 l262 22 -2 466 c-3
445 -4 466 -21 463 -50 -9 -64 53 -17 71 17 6 33 20 36 31 4 10 3 79 -1 153
l-7 133 -503 0 c-484 -1 -503 -1 -508 -20 -3 -12 4 -26 20 -40 21 -18 23 -24
12 -31 -10 -6 -7 -8 11 -7 14 2 28 7 32 13 4 5 6 0 5 -13 -1 -14 -6 -21 -14
-17 -8 3 -18 -6 -23 -21 -13 -32 -13 -43 0 -24 19 31 28 -5 10 -44 -11 -25
-20 -33 -24 -25 -3 8 -3 3 0 -11 4 -14 18 -35 33 -47 22 -19 24 -24 11 -33 -8
-5 -24 -10 -35 -11 -11 0 -14 -3 -7 -6 6 -2 12 -9 12 -14 0 -6 -4 -7 -10 -4
-6 3 -10 -5 -10 -18 0 -21 -4 -24 -22 -20 -17 3 -19 2 -9 -5 10 -7 12 -21 8
-45 -4 -25 -1 -37 9 -41 8 -3 14 -11 14 -18 0 -10 -2 -10 -8 -1 -4 7 -13 9
-21 4 -11 -7 -10 -11 5 -20 18 -10 18 -10 -1 -11 -15 0 -17 -2 -6 -9 7 -5 11
-13 7 -19 -3 -5 6 -21 21 -36 29 -29 26 -44 -6 -26 -23 12 -26 8 -11 -21 8
-14 7 -19 -2 -19 -7 0 -2 -10 12 -21 14 -12 18 -19 9 -16 -13 4 -15 1 -12 -14
3 -10 9 -16 14 -13 5 3 8 -3 7 -13 0 -10 0 -34 0 -55 2 -32 5 -35 24 -30 14 3
19 2 14 -6 -4 -7 -16 -12 -27 -12 -10 0 -19 -7 -19 -15 0 -8 5 -14 11 -13 6 2
14 -3 16 -9 7 -18 -11 -16 -34 5 -11 9 -18 23 -15 31 3 9 0 11 -7 7 -7 -5 -9
-17 -5 -28 3 -11 7 -28 8 -36 2 -9 9 -18 17 -20 8 -3 18 -11 22 -18 4 -8 14
-14 22 -14 8 0 12 -6 9 -13 -2 -7 2 -29 10 -48 8 -19 15 -28 16 -21 0 6 5 12
11 12 5 0 8 -4 5 -8 -3 -5 1 -9 8 -9 8 0 11 8 8 19 -2 10 0 18 6 18 11 0 9
-97 -3 -108 -5 -4 -5 1 -2 10 4 13 2 15 -10 11 -14 -6 -14 -8 4 -22 20 -17 22
-37 5 -66 -6 -12 -11 -14 -16 -6 -4 6 -1 11 6 11 7 0 2 8 -11 17 -23 16 -23
17 -5 24 15 6 16 8 3 8 -9 1 -22 -6 -29 -14 -7 -8 -9 -15 -5 -15 5 0 0 -9 -10
-20 -10 -11 -16 -21 -14 -23 2 -2 16 -11 32 -20 15 -10 27 -23 27 -30 0 -8 -4
-7 -10 3 -9 13 -10 13 -11 0 -1 -8 -3 -26 -4 -39 -2 -22 -1 -23 10 -8 16 22
21 21 21 -4 0 -16 -5 -20 -23 -16 -13 2 -23 0 -23 -4 0 -5 7 -9 16 -9 9 0 14
-7 12 -17 -1 -10 1 -24 6 -31 10 -17 4 -23 -12 -13 -7 4 -14 18 -15 30 -1 14
-6 20 -15 16 -9 -3 -12 0 -9 8 5 14 -25 47 -43 47 -6 0 -13 7 -16 15 -4 8 -11
15 -17 15 -6 0 -7 -3 -4 -7 4 -3 0 -14 -9 -24 -15 -17 -18 -17 -58 1 -24 10
-60 20 -82 24 -21 3 -40 5 -41 6 -2 0 -3 9 -3 21 0 11 -4 17 -10 14 -6 -4 -17
-1 -25 5 -12 10 -15 9 -15 -2 0 -17 43 -52 229 -187 74 -53 136 -101 138 -107
2 -5 -10 -14 -26 -21 -27 -10 -34 -6 -107 49 -44 33 -133 98 -199 146 -241
172 -735 553 -764 589 -36 44 -38 53 -11 46 21 -5 28 11 10 22 -16 10 -11 22
12 28 16 4 32 -3 59 -28 21 -19 55 -46 76 -60 21 -13 48 -32 61 -41 21 -16 22
-16 22 9 0 39 15 41 82 8 35 -16 66 -26 71 -22 4 4 56 124 116 267 59 142 131
312 159 377 29 65 52 122 52 127 0 6 -269 10 -727 10 -708 -1 -727 -1 -683
-19 45 -17 150 -89 150 -102 0 -4 -17 -2 -38 3 -52 13 -112 -4 -159 -45 -45
-40 -63 -82 -63 -148 l0 -51 -32 27 c-49 41 -96 112 -103 156 -10 60 26 127
85 157 l44 22 -377 0 -377 0 -1 -32z m1057 -212 c33 -24 88 -67 124 -95 l65
-50 143 -1 c217 0 386 -43 414 -105 16 -35 3 -54 -48 -73 -144 -51 -373 -54
-593 -6 -61 13 -75 14 -82 2 -5 -7 -9 -79 -8 -160 l1 -148 26 -19 c42 -30 145
-70 248 -96 52 -14 109 -32 126 -40 31 -14 23 -15 -112 -11 -165 4 -288 24
-408 65 -83 29 -83 29 -81 8 3 -46 -1 -57 -18 -50 -16 6 -15 3 2 -16 18 -20
20 -38 21 -157 2 -142 -2 -151 -43 -112 -13 12 -23 16 -23 9 0 -18 28 -69 51
-92 12 -12 18 -27 15 -36 -4 -9 1 -24 10 -34 22 -24 32 -182 13 -205 -10 -12
-9 -13 6 -8 17 7 18 1 11 -82 -14 -182 -17 -204 -35 -204 -10 0 -26 6 -36 14
-17 12 -18 27 -11 288 6 261 5 276 -13 299 -10 13 -21 47 -23 74 -8 74 11 457
23 481 14 28 81 70 143 90 28 9 54 19 57 23 4 3 9 47 13 98 l6 92 -70 56 c-39
31 -70 60 -70 65 0 13 36 13 59 0 11 -6 30 -6 49 -1 26 8 34 5 53 -15 12 -13
31 -24 41 -24 24 0 15 16 -23 39 -48 29 -179 145 -179 158 0 10 19 15 81 21 9
1 43 -18 75 -42z m764 -796 c-15 27 -7 36 13 15 9 -8 21 -15 27 -15 6 0 8 -4
5 -10 -3 -5 1 -10 9 -10 8 0 18 -9 21 -20 5 -16 12 -19 27 -14 16 5 29 -2 52
-27 18 -19 51 -50 74 -69 82 -69 39 -61 -51 8 -31 25 -60 43 -63 39 -3 -3 4
-10 16 -17 17 -9 123 -93 205 -161 25 -21 306 -243 410 -323 74 -58 76 -60 53
-72 -13 -8 -29 -13 -35 -14 -7 0 -69 44 -137 98 -69 53 -147 113 -173 132
-178 131 -643 514 -643 531 0 5 45 -14 101 -41 83 -42 98 -47 89 -30z"/>
<path d="M1247 2361 c-15 -29 -9 -55 10 -49 6 2 10 -1 10 -7 -1 -5 -11 -9 -22
-7 -11 2 -41 4 -67 5 -31 1 -48 7 -48 15 0 6 -4 12 -10 12 -5 0 -10 -11 -10
-25 0 -14 4 -25 9 -25 5 0 16 -16 23 -36 12 -33 13 -34 18 -13 4 17 14 25 33
27 15 2 27 -2 27 -8 0 -6 5 -8 10 -5 6 3 10 -3 10 -13 0 -17 18 -32 36 -32 13
0 1 35 -18 50 -13 10 -20 22 -15 26 11 11 57 -37 57 -60 1 -16 4 -12 15 13 19
42 19 56 -1 75 -8 9 -12 21 -9 26 7 12 -20 60 -34 60 -5 0 -16 -13 -24 -29z"/>
<path d="M330 2286 c0 -29 3 -31 50 -40 26 -5 31 -4 20 3 -13 10 -13 11 0 11
22 0 146 -36 167 -50 16 -10 16 -10 -4 -5 -13 4 -23 4 -23 1 0 -3 45 -19 99
-36 55 -17 102 -37 105 -43 4 -7 4 -1 2 12 -5 22 -3 23 37 17 49 -8 103 -38
99 -55 -3 -17 99 -62 123 -54 17 5 18 4 7 -10 -9 -10 -9 -17 -3 -22 11 -6 -12
-52 -34 -67 -7 -5 -7 -8 0 -8 13 0 75 64 98 102 16 26 16 28 -3 38 -11 6 -20
7 -20 3 0 -4 -7 2 -16 13 -15 19 -16 19 -9 -1 5 -16 4 -18 -6 -7 -7 6 -20 12
-29 12 -8 0 -42 18 -75 39 -33 22 -64 37 -70 33 -5 -3 -2 6 8 21 18 28 23 62
7 52 -5 -3 -10 -15 -10 -26 0 -11 -5 -17 -10 -14 -6 4 -9 1 -8 -7 2 -10 -9
-12 -42 -10 -41 3 -75 12 -215 57 -27 9 -70 20 -95 25 -25 5 -65 16 -89 24
-57 21 -61 20 -61 -8z"/>
<path d="M307 2074 c-3 -4 -2 -15 4 -26 8 -14 18 -19 35 -15 13 2 24 0 24 -6
0 -6 3 -7 7 -4 3 4 11 3 17 -2 6 -4 28 -11 49 -14 44 -7 97 -28 97 -39 0 -5 6
-8 14 -8 21 0 31 -21 15 -31 -11 -7 -10 -9 5 -9 13 0 17 5 13 20 -4 15 0 20
13 20 21 0 190 -43 252 -64 42 -15 44 -15 68 9 l25 25 -30 1 c-17 1 -34 2 -40
4 -5 1 -16 3 -23 3 -7 1 -11 6 -8 11 4 5 -4 7 -16 3 -13 -3 -19 -1 -15 5 4 6
-4 9 -21 6 -22 -3 -23 -2 -8 5 19 8 19 9 -2 14 -11 3 -23 1 -25 -5 -4 -12
-107 12 -107 25 0 5 -4 7 -9 4 -12 -8 -124 23 -132 36 -4 6 -12 8 -17 4 -9 -6
-106 12 -163 29 -8 3 -18 2 -22 -1z"/>
<path d="M5300 1901 c0 -4 -18 -31 -40 -59 -47 -59 -50 -77 -12 -90 16 -6 20
-11 10 -11 -9 -1 -29 4 -43 9 -20 8 -26 7 -23 -2 3 -7 26 -17 51 -22 l47 -9 0
-61 c0 -34 -5 -175 -12 -313 -9 -197 -15 -253 -25 -253 -7 0 -13 -4 -13 -10 0
-5 6 -9 13 -7 8 1 13 -20 15 -75 2 -43 -1 -78 -5 -78 -4 0 -8 -88 -8 -195 l0
-195 37 0 37 0 3 196 c2 108 0 198 -5 201 -4 2 -6 52 -5 111 1 59 0 234 -1
390 -2 156 -2 284 0 286 2 2 24 7 48 10 25 3 48 11 52 18 9 15 -6 35 -31 43
-20 6 -70 84 -70 109 0 9 -4 16 -10 16 -5 0 -10 -4 -10 -9z"/>
<path d="M1133 1838 c-21 -10 -38 -36 -29 -45 3 -3 19 2 37 11 30 15 34 15 52
-1 11 -10 26 -33 34 -50 7 -18 17 -33 22 -33 5 0 17 -7 25 -16 12 -12 16 -37
16 -104 0 -93 13 -127 24 -62 16 101 -2 222 -34 222 -6 0 -18 15 -27 34 -23
50 -71 68 -120 44z"/>
<path d="M2657 962 c-10 -10 -17 -32 -17 -49 0 -26 5 -32 33 -39 l32 -8 -34
-3 c-31 -4 -33 -6 -27 -35 3 -17 6 -37 6 -44 0 -9 11 -14 30 -14 20 0 30 -5
30 -15 0 -8 4 -15 9 -15 13 0 18 32 10 60 -4 14 -7 52 -8 86 -1 45 -6 65 -19
77 -23 21 -25 21 -45 -1z"/>
<path d="M406 745 c-3 -8 3 -19 12 -25 12 -8 -8 -9 -78 -5 -52 4 -108 7 -125
8 l-30 2 -7 -75 c-3 -41 -9 -109 -12 -150 -3 -41 -8 -90 -12 -107 -4 -20 -3
-33 4 -33 17 0 33 46 35 103 1 25 8 42 20 49 14 7 16 13 7 24 -9 10 -9 22 -1
46 9 26 9 35 -1 43 -18 13 -17 33 2 45 8 5 59 10 114 10 77 0 96 -3 89 -12 -6
-7 -15 -93 -22 -190 -6 -97 -15 -188 -21 -202 -10 -28 -4 -36 26 -32 10 2 17
10 15 17 -9 30 -7 119 2 119 5 0 7 19 5 45 -3 25 -2 45 3 45 8 0 25 105 20
128 -1 8 5 43 14 79 14 54 14 67 3 74 -21 14 -55 10 -62 -6z"/>
<path d="M687 553 c-9 -21 -9 -27 1 -31 6 -2 12 -8 12 -14 0 -7 -15 -8 -40 -4
l-40 6 0 -82 c0 -57 3 -78 10 -68 5 8 10 39 10 68 0 28 5 52 10 52 6 0 10 -22
10 -50 0 -27 4 -50 9 -50 5 0 11 -12 13 -27 2 -14 8 -28 14 -30 13 -4 24 63
24 139 0 27 5 58 11 69 7 15 7 24 -2 35 -17 21 -28 17 -42 -13z"/>
<path d="M2530 260 c0 -5 -13 -10 -30 -10 -35 0 -40 -22 -13 -52 9 -11 11 -18
5 -18 -7 0 -12 -5 -12 -11 0 -6 6 -9 14 -6 8 3 16 -2 19 -14 3 -13 14 -19 34
-20 15 0 38 -2 51 -3 12 -2 22 0 22 4 0 12 77 17 103 6 12 -6 17 -4 17 8 0 19
26 22 34 4 5 -10 7 -10 12 -1 3 8 16 10 35 6 17 -3 29 -1 29 5 0 12 -47 25
-60 17 -5 -3 -12 0 -16 6 -4 8 -9 7 -16 -2 -8 -11 -9 -11 -5 1 2 8 15 15 28
16 81 4 79 3 79 29 0 22 -4 25 -35 25 -25 0 -35 -4 -35 -15 0 -9 -6 -15 -12
-13 -7 1 -23 -3 -35 -10 -12 -7 -29 -9 -38 -5 -15 5 -15 8 5 18 21 11 21 12
-14 18 -21 3 -47 2 -59 -3 -20 -7 -20 -9 -4 -15 23 -9 22 -28 -3 -50 -18 -16
-20 -16 -26 -1 -3 9 -4 25 -1 36 7 27 -20 60 -49 60 -13 0 -24 -4 -24 -10z"/>
</g>
<text x="298" y="100" font-family="monospace" font-size="40px" fill="black" font-weight="bold">
Welcome to Aberystwyth</text>
<text x="364" y="140" font-family="monospace" font-size="40px" fill="black" font-weight="bold">
Weather Station</text>
</svg>
