<?xml version="1.0" standalone="yes"?>
<svg width="600" height="250">
<path style="fill:#000000; stroke:none;" d="M0 0L0 250L600 250L600 0L0 0z"/>
<path style="fill:#cecece; stroke:none;" d="M26 5.47145C0.773809 9.93698 12.6103 43.2835 15.4136 60C23.6735 109.256 32.915 158.545 39.8696 208C41.7825 221.603 41.4623 247.888 60 248.957C62.5962 249.107 65.4251 249.188 68 248.786C84.0899 246.274 82.4019 228.856 80.4136 217C76.8379 195.678 73.4527 174.329 69.9198 153C68.6936 145.598 64.6139 135.298 70.1481 129.039C89.3708 107.299 118.27 109.22 144 104.75C160.797 101.832 176.682 94.421 191 85.3048C197.936 80.8885 205.834 76.0922 210.336 68.9853C214.999 61.6259 212.966 52.753 204.999 48.919C195.025 44.1186 182.636 45.1713 172 42.5247C160.357 39.6273 150.056 33.8717 139 29.4491C129.55 25.6688 119.914 22.9225 110 20.6512C93.5331 16.8786 76.744 16.2297 60 15.0895C56.4316 14.8465 52.5758 15.8977 49.0934 15.3966C45.7559 14.9164 44.2088 11.5446 41.8156 9.5571C37.674 6.11763 31.2783 4.53708 26 5.47145z"/>
<path style="fill:#bdbebf; stroke:none;" d="M28 7.6412C19.9531 8.29678 13.1802 15.04 12.3403 23C11.1542 34.2409 15.7243 47.8956 17.5864 59C25.7389 107.615 34.5446 156.234 41.7284 205C43.8778 219.591 43.5739 248.914 65 246.894C81.979 245.294 79.9031 227.974 77.9198 216C74.3867 194.67 70.9894 173.323 67.4136 152C66.0703 143.99 61.9607 133.684 68.1096 127.039C86.1657 107.528 111.722 106.695 136 103.714C155.411 101.33 173.692 93.2481 190 82.6551C196.627 78.3506 203.855 73.7288 208.297 67C212.562 60.5408 209.631 54.1105 202.999 50.919C192.72 45.9718 179.939 47.1583 169 44.2654C157.748 41.2897 147.737 35.7439 137 31.4491C127.55 27.6688 117.914 24.9225 108 22.6512C91.6431 18.9038 74.6802 17.8378 58 17.1042C54.6749 16.9579 51.3332 18.1991 48.0401 17.8125C44.1452 17.3553 42.5727 13.847 39.8156 11.5571C36.6747 8.94846 32.1058 7.3067 28 7.6412z"/>
<path style="fill:#000000; stroke:none;" d="M28.0008 17.7863C23.3032 18.4121 21.5355 22.8129 21.848 27C22.6432 37.6559 25.334 48.4574 27.0802 59C34.4135 103.273 42.8773 147.546 49 192C50.6523 203.997 52.5868 216.118 54.9352 227.999C55.8186 232.468 58.532 237.451 63.9823 236.461C68.6002 235.623 69.7929 231.025 69.3696 227C68.2448 216.305 65.8377 205.61 64.0802 195C56.7941 151.011 49.4815 107.022 42.4105 63C40.4852 51.0138 38.7804 38.9008 36.385 27C35.5168 22.6861 33.5371 17.0487 28.0008 17.7863M48 28C49.2815 57.8474 59.6462 87.2158 62 117C74.8067 110.464 84.6306 101.676 99 97.8843C112.612 94.2921 126.28 94.8314 140 92.385C153.519 89.9746 166.155 84.2005 178 77.4213C185.777 72.9699 195.599 68.1176 200 60C188.182 56.679 175.797 56.7799 164 53.2793C148.142 48.5735 133.925 39.972 118 35.4275C94.9725 28.8562 71.7481 28 48 28z"/>
<path style="fill:#76a9b1; stroke:none;" d="M272 52C273.769 52.779 275.036 52.9124 277 53C275.231 52.2211 273.964 52.0876 272 52z"/>
<path style="fill:#abcdcc; stroke:none;" d="M277 52C273.959 52.8996 271.169 52.992 268 53C269.804 54.0392 278.366 55.3089 277 52z"/>
<path style="fill:#ccd0d0; stroke:none;" d="M183 117C208.406 114.398 224.118 85.3362 244 72.6952C251.397 67.9922 262.036 62.2567 271 64C260.728 69.6312 251.69 75.738 252.133 89C252.285 93.5409 254.783 97.4648 255 102C266.23 109.545 281.904 112.507 294 105C294.066 107.571 293.889 110.551 295.144 112.892C299.107 120.288 312.121 118 319 118C309.746 114.115 296.554 117.953 295 104C288.164 104.596 282.006 107.412 275 106.91C270.39 106.579 265.877 105.17 262.015 102.612C259.033 100.636 256.877 98.2252 255.328 94.9961C246.092 75.7373 272.987 61.573 289 63.3171C298.422 64.3434 301.017 72.2912 299 80C308.647 77.1353 304.137 66.2944 296.996 63.108C285.622 58.0328 272.793 58.7789 261 61.9236C250.917 64.6123 241.019 69.6434 233 76.3256C218.468 88.4356 207.138 104.813 189 112C201.716 101.616 211.936 88.2296 224.015 77.1736C237.198 65.1071 255.945 55.83 274 55.0394C285.376 54.5412 310.106 57.6369 309.447 74C308.776 90.6629 277.92 91.6841 278 74C281.787 75.9492 284.254 81.0039 289.003 80.6628C293.111 80.3678 298.12 75.6596 295.777 71.3403C294.18 68.396 290.106 67.2358 287 67.1836C280.112 67.068 271.191 69.2737 266.21 74.213C259.523 80.8443 256.749 94.401 266.019 100.142C277.797 107.437 290.311 98.0851 302 97.5139C305.855 97.3255 309.541 99.5814 313 101C310.16 101.841 306.808 101.571 304.11 102.742C298.339 105.248 301.55 110.509 306.015 112.007C311.796 113.947 319.166 112.748 325 111.483C343.978 107.367 356.867 92.6702 374 85.1744C382.333 81.5289 392.123 81.0875 397 90C393.039 89.2647 387.964 88.0242 384.318 90.4568C379.677 93.5531 382.256 102.51 385.279 105.812C389.757 110.704 397.61 112.271 404 111.907C418.082 111.104 429.447 105.283 438.907 95C448.128 84.976 457.414 68.7405 474 73.5077C480.273 75.3109 481.483 80.4949 486 84C485.113 80.9792 484.259 78.1385 484 75C480.173 72.5951 475.756 70.2867 471.09 70.3025C467.475 70.3147 464.746 71.5919 461 71C461 74.2843 452.765 75.9082 450 78.1667C442.956 83.9207 438.492 92.5978 432 99C428.754 102.201 425.695 105.371 421 105C416.974 108.773 410.355 108.77 405 109L406 111L399 111L400 109C389.83 108.084 383.085 102.152 383 92C387.834 92.6003 392.953 90.8908 398 91C397.222 84.0787 392.638 83.8569 388 80C382.632 81.3224 377.115 81.9371 372 84.1744C362.12 88.4964 353.269 96.054 344 101.6C336.001 106.387 325.542 112.192 316 110C311.523 113.334 307.583 109.596 303 108L303 106C306.872 104.669 309.961 104.717 314 105C313.551 99.1794 309.876 98.5079 306 95C303.087 95.5765 299.912 95.1241 297.09 95.963C294.566 96.7131 292.486 98.4966 289.961 99.3202C280.261 102.483 264.669 101.868 261.603 89.8302C260.983 87.3927 261.807 84.4701 262 82C267.688 80.0781 271.035 73.7823 277 71.3526C283.277 68.7959 288.712 71.1714 295 71C294.93 74.6643 291.462 78.9041 287.209 77.5224C284.617 76.6801 283.666 73.4216 280.94 72.7508C275.745 71.4724 276.292 78.6522 277.13 81.5718C280.18 92.1903 299.996 90.7007 306.892 85.2106C312.059 81.0975 311.996 75.0361 312 69L310 70C309.225 68.0632 309.17 65.7553 308 64C304.901 59.3521 299.765 59.0121 296 56L297 55C274.279 51.2157 250.693 55.1704 231.285 68.814C222.327 75.1121 215.996 83.5311 208 90.8302C202.261 96.0691 196.687 101.481 190.961 106.715C187.44 109.932 183.823 112.086 183 117z"/>
<path style="fill:#71a4a8; stroke:none;" d="M281 52C282.769 52.7789 284.036 52.9124 286 53C284.231 52.2211 282.964 52.0876 281 52z"/>
<path style="fill:#73867c; stroke:none;" d="M267 53L268 54L267 53z"/>
<path style="fill:#afd4d2; stroke:none;" d="M281 53C283.613 54.0977 286.165 53.9928 289 54C286.387 52.9023 283.836 53.0072 281 53z"/>
<path style="fill:#b2cbc9; stroke:none;" d="M255 56C258.978 57.1769 263.766 55.0902 268 55C263.654 53.1804 259.322 54.63 255 56z"/>
<path style="fill:#86a0a4; stroke:none;" d="M293 54L294 55L293 54z"/>
<path style="fill:#99dad8; stroke:none;" d="M194 109C203.059 106.921 209.391 99.317 216.09 93.385C230.821 80.3396 243 66.4316 263 61.6759C274.192 59.0146 286.407 58.1553 296.996 63.5579C304.289 67.2787 307.358 75.8764 299 80C301.795 72.3161 299.193 64.648 290 63.2423C273.143 60.6646 246.114 74.8201 254.88 94.9961C256.597 98.9463 259.231 101.736 263.004 103.812C266.974 105.997 271.508 106.881 276 106.985C282.693 107.141 288.499 104.956 295 104C295.562 114.273 304.924 116.97 314 116.971C331.63 116.972 348.058 107.924 362 98C367.01 94.434 371.669 89.4695 378 89C377.019 91.5517 375.67 94.2103 375.654 97C375.593 108.146 387.662 113.87 397 115.535C413.034 118.395 430.607 111.395 441.572 99.8302C447.729 93.3366 451.872 82.5625 461 80C459.91 82.9259 458.674 85.8321 458.586 89C457.999 110.175 480.606 117.268 498 114.699C506.438 113.453 513.866 107.712 521 103.399C526.923 99.8183 534.888 91.3151 542 92C541.088 95.8299 540.437 100.097 541.419 103.996C544.469 116.102 563.978 118.207 574 115.363C577.199 114.455 580.152 112.662 583 111C579.56 109.78 576.53 111.393 573 111.816C564.037 112.888 551.576 111.381 547.448 101.999C543.938 94.0202 556.037 78.7257 563.418 87.5093C567.056 91.8387 559.653 92.9138 557 93C560.495 100.915 572.977 98.1356 571.487 89.0008C569.683 77.942 553.603 78.954 546 82.0154C531.224 87.965 519.067 98.9105 505 106.215C497.399 110.161 487.123 112.812 479 108.95C471.214 105.248 464.381 95.9544 465.228 87.0046C466.116 77.626 475.73 79.2867 480 85C486.25 82.9172 482.217 76.978 477.96 74.6844C472.407 71.6927 465.723 72.2871 460 74.4676C449.811 78.3494 445.883 86.4134 438.907 94C429.288 104.459 416.788 112.259 402 111.871C395.515 111.701 388.48 109.343 384.514 103.96C380.48 98.4857 381.217 90.1485 389.001 89.2531C391.638 88.9497 394.392 89.6707 397 90C393.669 80.7121 382.735 81.5639 375 84.3835C368.627 86.7066 363.533 91.0223 358 94.784C347.675 101.804 335.48 109.45 323 111.678C317.316 112.693 310.431 113.99 305.048 111.231C301.437 109.381 300.076 105.535 304.124 103.179C306.721 101.668 310.116 102.008 313 102C299.779 88.7539 279.717 111.295 265.055 98.7215C257.782 92.4849 259.756 82.7097 265.38 76.0432C270.318 70.1884 280.316 66.4731 288 67.4298C296.461 68.4832 298.648 79.4398 289.003 80.338C284.522 80.7553 282.023 75.2512 278 74C275.353 93.6077 314.336 89.9991 309.347 71C305.425 56.0616 286.494 54.7086 274 55.0147C255.96 55.4566 237.388 64.5497 224.015 76.3002C219.646 80.1387 216.155 84.9111 211.999 88.9853C205.668 95.1916 197.55 100.622 194 109z"/>
<path style="fill:#92bbb6; stroke:none;" d="M253.667 56.3333C253.222 56.7778 254.278 56.7222 254.333 56.6667C254.778 56.2222 253.722 56.2778 253.667 56.3333z"/>
<path style="fill:#bbd0d0; stroke:none;" d="M296 56C301.617 60.6598 306.867 62.877 310 70C312.465 62.4004 302.121 57.0918 296 56z"/>
<path style="fill:#b0cecd; stroke:none;" d="M231 69C239.066 65.2342 246.312 60.3715 255 58C248.313 55.6811 234.486 63.3004 231 69z"/>
<path style="fill:#476769; stroke:none;" d="M242 60L243 61L242 60z"/>
<path style="fill:#000000; stroke:none;" d="M278.667 61.3333C278.222 61.7778 279.278 61.7222 279.333 61.6667C279.778 61.2221 278.722 61.2778 278.667 61.3333M271 62C272.248 62.6848 272.548 62.7488 274 63C272.752 62.3152 272.452 62.2512 271 62z"/>
<path style="fill:#a9d3d2; stroke:none;" d="M271 63C274.879 64.3913 279.83 63.0115 284 63C279.863 61.2639 275.312 62.1995 271 63z"/>
<path style="fill:#345552; stroke:none;" d="M235 64L236 65L235 64z"/>
<path style="fill:#76c3c4; stroke:none;" d="M266.667 64.3333C266.222 64.7777 267.278 64.7223 267.333 64.6667C267.778 64.2221 266.722 64.2779 266.667 64.3333z"/>
<path style="fill:#abd5d3; stroke:none;" d="M252 85C253.694 82.2269 254.133 78.9929 255.75 76.1705C259.009 70.4813 265.053 67.2061 271 65C260.084 61.8152 252.382 76.2419 252 85z"/>
<path style="fill:#92cbcb; stroke:none;" d="M228 70C229.58 69.3165 229.777 69.1951 231 68C229.42 68.6836 229.223 68.8047 228 70z"/>
<path style="fill:#055451; stroke:none;" d="M259 68L260 69L259 68z"/>
<path style="fill:#000000; stroke:none;" d="M283 70C283.435 71.3956 283.764 72.7107 284.482 74C285.048 75.0147 285.701 76.5234 286.753 77.1489C291.941 80.2348 294.791 71.1369 288.005 69.7415C286.333 69.3975 284.653 69.7699 283 70z"/>
<path style="fill:#b5d2d1; stroke:none;" d="M217 82C221.241 78.0827 225.068 74.0852 230 71C224.094 69.6425 218.431 76.901 217 82z"/>
<path style="fill:#add6d5; stroke:none;" d="M276 75C277.666 73.7446 279.099 72.8412 281 72C277.956 70.515 276.917 72.0177 276 75z"/>
<path style="fill:#97d6d0; stroke:none;" d="M279 70C280.588 71.6267 282.078 72.7738 284 74C282.873 71.1595 282.013 70.5083 279 70z"/>
<path style="fill:#aed5d4; stroke:none;" d="M302 70L302 77C303.733 74.3485 303.733 72.6514 302 70z"/>
<path style="fill:#a8cfce; stroke:none;" d="M467 70L463 71C464.553 71.8905 468.08 72.6156 467 70z"/>
<path style="fill:#668a8d; stroke:none;" d="M276 71L277 72L276 71z"/>
<path style="fill:#add1d0; stroke:none;" d="M293 71L294 76C295.319 73.6321 295.18 72.6251 293 71z"/>
<path style="fill:#aececd; stroke:none;" d="M451 76C454.732 76.6217 458.383 74.0416 462 73C457.919 71.4587 454.505 73.8862 451 76z"/>
<path style="fill:#8ed8d4; stroke:none;" d="M275 73C274.438 74.8006 274.176 76.1218 274 78C275.133 76.1014 275.473 75.1428 275 73z"/>
<path style="fill:#7fb8ba; stroke:none;" d="M293 73L293 76C293.696 74.4463 293.696 74.5537 293 73z"/>
<path style="fill:#608f90; stroke:none;" d="M455 73L456 74L455 73z"/>
<path style="fill:#94caca; stroke:none;" d="M284 74L285 78C285.553 75.9922 285.303 75.6676 284 74z"/>
<path style="fill:#afd4d2; stroke:none;" d="M275 75L275 79C275.71 77.2405 275.71 76.7595 275 75z"/>
<path style="fill:#82a4a4; stroke:none;" d="M450 76L451 77L450 76z"/>
<path style="fill:#b7cdcb; stroke:none;" d="M483 76L485 83C486.169 79.8973 485.302 78.2513 483 76z"/>
<path style="fill:#abd2d1; stroke:none;" d="M442 88C445.201 84.5571 448.335 80.8689 451 77C446.148 79.2692 443.068 82.7062 442 88z"/>
<path style="fill:#35636d; stroke:none;" d="M553 77L554 78L553 77z"/>
<path style="fill:#6e9fab; stroke:none;" d="M554 77C555.506 77.6831 556.315 77.8259 558 78C556.494 77.317 555.685 77.1741 554 77z"/>
<path style="fill:#8ececf; stroke:none;" d="M252 78C250.547 82.2924 250.037 86.4763 250 91C251.637 87.3527 252.922 81.9029 252 78z"/>
<path style="fill:#618e91; stroke:none;" d="M274.333 78.6667C274.278 78.7223 274.222 79.7777 274.667 79.3333C274.722 79.2779 274.778 78.2222 274.333 78.6667z"/>
<path style="fill:#88969a; stroke:none;" d="M287 78L288 79L287 78z"/>
<path style="fill:#859f99; stroke:none;" d="M289 78L290 79L289 78z"/>
<path style="fill:#5b8d94; stroke:none;" d="M447 78L448 79L447 78z"/>
<path style="fill:#cdd0d0; stroke:none;" d="M548 78C548 81.5117 539.085 83.4957 536 85.1667C527.759 89.6303 520.034 95.5351 512 100.333C506.404 103.675 501.782 108.071 495 107C495 110.085 492.442 108.45 490 108C490 111.102 486.633 110 484 110L485 108C477.31 106.513 458.677 92.0128 470.344 83.7855C475.822 79.9228 481.679 90.2696 486 84L480 85C477.512 79.957 469.126 76.5201 465.894 83.2778C462.023 91.3712 468.586 102.639 475.015 107.197C481.618 111.879 489.514 111.312 497 109.572C513.27 105.79 526.318 92.1528 541 84.76C549.381 80.5397 564.834 75.709 570.387 87.0185C573.021 92.3819 567.979 98.8363 562.056 97.5239C559.478 96.9529 558.329 95.0497 557 93C559.087 92.9753 561.838 93.2795 563.64 91.973C569.551 87.6861 558.217 84.6737 555.015 85.5764C544.065 88.6629 544.351 103.702 553.005 108.992C562.038 114.513 573.42 111.409 583 110C572.103 117.758 550.266 120.002 542.573 105.961C540.574 102.313 541 98.0129 541 94C540.026 96.3199 540.007 98.464 540.001 101.001C539.995 103.605 539.788 106.466 540.858 108.91C545.237 118.916 560.144 118.045 569 117.999C575.322 117.966 584.745 116.298 586 109L575 109C571.312 111.794 566.481 111 562 111L563 109C552.665 108.062 542.469 94.1111 556.039 88.4877C558.201 87.5915 560.727 87.9262 563 88C560.896 89.9424 559.881 90.125 557 90C556.218 92.992 556.351 95.9295 556 99C560.166 99.992 565.915 101.066 569.87 98.821C576.456 95.0827 575.414 86.0849 570.471 81.51C564.87 76.3267 554.982 79.2962 548 78z"/>
<path style="fill:#abd3d2; stroke:none;" d="M550 78C553.432 79.4403 557.3 79 561 79C557.568 77.5597 553.7 78 550 78z"/>
<path style="fill:#84bbbc; stroke:none;" d="M275.333 79.6667C275.278 79.7223 275.222 80.7777 275.667 80.3333C275.722 80.2778 275.778 79.2222 275.333 79.6667z"/>
<path style="fill:#add2d1; stroke:none;" d="M276 79C276.406 81.0924 276.217 81.0198 278 82C277.309 80.6116 277.015 80.1394 276 79z"/>
<path style="fill:#abcccc; stroke:none;" d="M536 84C540.254 84.7086 544.936 81.3839 549 80C544.498 78.6723 539.845 81.7641 536 84z"/>
<path style="fill:#8fc9c7; stroke:none;" d="M216 80C215.043 81.5167 214.613 82.3385 214 84C215.63 82.4852 216.163 82.1447 216 80z"/>
<path style="fill:#b1cdcc; stroke:none;" d="M335 105C340.273 106.401 346.593 100.605 351 98.0108C362.813 91.0565 372.561 81.6295 387 81C381.246 78.591 374.231 81.3748 369 84.1204C357.225 90.3008 347.13 99.3301 335 105z"/>
<path style="fill:#b4d0d0; stroke:none;" d="M388 80C391.577 84.4929 396.65 84.3698 398 91C400.844 83.9461 393.448 81.5804 388 80z"/>
<path style="fill:#cecfcf; stroke:none;" d="M378 89C368.56 89.3064 360.768 98.7976 353 103.536C339.195 111.958 323.263 118 307 118C312.399 120.266 319.353 118.8 325 117.999C343.489 115.377 363.243 103.329 376 90C375.174 92.6111 374.178 95.2121 374.419 98C376.283 119.588 402.737 119.952 419 116.482C438.761 112.266 447.613 95.4799 459 81C457.889 84.955 456.741 88.8489 457.305 93C460.307 115.116 484.291 121.139 503 116.073C509.158 114.405 514.59 110.446 520 107.2C525.78 103.732 535.785 99.727 538 93L542 94C537.937 87.7242 524.671 100.575 520 103.399C512.866 107.712 505.438 113.453 497 114.699C482.375 116.859 463.163 111.421 459.38 95C458.155 89.6832 459.646 85.0768 461 80C452.014 81.3867 447.936 91.6896 442.41 97.9606C431.701 110.113 416.227 116.82 400 115.787C390.382 115.175 377.079 108.809 376.093 98C375.812 94.9284 377.214 91.9116 378 89z"/>
<path style="fill:#afd6d4; stroke:none;" d="M458 81C455.657 85.4508 455.663 89.08 456 94C457.537 90.4374 458.863 84.7788 458 81z"/>
<path style="fill:#517678; stroke:none;" d="M540 81L541 82L540 81z"/>
<path style="fill:#b8cdcd; stroke:none;" d="M262 82L261 92C262.499 88.886 263.06 85.3419 264 82L262 82z"/>
<path style="fill:#4d7663; stroke:none;" d="M372 82L373 83L372 82z"/>
<path style="fill:#619c9f; stroke:none;" d="M213 83L214 84L213 83z"/>
<path style="fill:#92dcd8; stroke:none;" d="M476 83C476.684 84.58 476.805 84.7772 478 86C477.316 84.42 477.195 84.2228 476 83z"/>
<path style="fill:#b3d5d3; stroke:none;" d="M198 100C204.303 96.2619 210.787 89.9768 215 84C208.53 87.0127 201.035 93.4951 198 100z"/>
<path style="fill:#c8ffff; stroke:none;" d="M442 84L443 85L442 84z"/>
<path style="fill:#8ac4c4; stroke:none;" d="M456.333 84.6667C456.278 84.7223 456.222 85.7777 456.667 85.3333C456.722 85.2779 456.778 84.2222 456.333 84.6667z"/>
<path style="fill:#aecccc; stroke:none;" d="M478 84C478.654 87.0539 480.007 86.9358 483 87L478 84z"/>
<path style="fill:#889e9f; stroke:none;" d="M535 84L536 85L535 84z"/>
<path style="fill:#afd5d4; stroke:none;" d="M251 85C251.004 91.1675 251.872 95.6147 255 101C255.689 96.8834 252.706 88.9543 251 85z"/>
<path style="fill:#21434a; stroke:none;" d="M366 85L367 86L366 85z"/>
<path style="fill:#b7cecd; stroke:none;" d="M497 107C501.509 108.236 506.245 104.638 510 102.316C518.702 96.935 527.242 91.2915 536 86C531.793 85.1028 527.516 89.0528 524 91.2037C515.099 96.6493 506.687 102.966 497 107z"/>
<path style="fill:#517d7b; stroke:none;" d="M210 86L211 87L210 86z"/>
<path style="fill:#8bcfcf; stroke:none;" d="M399 86C398.432 89.5824 397.492 90.9433 394 92C398.924 95.0203 401.467 90.3501 399 86z"/>
<path style="fill:#8fc5c0; stroke:none;" d="M441 86C440.014 87.4785 440 87.2032 440 89C441.289 87.5573 441.401 87.7663 441 86z"/>
<path style="fill:#3f8c79; stroke:none;" d="M455 86L456 87L455 86z"/>
<path style="fill:#568082; stroke:none;" d="M209 87L210 88L209 87z"/>
<path style="fill:#5b9696; stroke:none;" d="M480 87L481 88L480 87z"/>
<path style="fill:#000000; stroke:none;" d="M553 89C555.621 89.3746 557.298 89.0292 559 87C556.854 87.5037 555.021 88.1194 553 89z"/>
<path style="fill:#557c7e; stroke:none;" d="M208 88L209 89L208 88z"/>
<path style="fill:#90d2d0; stroke:none;" d="M553 92C556.397 91.4069 559.057 90.9339 561 88C557.549 88.687 555.086 89.0737 553 92z"/>
<path style="fill:#000000; stroke:none;" d="M561 88L561 91L563 90C562.455 88.3648 562.635 88.5451 561 88z"/>
<path style="fill:#80adad; stroke:none;" d="M562 88L563 89L562 88z"/>
<path style="fill:#68999b; stroke:none;" d="M207 89L208 90L207 89z"/>
<path style="fill:#91c9c5; stroke:none;" d="M439 89C438.014 90.4786 438 90.2031 438 92C439.289 90.5574 439.401 90.7663 439 89z"/>
<path style="fill:#2b6971; stroke:none;" d="M467 89L468 90L467 89z"/>
<path style="fill:#6a9d9e; stroke:none;" d="M206 90L207 91L206 90z"/>
<path style="fill:#96baba; stroke:none;" d="M262.333 90.6667C262.278 90.7223 262.222 91.7777 262.667 91.3333C262.722 91.2778 262.778 90.2222 262.333 90.6667z"/>
<path style="fill:#312528; stroke:none;" d="M359 90L360 91L359 90z"/>
<path style="fill:#acd3d1; stroke:none;" d="M375 90C374.438 91.8005 374.176 93.1219 374 95C375.133 93.1013 375.473 92.1429 375 90z"/>
<path style="fill:#b4d5d3; stroke:none;" d="M391 90C393.308 91.7595 395.092 91.9172 398 92C395.749 90.9115 393.465 90.4813 391 90z"/>
<path style="fill:#7dbcbd; stroke:none;" d="M455.333 90.6667C455.278 90.7223 455.222 91.7777 455.667 91.3333C455.722 91.2779 455.778 90.2222 455.333 90.6667z"/>
<path style="fill:#7f989a; stroke:none;" d="M467 90L468 91L467 90z"/>
<path style="fill:#4f797b; stroke:none;" d="M525 90L526 91L525 90z"/>
<path style="fill:#288c55; stroke:none;" d="M553 90L554 91L553 90z"/>
<path style="fill:#2694a1; stroke:none;" d="M560 90L561 91L560 90z"/>
<path style="fill:#b7ccca; stroke:none;" d="M467 91C467.277 94.0482 467.526 96.12 470 98C469.287 95.4091 468.485 93.2362 467 91z"/>
<path style="fill:#86c4c4; stroke:none;" d="M373 92L373 95C373.696 93.4463 373.696 93.5537 373 92z"/>
<path style="fill:#b3cdcd; stroke:none;" d="M383 92C383.011 96.06 382.537 100.364 386 103C385.045 99.3899 384.464 95.3856 383 92z"/>
<path style="fill:#b7d0d0; stroke:none;" d="M422 105C428.609 105.958 435.59 96.8406 439 92C432.636 94.9678 427.847 101.006 422 105z"/>
<path style="fill:#65898a; stroke:none;" d="M455 92L456 93L455 92z"/>
<path style="fill:#97dcdc; stroke:none;" d="M553 92C553.635 95.0442 554.386 96.3157 557 98L556 92L553 92z"/>
<path style="fill:#00878f; stroke:none;" d="M263 93L264 94L263 93z"/>
<path style="fill:#429f9f; stroke:none;" d="M398 93L399 94L398 93z"/>
<path style="fill:#2d3a40; stroke:none;" d="M520 93L521 94L520 93z"/>
<path style="fill:#acd6d5; stroke:none;" d="M538 93C539.033 97.3378 539 101.562 539 106C540.53 102.353 541.156 95.7579 538 93z"/>
<path style="fill:#304522; stroke:none;" d="M434 94L435 95L434 94z"/>
<path style="fill:#84baba; stroke:none;" d="M456.333 94.6667C456.278 94.7223 456.222 95.7777 456.667 95.3333C456.722 95.2778 456.778 94.2222 456.333 94.6667z"/>
<path style="fill:#aed1d0; stroke:none;" d="M457 94C456.782 95.6865 456.776 96.3161 457 98C457.71 96.2405 457.71 95.7595 457 94z"/>
<path style="fill:#90d0d0; stroke:none;" d="M538 94C537.411 97.6977 537.925 101.269 538 105C539.431 101.59 539.431 97.4099 538 94z"/>
<path style="fill:#b0c0c1; stroke:none;" d="M300 95C301.769 95.7789 303.036 95.9124 305 96C303.231 95.2211 301.964 95.0876 300 95z"/>
<path style="fill:#b4cecb; stroke:none;" d="M306 95C309.222 99.4004 313.52 99.6942 314 106C317.626 99.5851 311.287 96.8051 306 95z"/>
<path style="fill:#75b1a9; stroke:none;" d="M372 95L372 99C372.71 97.2405 372.71 96.7595 372 95z"/>
<path style="fill:#aad3d1; stroke:none;" d="M373 95C373.095 99.4724 373.919 103.03 376 107C376.806 103.163 374.854 98.4104 373 95z"/>
<path style="fill:#46e8e8; stroke:none;" d="M553 95L554 96L553 95z"/>
<path style="fill:#6a9b92; stroke:none;" d="M516 96L517 97L516 96z"/>
<path style="fill:#549396; stroke:none;" d="M198 97L199 98L198 97z"/>
<path style="fill:#81baba; stroke:none;" d="M291 97C292.248 97.6848 292.548 97.7488 294 98C292.752 97.3152 292.452 97.2512 291 97z"/>
<path style="fill:#368858; stroke:none;" d="M555 97L556 98L555 97z"/>
<path style="fill:#395559; stroke:none;" d="M197 98L198 99L197 98z"/>
<path style="fill:#b7d1d0; stroke:none;" d="M267 98C268.88 100.474 270.952 100.723 274 101C271.786 99.5992 269.496 98.8191 267 98z"/>
<path style="fill:#accdcc; stroke:none;" d="M281 100C285.157 101.622 289.702 99.5787 294 99C289.843 97.378 285.298 99.4213 281 100z"/>
<path style="fill:#7fc3c3; stroke:none;" d="M457.333 98.6667C457.278 98.7223 457.222 99.7777 457.667 99.3333C457.722 99.2778 457.778 98.2222 457.333 98.6667z"/>
<path style="fill:#bbcccc; stroke:none;" d="M458 98C459.013 103.592 461.831 107.568 467 110C464.184 105.951 461.168 101.766 458 98z"/>
<path style="fill:#6d9f9f; stroke:none;" d="M537 98L538 99L537 98z"/>
<path style="fill:#95d6d7; stroke:none;" d="M178 117L182 118C185.608 110.325 193.488 106.208 198 99C192.939 101.161 190.102 105.198 185.985 108.672C182.708 111.438 179.326 112.749 178 117z"/>
<path style="fill:#648688; stroke:none;" d="M427 101L428 102L427 101z"/>
<path style="fill:#558b5e; stroke:none;" d="M458 101L459 102L458 101z"/>
<path style="fill:#8f989a; stroke:none;" d="M473 102L474 103L473 102z"/>
<path style="fill:#5e9395; stroke:none;" d="M506 102L507 103L506 102z"/>
<path style="fill:#6ca3a3; stroke:none;" d="M315.333 103.667C315.278 103.722 315.222 104.778 315.667 104.333C315.722 104.278 315.778 103.222 315.333 103.667z"/>
<path style="fill:#5d8f84; stroke:none;" d="M338 103L339 104L338 103z"/>
<path style="fill:#83aab1; stroke:none;" d="M306 104L307 105L306 104z"/>
<path style="fill:#add0d0; stroke:none;" d="M292 105L294 112C294.67 109.171 294.243 106.886 292 105z"/>
<path style="fill:#a5aead; stroke:none;" d="M333.667 105.333C333.222 105.778 334.278 105.722 334.333 105.667C334.778 105.222 333.722 105.278 333.667 105.333z"/>
<path style="fill:#adcbca; stroke:none;" d="M416 107C418.531 107.71 419.516 107.131 421 105L416 107z"/>
<path style="fill:#87c1be; stroke:none;" d="M292 106L292 110C292.71 108.24 292.71 107.76 292 106z"/>
<path style="fill:#add0cd; stroke:none;" d="M330 107C331.943 107.622 332.949 107.436 335 107C332.956 106.226 332.155 106.408 330 107z"/>
<path style="fill:#1f6068; stroke:none;" d="M417 106L418 107L417 106z"/>
<path style="fill:#83baba; stroke:none;" d="M539.333 106.667C539.278 106.722 539.222 107.778 539.667 107.333C539.722 107.278 539.778 106.222 539.333 106.667z"/>
<path style="fill:#85a2a6; stroke:none;" d="M329 107L330 108L329 107z"/>
<path style="fill:#949497; stroke:none;" d="M415 107L416 108L415 107z"/>
<path style="fill:#849e94; stroke:none;" d="M555 107L556 108L555 107z"/>
<path style="fill:#657d84; stroke:none;" d="M581 107L582 108L581 107z"/>
<path style="fill:#8ad2c8; stroke:none;" d="M582 107L587 112C587.616 107.975 585.799 107.295 582 107z"/>
<path style="fill:#afd5d4; stroke:none;" d="M189 111C191.465 111.445 193.547 110.639 196 110C193.193 108.588 191.698 109.478 189 111z"/>
<path style="fill:#b6ccca; stroke:none;" d="M317 110C321.327 111.799 325.626 110 330 109C325.919 107.54 321.268 109.651 317 110z"/>
<path style="fill:#b0cbca; stroke:none;" d="M492 108C493.506 108.683 494.315 108.826 496 109C494.494 108.317 493.685 108.174 492 108z"/>
<path style="fill:#b2d4d3; stroke:none;" d="M576 109C578.894 109.695 581.989 109.061 585 109C581.895 107.699 579.192 108.058 576 109z"/>
<path style="fill:#00dbdb; stroke:none;" d="M185 109L186 110L185 109z"/>
<path style="fill:#abc9c9; stroke:none;" d="M399 110C401.332 110.985 403.457 110.981 406 111C403.605 109.624 401.761 109.787 399 110z"/>
<path style="fill:#516b6b; stroke:none;" d="M404 109L405 110L404 109z"/>
<path style="fill:#adc1c1; stroke:none;" d="M484 109C486.332 109.985 488.457 109.981 491 110C488.668 109.015 486.543 109.019 484 109z"/>
<path style="fill:#b5cdcc; stroke:none;" d="M562 110C565.647 111.53 572.242 112.156 575 109C570.631 109.811 566.436 110 562 110z"/>
<path style="fill:#8ac3c4; stroke:none;" d="M309 110C311.332 110.985 313.457 110.981 316 111C313.668 110.015 311.543 110.019 309 110z"/>
<path style="fill:#004645; stroke:none;" d="M588 110L589 111L588 110z"/>
<path style="fill:#4a0c17; stroke:none;" d="M182 111L183 112L182 111z"/>
<path style="fill:#abd4d3; stroke:none;" d="M309 111C311.332 111.985 313.457 111.981 316 112C313.668 111.015 311.543 111.019 309 111z"/>
<path style="fill:#679ea2; stroke:none;" d="M177 115L178 116L177 115z"/>
<path style="fill:#81ffff; stroke:none;" d="M177 116L178 117L177 116z"/>
<path style="fill:#56cb73; stroke:none;" d="M179 117L180 118L179 117z"/>
<path style="fill:#6799cc; stroke:none;" d="M104.667 118.333C104.222 118.778 105.278 118.722 105.333 118.667C105.778 118.222 104.722 118.278 104.667 118.333z"/>
<path style="fill:#cccecf; stroke:none;" d="M103 119C103.476 121.858 103.916 122.605 102 125L101 124C101.476 126.858 101.916 127.605 100 130L99 129C99.4763 131.858 99.9159 132.605 98 135L97 134C96.5081 136.952 94.4548 139.271 94 142C93.4906 145.057 95.2658 145.168 93 148L92 147C92.4763 149.858 92.9159 150.605 91 153L90 152C90.4763 154.858 90.9159 155.605 89 158L88 157L89 161L85 161L84 166L86 166L84 173C90.2611 172.514 91.5289 166.257 98.0008 166.02C104.995 165.764 105.622 170.122 111.129 172.397C116.041 174.425 123.739 173 129 173C128.37 159.255 118.365 144.518 113.001 132C110.703 126.637 109.44 120.048 103 119z"/>
<path style="fill:#6eb7db; stroke:none;" d="M345.667 120.333C345.222 120.778 346.278 120.722 346.333 120.667C346.778 120.222 345.722 120.278 345.667 120.333z"/>
<path style="fill:#6699cc; stroke:none;" d="M467.667 120.333C467.222 120.778 468.278 120.722 468.333 120.667C468.778 120.222 467.722 120.278 467.667 120.333z"/>
<path style="fill:#0000ff; stroke:none;" d="M469 120L470 121L469 120z"/>
<path style="fill:#a6bbcd; stroke:none;" d="M103 121L102 125C103.146 123.36 103.393 122.924 103 121z"/>
<path style="fill:#adc0d0; stroke:none;" d="M134 121L134 171C135.875 166.531 135 160.809 135 156C135 144.718 133.379 132.01 136 121L134 121z"/>
<path style="fill:#9ab6cd; stroke:none;" d="M136 121C139.959 122.661 144.737 122 149 122C145.041 120.339 140.263 121 136 121z"/>
<path style="fill:#d0d0d0; stroke:none;" d="M135 122C135 137.871 137.68 156.542 134 172C139.584 173.65 145.263 172.801 151 172.594C156.178 172.407 160.906 173.431 166 171.775C176.326 168.42 180.672 157.104 178.481 147C177.685 143.326 175.979 140.147 174 137C170.469 136.824 168.423 135.536 166 133C161.133 133.775 155.955 133.61 151 134L151 121C145.645 121.994 140.43 122 135 122z"/>
<path style="fill:#9db7cd; stroke:none;" d="M340 123C342.698 123.484 345.268 122.457 348 122C344.96 120.823 342.887 121.613 340 123z"/>
<path style="fill:#a5bcce; stroke:none;" d="M456 126C460.341 126.723 464.8 123.21 469 122C464.481 120.436 459.868 123.743 456 126z"/>
<path style="fill:#d0d0d0; stroke:none;" d="M469 121L469 134L477 134L477 136L469 136L469 169L474 169C472.032 169.732 470.136 170.483 467.995 170.515C451.324 170.771 455 146.568 455 136C452.558 135.891 450.377 135.572 448 135C442.964 145.766 438.658 156.98 434.201 168C431.617 174.387 429.17 180.982 422 183L422 185C425.83 184.79 428.838 184.038 431.362 180.891C434.509 176.968 435.905 171.568 437.85 167C441.758 157.825 447.306 147.84 449 138L453 138L453 155C453.006 157.539 452.33 160.555 455 161C452.873 177.246 481.134 176.814 482 161C477.228 161.776 475.104 165.759 471 168L471 138C475.899 137.983 480.371 138.025 479 132C476.291 132.648 473.785 132.942 471 133L471 121L469 121z"/>
<path style="fill:#adc0d0; stroke:none;" d="M485 121L485 171C486.875 166.531 486 160.809 486 156C486 144.718 484.379 132.01 487 121L485 121z"/>
<path style="fill:#9ab6cd; stroke:none;" d="M487 121C491.217 122.769 496.459 122 501 122C496.783 120.231 491.541 121 487 121z"/>
<path style="fill:#cccfcf; stroke:none;" d="M501 121C496.147 122.435 491.036 122 486 122C486 137.871 488.68 156.542 485 172C490.437 173.607 496.358 173 502 173C502 160.388 498.508 146.205 511 139C511 150.203 512.05 161.957 510 173C513.969 173 522.139 174.553 525.397 171.972C528.716 169.343 527 159.786 527 156C527 150.72 528.388 142.908 525.682 138.144C520.498 129.018 506.904 134.161 501 139C502.278 133.631 503.169 126.17 501 121z"/>
<path style="fill:#8cafcb; stroke:none;" d="M105.333 122.667C105.278 122.722 105.222 123.778 105.667 123.333C105.722 123.278 105.778 122.222 105.333 122.667z"/>
<path style="fill:#00ffff; stroke:none;" d="M340 122L341 123L340 122z"/>
<path style="fill:#c8cccf; stroke:none;" d="M332 133L325 133C325.736 137.407 327.842 138.107 332 137C332 143.302 332.339 149.711 331.91 156C331.599 160.578 330.389 164.86 333.653 168.772C338.844 174.997 352.719 174.49 357.397 167.892C359.069 165.533 358.967 162.753 359 160L353 162C352.618 165.493 351.15 166.594 348 168L348 138C351.486 137.998 354.65 137.99 358 137C359.649 146.248 365.279 155.393 369 164C370.053 166.436 371.708 172.364 375.108 172.364C380.044 172.364 383.903 159.808 385 156L387 156C388.097 159.808 391.956 172.364 396.892 172.364C400.07 172.364 401.457 167.291 402.397 165C405.705 156.929 410.515 148.624 412 140C417.363 144.499 420.096 153.747 423.222 160C424.768 163.092 427.286 166.57 427.889 170C428.732 174.793 420.72 181.863 426 183C425.402 181.805 425.534 182.023 424 181C428.173 178.716 431.227 175.097 430.744 170C430.313 165.453 427.249 161.004 425.247 157C421.572 149.649 418.143 142.098 414 135C417.562 135 422.462 134.151 425.786 135.603C431.118 137.933 434.021 149.898 436 155L439 155C441.268 148.296 444.399 141.917 446 135L451 136C452.543 134.733 453.048 134.511 455 134C456.065 127.457 463.455 125.308 469 123C463.719 121.552 458.488 126.726 453 127L453 132C451.648 132 449.735 133 449 133C448.107 133 446.535 131.079 445 132C440.897 134.462 443.312 141.11 441 144L440 143C440.239 146.524 438.478 147.882 438 151C434.926 145.234 432.364 139.094 430 133C424.639 133.995 417.585 135.474 413 132C409.814 132.531 409.837 133.703 408 136L407 135C406.041 138.703 405.316 142.181 405 146C403.154 145.974 402.734 146.17 401 147L394 132L391 132C388.476 138.062 384.823 143.673 383 150C379.937 144.617 377.381 138.72 375 133C369.036 134.107 362.777 133.292 357 135C356.104 130.902 350.583 133 347 133C348.081 129.343 348 125.801 348 122C341.222 122.693 332.589 125.374 332 133z"/>
<path style="fill:#7da7ca; stroke:none;" d="M136 123L136 170C137.875 165.531 137 159.809 137 155L137 124L148 124L148 136C149.661 132.041 149 127.263 149 123L136 123z"/>
<path style="fill:#6ea1c5; stroke:none;" d="M338.667 123.333C338.222 123.778 339.278 123.722 339.333 123.667C339.778 123.222 338.722 123.278 338.667 123.333z"/>
<path style="fill:#7da7ca; stroke:none;" d="M343 124C344.842 127.311 344.987 130.259 345 134C346.44 130.568 346 126.7 346 123L343 124z"/>
<path style="fill:#82abcb; stroke:none;" d="M467 123C467.879 126.694 467.997 130.214 468 134C469.422 130.612 469.923 125.554 467 123z"/>
<path style="fill:#7da7ca; stroke:none;" d="M487 123L487 170C488.875 165.531 488 159.809 488 155L488 124L499 124L499 140C501.087 135.026 500 128.362 500 123L487 123z"/>
<path style="fill:#639bc9; stroke:none;" d="M104 124C99.7573 136.541 91.3238 149.791 90 163C94.6536 163 100.4 162.085 104.906 163.318C108.385 164.27 109.173 168.023 112.263 169.397C115.797 170.968 121.198 170 125 170C124.7 164.21 122.109 159.261 119.85 154C115.57 144.036 110.497 134.274 107 124L104 124M137 124L137 170C142.046 170 146.991 169.395 152 169.259C158.706 169.078 165.148 170.331 170.856 165.501C176.617 160.626 178.019 147.332 173.185 141.474C169.383 136.866 162.661 134.737 157 134C160.283 144.523 159 156.051 159 167C156.403 166.764 153.485 166.58 151.603 164.486C149.414 162.05 150.001 158.014 150 155C149.997 148.016 148.1 139.776 156 137C153.387 135.902 150.835 136.007 148 136L148 124L137 124z"/>
<path style="fill:#a5bcce; stroke:none;" d="M328 132C329.506 132.683 330.315 132.826 332 133C332.769 128.132 335.427 126.363 340 125C333.505 122.753 332.313 129.266 328 132z"/>
<path style="fill:#639bc9; stroke:none;" d="M469 170C465.608 155.755 468.01 138.599 468 124C464.219 124.674 459.454 126.026 457.14 129.39C454.468 133.276 455.946 138.636 455.996 143C456.078 150.113 453.666 164.514 461.133 168.821C463.483 170.177 466.391 169.976 469 170M488 124L488 170L499 170C499 162.55 496.405 149.065 501 143C498.995 136.575 499 130.688 499 124L488 124M346 170C342.675 156.032 345.039 139.308 345 125C341.683 125.291 337.193 125.738 335.013 128.649C332.914 131.452 333.617 135.782 333.845 139C334.382 146.6 330.935 161.476 336.819 167.4C339 169.597 343.111 169.633 346 170z"/>
<path style="fill:#00ffff; stroke:none;" d="M456 125L457 126L456 125z"/>
<path style="fill:#a7bcce; stroke:none;" d="M101 126L100 130C101.146 128.36 101.393 127.924 101 126z"/>
<path style="fill:#75a3ca; stroke:none;" d="M454.667 126.333C454.222 126.778 455.278 126.722 455.333 126.667C455.778 126.222 454.722 126.278 454.667 126.333z"/>
<path style="fill:#9cb7cd; stroke:none;" d="M454.667 127.333C454.222 127.778 455.278 127.722 455.333 127.667C455.778 127.222 454.722 127.278 454.667 127.333z"/>
<path style="fill:#7ca7ca; stroke:none;" d="M333 129L333 134C333.83 131.969 333.83 131.03 333 129z"/>
<path style="fill:#7da7ca; stroke:none;" d="M455 129L455 134C455.924 132.352 456.449 130.825 457 129L455 129z"/>
<path style="fill:#abbece; stroke:none;" d="M99 131L98 135C99.1456 133.36 99.393 132.924 99 131z"/>
<path style="fill:#5da3d1; stroke:none;" d="M390 131L390 133C391.635 132.455 391.455 132.635 392 131L390 131z"/>
<path style="fill:#649cc8; stroke:none;" d="M153 132C154.248 132.685 154.548 132.749 156 133C154.752 132.315 154.452 132.251 153 132z"/>
<path style="fill:#a5bcce; stroke:none;" d="M156 132C157.769 132.779 159.036 132.912 161 133C159.231 132.221 157.964 132.088 156 132z"/>
<path style="fill:#6e92db; stroke:none;" d="M161.667 132.333C161.222 132.778 162.278 132.722 162.333 132.667C162.778 132.222 161.722 132.278 161.667 132.333z"/>
<path style="fill:#6799cc; stroke:none;" d="M197 132C198.248 132.685 198.548 132.749 200 133C198.752 132.315 198.452 132.251 197 132z"/>
<path style="fill:#a5bcce; stroke:none;" d="M200 132C203.664 133.646 208.043 134.184 212 135C208.481 132.12 204.429 132.037 200 132z"/>
<path style="fill:#55aaaa; stroke:none;" d="M207 132L208 133L207 132z"/>
<path style="fill:#7ba9cc; stroke:none;" d="M251.667 132.333C251.222 132.778 252.278 132.722 252.333 132.667C252.778 132.222 251.722 132.278 251.667 132.333z"/>
<path style="fill:#cccfcf; stroke:none;" d="M246 138L245 133C239.718 134.258 234.4 134 229 134C229 146.205 230.834 160.097 228 172C233.437 173.607 239.358 173 245 173C245 164.427 242.639 146.913 252.101 142.047C255.261 140.422 257.605 142.435 259.204 145.059C262.429 150.351 264.476 156.455 267.247 162C268.738 164.984 271.346 168.601 271.6 171.999C271.946 176.626 266.216 180.438 265 185C273.654 184.719 276.427 178.267 279.397 171C282.531 163.331 285.612 155.625 288.85 148C291.095 142.715 293.577 137.748 292 132C289.623 133.38 287.985 135.112 286 137C286.409 139.452 286.819 139.726 285 142L284 141L284 147L282 146L281 150C277.869 144.615 275.391 138.75 273 133C267.321 134.054 261.757 134 256 134L257 132C252.447 132.62 249.394 135.006 246 138z"/>
<path style="fill:#a5bbcd; stroke:none;" d="M286 137L291 133C287.934 132.316 287.119 134.347 286 137z"/>
<path style="fill:#6799cc; stroke:none;" d="M304 132C305.248 132.685 305.548 132.749 307 133C305.752 132.315 305.452 132.251 304 132z"/>
<path style="fill:#a5bcce; stroke:none;" d="M307 132C309.052 132.874 310.747 132.953 313 133C310.948 132.126 309.253 132.047 307 132z"/>
<path style="fill:#8080c0; stroke:none;" d="M313.667 132.333C313.222 132.778 314.278 132.722 314.333 132.667C314.778 132.222 313.722 132.278 313.667 132.333z"/>
<path style="fill:#70a4cb; stroke:none;" d="M326.667 132.333C326.222 132.778 327.278 132.722 327.333 132.667C327.778 132.222 326.722 132.278 326.667 132.333z"/>
<path style="fill:#a5bcce; stroke:none;" d="M347 132C349.613 133.098 352.165 132.993 355 133C352.387 131.902 349.836 132.007 347 132z"/>
<path style="fill:#99b4cc; stroke:none;" d="M409 132L408 136C409.274 134.659 410.041 133.597 411 132L409 132z"/>
<path style="fill:#77a5c9; stroke:none;" d="M448.667 132.333C448.222 132.778 449.278 132.722 449.333 132.667C449.778 132.222 448.722 132.278 448.667 132.333z"/>
<path style="fill:#a5bcce; stroke:none;" d="M471 132C473.331 132.984 475.457 132.981 478 133C475.668 132.015 473.543 132.019 471 132z"/>
<path style="fill:#a6bbcd; stroke:none;" d="M508 133C512.367 134.347 518.282 134.306 523 135C518.573 131.706 513.179 131.47 508 133z"/>
<path style="fill:#9ab5cd; stroke:none;" d="M151 133C152.769 133.779 154.036 133.912 156 134C154.231 133.221 152.964 133.088 151 133z"/>
<path style="fill:#96b3cc; stroke:none;" d="M161 133C162.506 133.683 163.315 133.826 165 134C163.494 133.317 162.685 133.174 161 133z"/>
<path style="fill:#b0c1cd; stroke:none;" d="M166 133C167.575 135.468 169.427 136.589 172 138C170.465 135.279 168.852 134.283 166 133z"/>
<path style="fill:#00ffff; stroke:none;" d="M193 133L194 134L193 133z"/>
<path style="fill:#a0b9cc; stroke:none;" d="M193 134C195.34 134.566 197.571 134.176 200 134C197.413 132.935 195.679 133.218 193 134z"/>
<path style="fill:#d0d0d0; stroke:none;" d="M182 145C183.465 152.889 180.607 161.509 187.213 167.61C196.17 175.881 218.359 175.722 220 161C215.34 162.216 212.37 165.617 208 167.258C205.194 168.313 201.942 167.998 199 168C200.259 163.739 200 159.423 200 155L222 155C222 150.611 222.84 144.68 221 141C219.624 138.247 216.672 135.485 214 134C212.571 133.206 211.833 135 211 135C209.935 135 207.096 133.274 206 133C201.348 131.837 194.658 134.171 191 136C186.33 138.335 185.881 142.398 183 146L182 145z"/>
<path style="fill:#9ab6cd; stroke:none;" d="M228 133C232.724 134.982 238.91 134 244 134C239.276 132.018 233.09 133 228 133z"/>
<path style="fill:#a6bbce; stroke:none;" d="M246 138C248.323 136.523 250.487 135.106 253 134C249.38 132.862 247.584 134.855 246 138z"/>
<path style="fill:#9ab6cd; stroke:none;" d="M256 133C260.471 134.876 266.183 134 271 134C266.529 132.124 260.817 133 256 133z"/>
<path style="fill:#9bb6cd; stroke:none;" d="M294 145C297.3 139.288 299.894 134.791 307 134C299.486 130.944 294.37 138.236 294 145z"/>
<path style="fill:#cbccd0; stroke:none;" d="M313 165C309.113 168.969 302.946 169.043 300 164L295 164C294.116 171.941 301.402 173.067 308 172.981C317.803 172.855 326.035 167.744 324.89 157C324.599 154.264 323.517 152.113 321.772 150.004C318.072 145.533 313.141 142.056 309 138C313.88 138.526 318.019 140.853 323 141C321.825 125.602 286.054 133.924 296.013 151C297.765 154.004 300.448 156.514 303.001 158.83C306.067 161.612 308.918 164.337 313 165z"/>
<path style="fill:#9bb4ce; stroke:none;" d="M313 133C314.969 134.063 316.798 134.532 319 135C316.943 133.418 315.612 133.174 313 133z"/>
<path style="fill:#99b6cd; stroke:none;" d="M326.667 133.333C326.222 133.778 327.278 133.722 327.333 133.667C327.778 133.222 326.722 133.278 326.667 133.333z"/>
<path style="fill:#9ab6cd; stroke:none;" d="M357 135C362.282 133.742 367.6 134 373 134C369.011 132.326 360.01 131.556 357 135z"/>
<path style="fill:#9fb8cd; stroke:none;" d="M389 133C386.64 138.669 383.086 143.905 382 150C385.967 145.212 388.614 138.73 391 133L389 133z"/>
<path style="fill:#9ab6cd; stroke:none;" d="M413 133C417.471 134.876 423.183 134 428 134C423.529 132.124 417.817 133 413 133z"/>
<path style="fill:#71a1c8; stroke:none;" d="M506.667 133.333C506.222 133.778 507.278 133.722 507.333 133.667C507.778 133.222 506.722 133.278 506.667 133.333z"/>
<path style="fill:#6ea1c5; stroke:none;" d="M191.667 134.333C191.222 134.778 192.278 134.722 192.333 134.667C192.778 134.222 191.722 134.278 191.667 134.333z"/>
<path style="fill:#639bc9; stroke:none;" d="M197 169C197 164.905 195.663 157.861 198.028 154.318C201.115 149.692 214.081 152 219 152C218.997 148.344 219.365 144.396 217.121 141.26C211.106 132.854 195.155 132.821 188.394 140.214C180.377 148.981 185.351 166.888 197 169z"/>
<path style="fill:#adc0d0; stroke:none;" d="M228 134L228 171C231.004 163.841 229 152.744 229 145C229 141.298 229.441 137.435 228 134z"/>
<path style="fill:#83abcb; stroke:none;" d="M303 135C306.89 137.093 311.669 136.011 316 136C311.718 133.728 307.643 134.637 303 135z"/>
<path style="fill:#7aa7ca; stroke:none;" d="M328 135C329.769 135.779 331.036 135.912 333 136L333 134C331.122 134.176 329.801 134.438 328 135z"/>
<path style="fill:#83abcb; stroke:none;" d="M346 134L346 136L355 136L355 134L346 134z"/>
<path style="fill:#7ca7ca; stroke:none;" d="M451 134L451 136L455 136L455 134L451 134z"/>
<path style="fill:#83abcb; stroke:none;" d="M469 134L469 136L477 136L477 134L469 134z"/>
<path style="fill:#a3bbcd; stroke:none;" d="M501 139L508 135C504.452 134.066 502.602 135.945 501 139z"/>
<path style="fill:#7ca7ca; stroke:none;" d="M512 134C513.506 134.683 514.315 134.826 516 135C514.494 134.317 513.685 134.174 512 134z"/>
<path style="fill:#83aacb; stroke:none;" d="M152 135C153.769 135.779 155.036 135.912 157 136C155.231 135.221 153.964 135.088 152 135z"/>
<path style="fill:#b3c2cf; stroke:none;" d="M183 146C186.273 142.11 188.332 138.443 193 136C187.064 134.446 183.892 141.078 183 146z"/>
<path style="fill:#81a9ca; stroke:none;" d="M196 135C197.769 135.779 199.036 135.912 201 136C199.231 135.221 197.964 135.088 196 135z"/>
<path style="fill:#80a8ca; stroke:none;" d="M205 135C206.506 135.683 207.315 135.826 209 136C207.494 135.317 206.685 135.174 205 135z"/>
<path style="fill:#7da7ca; stroke:none;" d="M230 135L230 170C231.552 166.301 231 161.983 231 158L231 136L242 136L242 144C243.213 141.11 242.998 138.126 243 135L230 135z"/>
<path style="fill:#639bc9; stroke:none;" d="M251 135C252.446 137.283 253.311 137.582 256 138C254.554 135.717 253.689 135.418 251 135z"/>
<path style="fill:#7ca7ca; stroke:none;" d="M255 135C259.122 137.871 265.943 135.796 271 137C267.8 133.337 259.601 135 255 135z"/>
<path style="fill:#8eb0cc; stroke:none;" d="M289 135L286 146C288.604 142.773 289.723 138.916 291 135L289 135z"/>
<path style="fill:#7ca7ca; stroke:none;" d="M360 138C364.306 135.606 368.308 135.883 373 137C370.985 133.502 360.947 133.579 360 138M391 135C391.684 136.58 391.805 136.777 393 138C392.316 136.42 392.195 136.223 391 135z"/>
<path style="fill:#8eb0cb; stroke:none;" d="M410 135C407.928 141.126 405.848 148.572 401 153C402.139 154.015 402.612 154.309 404 155L412 135L410 135z"/>
<path style="fill:#7ca7ca; stroke:none;" d="M414 135L415 138C419.306 135.606 423.308 135.883 428 137C425.029 133.6 418.257 135 414 135z"/>
<path style="fill:#8eb0cc; stroke:none;" d="M446 135C444.591 139.322 442.772 143.517 442 148C445.004 144.282 446.476 139.504 448 135L446 135z"/>
<path style="fill:#639bc9; stroke:none;" d="M507 136C508.668 136.98 510.876 137.745 511.977 139.431C513.66 142.008 513 146.079 513 149L513 170L524 170L524 149C524 145.948 524.588 142.017 522.987 139.264C519.789 133.765 512.132 134.778 507 136z"/>
<path style="fill:#000000; stroke:none;" d="M159 167C159 157.21 160.781 145.408 158 136C148.278 138.345 150 145.585 150 154C150 157.049 149.147 161.851 151.028 164.486C152.778 166.939 156.323 166.876 159 167z"/>
<path style="fill:#8cafcb; stroke:none;" d="M165.667 136.333C165.222 136.778 166.278 136.722 166.333 136.667C166.778 136.222 165.722 136.278 165.667 136.333z"/>
<path style="fill:#000000; stroke:none;" d="M200 149L207 149L207 137C198.558 135.691 200 142.549 200 149z"/>
<path style="fill:#639bc9; stroke:none;" d="M231 136L231 170L242 170L243.302 147L242 136L231 136z"/>
<path style="fill:#95b3cc; stroke:none;" d="M250 136C248.651 137.768 247.878 138.982 247 141C248.922 139.774 250.412 138.627 252 137L250 136z"/>
<path style="fill:#639bc9; stroke:none;" d="M259 136C263.824 147.586 270.182 158.428 275 170C282.581 161.686 279.941 155.249 275.86 146C274.555 143.04 273.498 139.025 270.61 137.179C267.482 135.18 262.543 136 259 136M315 168C321.155 166.717 323.864 159.766 320.972 154.001C317.31 146.698 308.359 144.426 306 136C304.68 136.1 303.215 136.014 301.975 136.603C288.625 142.947 305.562 157.027 310.941 161.918C313.055 163.84 314.183 165.319 315 168z"/>
<path style="fill:#8cafcb; stroke:none;" d="M316 136C317.663 137.503 318.896 138.199 321 139C319.283 137.16 318.434 136.651 316 136z"/>
<path style="fill:#7ca7ca; stroke:none;" d="M333 136L333 163C335.541 156.945 335.541 142.055 333 136z"/>
<path style="fill:#7da7ca; stroke:none;" d="M345 136L345 169C347.701 162.564 346 152.951 346 146C346 142.581 346.328 139.166 345 136z"/>
<path style="fill:#639bc9; stroke:none;" d="M361 136C364.081 146.802 369.02 158.512 375 168L377 168C378.548 164.282 381.574 160.131 381.574 156C381.574 152.267 379.036 148.34 377.576 145C376.284 142.047 374.95 138.168 371.787 136.742C368.662 135.333 364.347 136 361 136M416 136C419.434 147.921 427.237 158.56 432 170C440.085 162.36 436.612 154.708 432.694 146C431.435 143.199 430.267 138.955 427.582 137.179C424.517 135.153 419.497 136 416 136z"/>
<path style="fill:#7da7ca; stroke:none;" d="M455 136L455 160C457.349 154.403 457.349 141.597 455 136z"/>
<path style="fill:#82abcb; stroke:none;" d="M468 136L468 169C470.701 162.564 469 152.951 469 146C469 142.581 469.328 139.166 468 136z"/>
<path style="fill:#8cafcb; stroke:none;" d="M519.667 136.333C519.222 136.778 520.278 136.722 520.333 136.667C520.778 136.222 519.722 136.278 519.667 136.333M167.667 137.333C167.222 137.778 168.278 137.722 168.333 137.667C168.778 137.222 167.722 137.278 167.667 137.333z"/>
<path style="fill:#80c0c0; stroke:none;" d="M199 137L199 149C200.512 145.396 200.512 140.604 199 137z"/>
<path style="fill:#8dafcb; stroke:none;" d="M259.333 137.667C259.278 137.722 259.222 138.778 259.667 138.333C259.722 138.278 259.778 137.222 259.333 137.667z"/>
<path style="fill:#9db6cd; stroke:none;" d="M331 137L331 160C333.284 154.557 333.284 142.443 331 137z"/>
<path style="fill:#639bc9; stroke:none;" d="M390 137C388.636 140.277 385.728 144.205 385.668 147.816C385.622 150.597 388.356 152.856 389.688 155.093C392.118 159.175 394.177 163.621 396 168C400.513 165.07 401.637 158.999 403 154C398.231 148.769 397.017 139.658 390 137z"/>
<path style="fill:#a2b9cd; stroke:none;" d="M505.667 137.333C505.222 137.778 506.278 137.722 506.333 137.667C506.778 137.222 505.722 137.278 505.667 137.333z"/>
<path style="fill:#8dafcb; stroke:none;" d="M213.667 138.333C213.222 138.778 214.278 138.722 214.333 138.667C214.778 138.222 213.722 138.278 213.667 138.333z"/>
<path style="fill:#7fa9ca; stroke:none;" d="M252 138C253.506 138.683 254.315 138.826 256 139C254.494 138.317 253.685 138.174 252 138z"/>
<path style="fill:#a1bacd; stroke:none;" d="M286 138L285 142C286.146 140.36 286.393 139.924 286 138z"/>
<path style="fill:#8dafcc; stroke:none;" d="M361.333 138.667C361.278 138.722 361.222 139.778 361.667 139.333C361.722 139.278 361.778 138.222 361.333 138.667z"/>
<path style="fill:#8dafcb; stroke:none;" d="M416.333 138.667C416.278 138.722 416.222 139.778 416.667 139.333C416.722 139.278 416.778 138.222 416.333 138.667z"/>
<path style="fill:#7ca7ca; stroke:none;" d="M512 138L512 171L524 171C520.568 169.56 516.7 170 513 170L513 150C513 146.017 513.552 141.699 512 138z"/>
<path style="fill:#8dafcb; stroke:none;" d="M170.667 139.333C170.222 139.778 171.278 139.722 171.333 139.667C171.778 139.222 170.722 139.278 170.667 139.333M260.333 139.667C260.278 139.722 260.222 140.778 260.667 140.333C260.722 140.278 260.778 139.222 260.333 139.667z"/>
<path style="fill:#93b2cc; stroke:none;" d="M510 139L510 171C512.599 164.806 511 155.686 511 149C511 145.581 511.328 142.166 510 139z"/>
<path style="fill:#8db0cc; stroke:none;" d="M362.333 140.667C362.278 140.722 362.222 141.778 362.667 141.333C362.722 141.278 362.778 140.222 362.333 140.667M417.333 140.667C417.278 140.722 417.222 141.778 417.667 141.333C417.722 141.278 417.778 140.222 417.333 140.667z"/>
<path style="fill:#a4bbcd; stroke:none;" d="M442 140L441 144C442.146 142.36 442.393 141.924 442 140z"/>
<path style="fill:#7ea8ca; stroke:none;" d="M500 140L501 142C502.635 141.455 502.455 141.635 503 140L500 140z"/>
<path style="fill:#8dafcb; stroke:none;" d="M261.333 141.667C261.278 141.722 261.222 142.778 261.667 142.333C261.722 142.278 261.778 141.222 261.333 141.667z"/>
<path style="fill:#7da7ca; stroke:none;" d="M296 142L296 146C296.71 144.241 296.71 143.759 296 142z"/>
<path style="fill:#8dafcb; stroke:none;" d="M363.333 142.667C363.278 142.722 363.222 143.778 363.667 143.333C363.722 143.278 363.778 142.222 363.333 142.667z"/>
<path style="fill:#a4bacd; stroke:none;" d="M405 142L404 146C405.146 144.36 405.393 143.924 405 142z"/>
<path style="fill:#8db0cc; stroke:none;" d="M418.333 142.667C418.278 142.722 418.222 143.778 418.667 143.333C418.722 143.278 418.778 142.222 418.333 142.667z"/>
<path style="fill:#80a9ca; stroke:none;" d="M524 142L524 170C526.604 163.794 526.604 148.206 524 142z"/>
<path style="fill:#7ca8ca; stroke:none;" d="M245 143C243.843 144.817 243.855 144.835 244 147C245.146 145.359 245.393 144.924 245 143z"/>
<path style="fill:#8dafcb; stroke:none;" d="M262.333 143.667C262.278 143.722 262.222 144.778 262.667 144.333C262.722 144.278 262.778 143.222 262.333 143.667z"/>
<path style="fill:#a1bacd; stroke:none;" d="M284 143L283 147C284.146 145.36 284.393 144.924 284 143z"/>
<path style="fill:#7ca7ca; stroke:none;" d="M499 143L499 170L488 170C491.697 171.552 496.017 171 500 171C500 162.712 502.21 150.649 499 143z"/>
<path style="fill:#a1bacd; stroke:none;" d="M94 144L93 148C94.1456 146.36 94.393 145.924 94 144z"/>
<path style="fill:#8dafcb; stroke:none;" d="M419.333 144.667C419.278 144.722 419.222 145.778 419.667 145.333C419.722 145.278 419.778 144.222 419.333 144.667M263.333 145.667C263.278 145.722 263.222 146.778 263.667 146.333C263.722 146.278 263.778 145.222 263.333 145.667z"/>
<path style="fill:#a1bacd; stroke:none;" d="M440 145L439 149C440.146 147.36 440.393 146.924 440 145z"/>
<path style="fill:#000000; stroke:none;" d="M98 146C96.8498 150.854 94.7995 155.36 93 160C96.9602 161.171 100.887 161 105 161C103.022 155.902 101.058 150.546 98 146z"/>
<path style="fill:#83abcb; stroke:none;" d="M219 146L219 152L198 152C204.202 154.603 213.298 153 220 153C219.981 150.457 219.985 148.332 219 146z"/>
<path style="fill:#8fb0cc; stroke:none;" d="M285 146C283.556 149.713 282.531 152.96 279 155L281 159C283.347 155.466 286.17 150.218 285 146z"/>
<path style="fill:#8dafcb; stroke:none;" d="M297.333 146.667C297.278 146.722 297.222 147.778 297.667 147.333C297.722 147.278 297.778 146.222 297.333 146.667M312.667 146.333C312.222 146.778 313.278 146.722 313.333 146.667C313.778 146.222 312.722 146.278 312.667 146.333M420.333 146.667C420.278 146.722 420.222 147.778 420.667 147.333C420.722 147.278 420.778 146.222 420.333 146.667z"/>
<path style="fill:#8eafcb; stroke:none;" d="M182 147L182 157C183.346 153.793 183.346 150.207 182 147z"/>
<path style="fill:#7ca7ca; stroke:none;" d="M184 147L184 158C185.431 154.59 185.431 150.41 184 147z"/>
<path style="fill:#7fa9ca; stroke:none;" d="M243 147L243 152C243.83 149.969 243.83 149.03 243 147z"/>
<path style="fill:#8dafcb; stroke:none;" d="M264.333 147.667C264.278 147.722 264.222 148.778 264.667 148.333C264.722 148.278 264.778 147.222 264.333 147.667z"/>
<path style="fill:#8db0cb; stroke:none;" d="M365.333 147.667C365.278 147.722 365.222 148.778 365.667 148.333C365.722 148.278 365.778 147.222 365.333 147.667z"/>
<path style="fill:#ffffff; stroke:none;" d="M97 148L98 149L97 148z"/>
<path style="fill:#00ffff; stroke:none;" d="M99 148L100 149L99 148z"/>
<path style="fill:#8dafcb; stroke:none;" d="M298.333 148.667C298.278 148.722 298.222 149.778 298.667 149.333C298.722 149.278 298.778 148.222 298.333 148.667M421.333 148.667C421.278 148.722 421.222 149.778 421.667 149.333C421.722 149.278 421.778 148.222 421.333 148.667z"/>
<path style="fill:#8fb0cb; stroke:none;" d="M441 148L440 153C441.318 151.074 441.651 150.234 441 148z"/>
<path style="fill:#a4bbcd; stroke:none;" d="M92 149L91 153C92.1456 151.36 92.393 150.924 92 149z"/>
<path style="fill:#55aaff; stroke:none;" d="M96.3333 149.667C96.2778 149.722 96.2222 150.778 96.6667 150.333C96.7222 150.278 96.7778 149.222 96.3333 149.667z"/>
<path style="fill:#80a9cb; stroke:none;" d="M176 149L176 155C176.951 152.715 176.951 151.285 176 149z"/>
<path style="fill:#8db0cc; stroke:none;" d="M366.333 149.667C366.278 149.722 366.222 150.778 366.667 150.333C366.722 150.278 366.778 149.222 366.333 149.667z"/>
<path style="fill:#8fafcb; stroke:none;" d="M384 149C383.045 150.767 382.434 151.607 381 153L382 156L387 151C385.861 149.985 385.388 149.691 384 149z"/>
<path style="fill:#8dafcb; stroke:none;" d="M422.333 150.667C422.278 150.722 422.222 151.778 422.667 151.333C422.722 151.278 422.778 150.222 422.333 150.667z"/>
<path style="fill:#0000ff; stroke:none;" d="M96 151L97 152L96 151z"/>
<path style="fill:#7ca7ca; stroke:none;" d="M242 152L242 170L231 170C234.697 171.552 239.017 171 243 171C243 165.099 244.295 157.469 242 152z"/>
<path style="fill:#8db0cb; stroke:none;" d="M266.333 152.667C266.278 152.722 266.222 153.778 266.667 153.333C266.722 153.278 266.778 152.222 266.333 152.667z"/>
<path style="fill:#8db0cc; stroke:none;" d="M388.333 152.667C388.278 152.722 388.222 153.778 388.667 153.333C388.722 153.278 388.778 152.222 388.333 152.667z"/>
<path style="fill:#8db0cb; stroke:none;" d="M423.333 152.667C423.278 152.722 423.222 153.778 423.667 153.333C423.722 153.278 423.778 152.222 423.333 152.667z"/>
<path style="fill:#7ca7ca; stroke:none;" d="M197 153C197 158.717 197.331 164.408 196 170C200.93 170.623 205.07 170.623 210 170C206.303 168.448 201.983 169 198 169C198 163.91 198.982 157.724 197 153M439 153C437.777 154.195 437.58 154.316 436 155C436.973 156.27 437.73 157.027 439 158C439.436 155.949 439.622 154.943 439 153z"/>
<path style="fill:#a6bbcd; stroke:none;" d="M90 154L89 158C90.1456 156.36 90.393 155.924 90 154z"/>
<path style="fill:#8db0cb; stroke:none;" d="M267.333 154.667C267.278 154.722 267.222 155.778 267.667 155.333C267.722 155.278 267.778 154.222 267.333 154.667z"/>
<path style="fill:#8dafcc; stroke:none;" d="M368.333 154.667C368.278 154.722 368.222 155.778 368.667 155.333C368.722 155.278 368.778 154.222 368.333 154.667z"/>
<path style="fill:#8db0cc; stroke:none;" d="M389.333 154.667C389.278 154.722 389.222 155.778 389.667 155.333C389.722 155.278 389.778 154.222 389.333 154.667z"/>
<path style="fill:#8db0cb; stroke:none;" d="M424.333 154.667C424.278 154.722 424.222 155.778 424.667 155.333C424.722 155.278 424.778 154.222 424.333 154.667z"/>
<path style="fill:#7ca7ca; stroke:none;" d="M175 155L175 159C175.71 157.241 175.71 156.759 175 155z"/>
<path style="fill:#91b1cc; stroke:none;" d="M402.333 155.667C402.278 155.722 402.222 156.778 402.667 156.333C402.722 156.278 402.778 155.222 402.333 155.667z"/>
<path style="fill:#00ffff; stroke:none;" d="M94 156L95 157L94 156z"/>
<path style="fill:#8dafcb; stroke:none;" d="M268.333 156.667C268.278 156.722 268.222 157.778 268.667 157.333C268.722 157.278 268.778 156.222 268.333 156.667z"/>
<path style="fill:#7fa8ca; stroke:none;" d="M322 156L322 162C322.951 159.715 322.951 158.285 322 156z"/>
<path style="fill:#8db0cb; stroke:none;" d="M369.333 156.667C369.278 156.722 369.222 157.778 369.667 157.333C369.722 157.278 369.778 156.222 369.333 156.667z"/>
<path style="fill:#8db0cc; stroke:none;" d="M390.333 156.667C390.278 156.722 390.222 157.778 390.667 157.333C390.722 157.278 390.778 156.222 390.333 156.667z"/>
<path style="fill:#8db0cb; stroke:none;" d="M425.333 156.667C425.278 156.722 425.222 157.778 425.667 157.333C425.722 157.278 425.778 156.222 425.333 156.667z"/>
<path style="fill:#00ffff; stroke:none;" d="M103 157L104 158L103 157z"/>
<path style="fill:#8dafcb; stroke:none;" d="M185.333 158.667C185.278 158.722 185.222 159.778 185.667 159.333C185.722 159.278 185.778 158.222 185.333 158.667z"/>
<path style="fill:#8db0cc; stroke:none;" d="M269.333 158.667C269.278 158.722 269.222 159.778 269.667 159.333C269.722 159.278 269.778 158.222 269.333 158.667z"/>
<path style="fill:#8dafcb; stroke:none;" d="M370.333 158.667C370.278 158.722 370.222 159.778 370.667 159.333C370.722 159.278 370.778 158.222 370.333 158.667z"/>
<path style="fill:#8db0cc; stroke:none;" d="M391.333 158.667C391.278 158.722 391.222 159.778 391.667 159.333C391.722 159.278 391.778 158.222 391.333 158.667z"/>
<path style="fill:#8db0cb; stroke:none;" d="M426.333 158.667C426.278 158.722 426.222 159.778 426.667 159.333C426.722 159.278 426.778 158.222 426.333 158.667z"/>
<path style="fill:#8aaecc; stroke:none;" d="M88 159L84 160L84 164C84.6848 162.752 84.7488 162.452 85 161C86.9442 160.859 88.8401 161.035 88 159z"/>
<path style="fill:#90b1cb; stroke:none;" d="M174.333 159.667C174.278 159.722 174.222 160.778 174.667 160.333C174.722 160.278 174.778 159.222 174.333 159.667z"/>
<path style="fill:#8dafcb; stroke:none;" d="M186.333 160.667C186.278 160.722 186.222 161.778 186.667 161.333C186.722 161.278 186.778 160.222 186.333 160.667z"/>
<path style="fill:#8db0cc; stroke:none;" d="M270.333 160.667C270.278 160.722 270.222 161.778 270.667 161.333C270.722 161.278 270.778 160.222 270.333 160.667z"/>
<path style="fill:#9ab6cd; stroke:none;" d="M354 163C355.457 161.897 355.897 161.457 357 160C354.876 160.899 354.899 160.876 354 163z"/>
<path style="fill:#8db0cc; stroke:none;" d="M392.333 160.667C392.278 160.722 392.222 161.778 392.667 161.333C392.722 161.278 392.778 160.222 392.333 160.667z"/>
<path style="fill:#92b1cc; stroke:none;" d="M400.333 160.667C400.278 160.722 400.222 161.778 400.667 161.333C400.722 161.278 400.778 160.222 400.333 160.667z"/>
<path style="fill:#8db0cb; stroke:none;" d="M427.333 160.667C427.278 160.722 427.222 161.778 427.667 161.333C427.722 161.278 427.778 160.222 427.333 160.667z"/>
<path style="fill:#7ca7ca; stroke:none;" d="M456 160L456 164C456.71 162.241 456.71 161.759 456 160z"/>
<path style="fill:#b7c4cf; stroke:none;" d="M471 167C475.181 167.576 477.472 162.816 481 161C476.646 159.592 474.067 164.417 471 167z"/>
<path style="fill:#b2c1cf; stroke:none;" d="M209 167L218 162C213.844 160.701 211.314 163.822 209 167z"/>
<path style="fill:#91b1cc; stroke:none;" d="M279.333 161.667C279.278 161.722 279.222 162.778 279.667 162.333C279.722 162.278 279.778 161.222 279.333 161.667z"/>
<path style="fill:#9cb7cc; stroke:none;" d="M454 161L454 164C454.696 162.446 454.696 162.554 454 161z"/>
<path style="fill:#7ea8cb; stroke:none;" d="M86 162L88 167C93.8513 162.775 101.09 164 108 164C102 161.482 92.598 162.521 86 162z"/>
<path style="fill:#8dafcc; stroke:none;" d="M187.333 162.667C187.278 162.722 187.222 163.778 187.667 163.333C187.722 163.278 187.778 162.222 187.333 162.667z"/>
<path style="fill:#8dafcb; stroke:none;" d="M271.333 162.667C271.278 162.722 271.222 163.778 271.667 163.333C271.722 163.278 271.778 162.222 271.333 162.667z"/>
<path style="fill:#91b1cc; stroke:none;" d="M321.333 162.667C321.278 162.722 321.222 163.778 321.667 163.333C321.722 163.278 321.778 162.222 321.333 162.667z"/>
<path style="fill:#8db0cc; stroke:none;" d="M393.333 162.667C393.278 162.722 393.222 163.778 393.667 163.333C393.722 163.278 393.778 162.222 393.333 162.667z"/>
<path style="fill:#8db0cb; stroke:none;" d="M428.333 162.667C428.278 162.722 428.222 163.778 428.667 163.333C428.722 163.278 428.778 162.222 428.333 162.667z"/>
<path style="fill:#91b1cc; stroke:none;" d="M216 163L212 168C214.517 166.753 216.083 165.895 216 163z"/>
<path style="fill:#abbfce; stroke:none;" d="M294 163L294 167C294.685 165.752 294.749 165.452 295 164L298 165C296.686 163.382 296.123 163.307 294 163z"/>
<path style="fill:#8dafcb; stroke:none;" d="M334.333 163.667C334.278 163.722 334.222 164.778 334.667 164.333C334.722 164.278 334.778 163.222 334.333 163.667z"/>
<path style="fill:#92b2cc; stroke:none;" d="M356 163C355.014 164.479 355 164.203 355 166C356.289 164.557 356.401 164.766 356 163z"/>
<path style="fill:#8dafcb; stroke:none;" d="M372.333 163.667C372.278 163.722 372.222 164.778 372.667 164.333C372.722 164.278 372.778 163.222 372.333 163.667z"/>
<path style="fill:#91b1cc; stroke:none;" d="M435.333 163.667C435.278 163.722 435.222 164.778 435.667 164.333C435.722 164.278 435.778 163.222 435.333 163.667z"/>
<path style="fill:#95b3cc; stroke:none;" d="M478 163L477 167C478.434 165.607 479.045 164.767 480 163L478 163z"/>
<path style="fill:#8dafcb; stroke:none;" d="M272.333 164.667C272.278 164.722 272.222 165.778 272.667 165.333C272.722 165.278 272.778 164.222 272.333 164.667z"/>
<path style="fill:#7ca7ca; stroke:none;" d="M314 164C312.453 169.098 308.783 168.983 304 169L304 171C308.554 170.962 312.622 170.23 317 169L314 164z"/>
<path style="fill:#96b3cd; stroke:none;" d="M348 167C350.961 167.623 352.127 166.267 354 164C351.778 164.81 350.01 165.739 348 167z"/>
<path style="fill:#8db0cc; stroke:none;" d="M394.333 164.667C394.278 164.722 394.222 165.778 394.667 165.333C394.722 165.278 394.778 164.222 394.333 164.667z"/>
<path style="fill:#8db0cb; stroke:none;" d="M429.333 164.667C429.278 164.722 429.222 165.778 429.667 165.333C429.722 165.278 429.778 164.222 429.333 164.667z"/>
<path style="fill:#8db0cc; stroke:none;" d="M457.333 164.667C457.278 164.722 457.222 165.778 457.667 165.333C457.722 165.278 457.778 164.222 457.333 164.667z"/>
<path style="fill:#a5bcce; stroke:none;" d="M300 165C302.908 169.116 310.233 169.269 313 165C308.124 167.063 304.921 166.793 300 165z"/>
<path style="fill:#8db0cb; stroke:none;" d="M335.333 165.667C335.278 165.722 335.222 166.778 335.667 166.333C335.722 166.278 335.778 165.222 335.333 165.667z"/>
<path style="fill:#8db0cc; stroke:none;" d="M373.333 165.667C373.278 165.722 373.222 166.778 373.667 166.333C373.722 166.278 373.778 165.222 373.333 165.667z"/>
<path style="fill:#99b4cc; stroke:none;" d="M85 166C84.4382 167.801 84.1759 169.122 84 171C85.1326 169.101 85.4734 168.143 85 166z"/>
<path style="fill:#71a6cb; stroke:none;" d="M207.667 166.333C207.222 166.778 208.278 166.722 208.333 166.667C208.778 166.222 207.722 166.278 207.667 166.333z"/>
<path style="fill:#8dafcb; stroke:none;" d="M273.333 166.667C273.278 166.722 273.222 167.778 273.667 167.333C273.722 167.278 273.778 166.222 273.333 166.667z"/>
<path style="fill:#91b1cc; stroke:none;" d="M277.333 166.667C277.278 166.722 277.222 167.778 277.667 167.333C277.722 167.278 277.778 166.222 277.333 166.667z"/>
<path style="fill:#93b2cc; stroke:none;" d="M296 166C298.41 168.734 300.382 169.599 304 170C301.483 168.263 298.877 167.032 296 166z"/>
<path style="fill:#00ffff; stroke:none;" d="M310 166L311 167L310 166z"/>
<path style="fill:#8db0cc; stroke:none;" d="M395.333 166.667C395.278 166.722 395.222 167.778 395.667 167.333C395.722 167.278 395.778 166.222 395.333 166.667M430.333 166.667C430.278 166.722 430.222 167.778 430.667 167.333C430.722 167.278 430.778 166.222 430.333 166.667z"/>
<path style="fill:#97b4cb; stroke:none;" d="M87 167L86 171C87.303 169.332 87.553 169.008 87 167z"/>
<path style="fill:#83abcb; stroke:none;" d="M125 167C122.262 171.224 116.57 170 112 170C116.471 171.876 122.183 171 127 171C126.404 169.44 125.911 168.377 125 167z"/>
<path style="fill:#94b3cb; stroke:none;" d="M167.667 167.333C167.222 167.778 168.278 167.722 168.333 167.667C168.778 167.222 167.722 167.278 167.667 167.333z"/>
<path style="fill:#a5bcce; stroke:none;" d="M199 167C202.163 168.327 205.586 168 209 168C205.837 166.673 202.414 167 199 167z"/>
<path style="fill:#8dafcb; stroke:none;" d="M374 167C374.684 168.58 374.805 168.777 376 170C375.316 168.42 375.195 168.223 374 167z"/>
<path style="fill:#91b1cc; stroke:none;" d="M397 167C396.014 168.479 396 168.203 396 170C397.289 168.557 397.401 168.766 397 167z"/>
<path style="fill:#93b2cc; stroke:none;" d="M165.667 168.333C165.222 168.778 166.278 168.722 166.333 168.667C166.778 168.222 165.722 168.278 165.667 168.333z"/>
<path style="fill:#a2bacc; stroke:none;" d="M210.667 168.333C210.222 168.778 211.278 168.722 211.333 168.667C211.778 168.222 210.722 168.278 210.667 168.333z"/>
<path style="fill:#8dafcb; stroke:none;" d="M274.333 168.667C274.278 168.722 274.222 169.778 274.667 169.333C274.722 169.278 274.778 168.222 274.333 168.667z"/>
<path style="fill:#8eb0cb; stroke:none;" d="M276 168C275.132 170.355 274.426 172.531 274 175C275.836 172.692 276.797 170.889 276 168z"/>
<path style="fill:#7ca8ca; stroke:none;" d="M431 168C431.168 170.402 431.197 171.46 433 173C432.614 170.857 432.255 169.75 431 168z"/>
<path style="fill:#91b1cc; stroke:none;" d="M433.333 168.667C433.278 168.722 433.222 169.778 433.667 169.333C433.722 169.278 433.778 168.222 433.333 168.667z"/>
<path style="fill:#7fa8cb; stroke:none;" d="M152 169C153.506 169.683 154.315 169.826 156 170C154.494 169.317 153.685 169.174 152 169z"/>
<path style="fill:#7ea8cb; stroke:none;" d="M161 169C162.506 169.683 163.315 169.826 165 170C163.494 169.317 162.685 169.174 161 169z"/>
<path style="fill:#7fa8cb; stroke:none;" d="M339 169C340.506 169.683 341.315 169.826 343 170C341.494 169.317 340.685 169.174 339 169z"/>
<path style="fill:#83abcb; stroke:none;" d="M343 170C345.756 171.077 348.107 170.532 351 170C348.244 168.923 345.893 169.468 343 170M465 170C468.001 171.172 470.841 170.398 474 170C470.999 168.828 468.159 169.602 465 170M137 170C140.432 171.44 144.3 171 148 171C144.568 169.56 140.7 170 137 170M156 170C157.769 170.779 159.036 170.912 161 171C159.231 170.221 157.964 170.088 156 170z"/>
<path style="fill:#acbece; stroke:none;" d="M272 172C269.18 175.642 265.753 178.326 265 183C267.768 179.819 272.599 176.483 272 172z"/>
<path style="fill:#90b1cb; stroke:none;" d="M431 173C428.958 176.188 426.957 178.625 424 181C428.402 181.894 431.666 177.101 431 173z"/>
<path style="fill:#9eb8cd; stroke:none;" d="M273.333 175.667C273.278 175.722 273.222 176.778 273.667 176.333C273.722 176.278 273.778 175.222 273.333 175.667z"/>
<path style="fill:#aabdce; stroke:none;" d="M423 180C425.217 178.837 426.394 177.914 428 176C425.515 177.013 424.402 177.726 423 180z"/>
<path style="fill:#7da7ca; stroke:none;" d="M272 177C269.916 178.944 268.321 180.5 267 183C269.854 181.631 272.076 180.325 272 177z"/>
<path style="fill:#8baecc; stroke:none;" d="M422 179L422 183C422.71 181.241 422.71 180.759 422 179z"/>
<path style="fill:#ffffff; stroke:none;" d="M150 186L151 187L150 186z"/>
<path style="fill:#b4d6d6; stroke:none;" d="M147 197C149.714 191.023 150.538 187.409 158 187C150.061 183.701 147.062 190.18 147 197z"/>
<path style="fill:#ced0d0; stroke:none;" d="M157 202L158 197C161.196 207.814 155.267 220.793 160.569 230.956C164.913 239.285 175.982 236.601 179 229C184.308 236.411 194.497 239.35 199.005 228.996C203.731 218.143 194.32 194.197 211 194C210.73 191.313 210.182 189.43 209 187C205.798 187.218 202.013 186.547 199.108 188.18C191.941 192.208 193 204.161 193 211L195 210C194.662 212.671 194.249 215.318 193.999 218C193.786 220.29 192.771 229.099 188.834 228.218C186.471 227.689 184.741 220.992 184.108 219C182.297 213.296 184.468 206.93 183.941 201.005C183.751 198.861 182.993 195.557 180.09 196.06C176.979 196.599 177.049 200.628 177.005 203.001C176.82 212.799 175.777 219.914 172 229C162.459 221.796 166.561 210.168 165.91 200C165.64 195.785 165.226 189.373 160.891 187.269C153.553 183.707 142.269 194.03 149.357 200.397C151.395 202.227 154.468 201.97 157 202z"/>
<path style="fill:#ffffff; stroke:none;" d="M198 186L199 187L198 186z"/>
<path style="fill:#b3d6d4; stroke:none;" d="M193 197C198.345 192.531 197.917 186.057 207 188C200.527 180.594 194.428 191.556 193 197z"/>
<path style="fill:#ffffff; stroke:none;" d="M299 186L300 187L299 186z"/>
<path style="fill:#cdd0d0; stroke:none;" d="M321 214C320.959 217.698 319.885 220.611 319.26 224.17C318.743 227.114 318.77 231.908 320.938 234.258C323.188 236.695 328.158 236.167 329.339 232.891C330.441 229.834 327.313 226.137 327.058 222.996C326.631 217.738 327.93 211.953 325.427 207.044C321.206 198.764 310.126 203.445 305 208C306.336 202.705 307.238 194.512 305.782 189.157C304.904 185.925 300.712 185.423 298.889 188.218C296.756 191.486 298.71 196.469 298.94 200C299.531 209.063 298.626 218.011 298.06 227C297.857 230.223 297.741 235.22 302 235.699C305.565 236.1 305.923 232.657 305.995 230C306.179 223.269 305.496 214.926 312.139 210.653C316.522 207.833 317.613 213.51 321 214z"/>
<path style="fill:#b6d6d4; stroke:none;" d="M406 200C406.991 197.73 407.198 195.128 408.603 193.018C412.281 187.492 417.977 187.017 424 187C413.776 182.71 406.035 190.032 406 200z"/>
<path style="fill:#cdd0d0; stroke:none;" d="M429 219C428.005 227.932 419.781 233.041 413 226C414.952 225.977 417.624 226.309 419.259 224.972C422.008 222.726 421.326 216.885 418.682 214.873C414.434 211.639 407.485 214.768 405.322 219.044C403.696 222.258 404.339 226.734 405.703 229.957C407.831 234.986 413.109 235.938 418 235.996C428.021 236.116 436.749 231.305 435.902 220C435.33 212.358 429.044 208.267 423 204.716C420.525 203.262 415.078 200.704 415.631 197.095C415.935 195.109 418.167 193.898 420.005 193.863C423.528 193.795 426.178 197.36 429.852 196.624C435.026 195.587 431.973 189.158 428.891 187.587C419.216 182.656 404.24 190.197 406.684 201.996C408.061 208.644 416.055 210.741 420.996 213.965C423.805 215.798 425.733 218.326 429 219z"/>
<path style="fill:#9cdbd9; stroke:none;" d="M155 200C154.509 198.246 152.493 195.13 153.326 193.337C155.37 188.937 159.29 196.229 159.656 198.001C161.745 208.117 157.539 219.315 162.569 228.956C167.533 238.472 176.51 231.694 178 224C180.783 226.366 182.396 229.96 185.329 232.103C191.432 236.561 196.596 229.374 197.956 224C199.854 216.496 198.653 208.641 199.04 201C199.344 195.002 201.745 191.308 208 192C204.384 185.815 197.764 188.942 196.059 195.004C193.586 203.794 196.337 213.019 194.671 222C194.121 224.967 192.16 230.669 188.09 229.503C179.588 227.069 181.503 213.126 181.91 207C182.186 202.848 182.276 199.419 178 198C178 202.332 178.048 206.668 177.996 211C177.96 214.048 177.693 217.033 176.957 220C175.475 225.973 168.788 234.901 164.894 224.995C161.558 216.509 164.709 207.553 163.568 199C163.127 195.694 162.636 191.888 159.772 189.743C151.966 183.897 144.388 196.921 155 200M416 224C420.543 220.774 417.495 214.863 412.004 215.623C404.837 216.615 404.434 225.307 408.419 229.786C416.138 238.463 435.626 233.02 433.616 220C432.389 212.052 423.818 208.862 418.005 204.896C415.177 202.967 411.488 199.947 412.662 196.044C415.275 187.362 425.027 192.953 430 195C428.252 184.283 409.051 186.476 408.203 197C407.184 209.65 427.174 208.886 429.522 220C431.545 229.569 417.252 234.383 411.434 227.772C406.325 221.966 414.571 215.072 416 224z"/>
<path style="fill:#acd8d6; stroke:none;" d="M516 188L516 190L520 190L520 188L516 188z"/>
<path style="fill:#ffffff; stroke:none;" d="M147 189L148 190L147 189z"/>
<path style="fill:#9cdbd9; stroke:none;" d="M304 233C304 229.015 303.814 224.979 304.043 221C304.46 213.77 314.623 199.661 320.427 211.044C323.72 217.502 318.533 225.69 322.433 231.547C324.219 234.23 326.324 232.608 328 231C321.744 224.874 329.207 198.564 312 204.738C309.174 205.753 306.75 207.784 304 209L304 189C299.031 190.655 300.772 194.638 300.961 199C301.3 206.829 301.569 215.198 300.83 223C300.413 227.408 299.004 231.341 304 233z"/>
<path style="fill:#cfd0d0; stroke:none;" d="M514 189C514.476 191.877 514.561 194.137 514 197C520.495 198.715 521.931 194.81 522 189C519.194 189.402 516.806 189.402 514 189z"/>
<path style="fill:#aed7d5; stroke:none;" d="M514 191L514 196C514.83 193.97 514.83 193.03 514 191z"/>
<path style="fill:#a7d9d7; stroke:none;" d="M516 191L516 195C518.627 194.161 519.161 193.626 520 191L516 191z"/>
<path style="fill:#b5d5d4; stroke:none;" d="M280 196L285 193C282.235 192.38 281.412 193.665 280 196z"/>
<path style="fill:#d0d0d0; stroke:none;" d="M282 199C280.043 202.621 276.467 203.993 275 208C277.746 208.764 279.254 208.764 282 208C282 213.655 282.199 219.35 281.961 225C281.85 227.635 280.71 231.164 282.218 233.566C284.865 237.78 291.568 235.652 295 234L294 229L288 230C288.749 223.183 288 215.899 288 209C297.119 208.779 297.174 202.109 288 202C287.998 198.514 287.99 195.35 287 192C284.548 192.65 276.737 199.035 282 199z"/>
<path style="fill:#ffffff; stroke:none;" d="M442 192L443 193L442 192z"/>
<path style="fill:#afd6d5; stroke:none;" d="M441 202C437.526 202.577 436.577 203.526 436 207C437.917 204.891 439.257 203.792 442 203C442.052 198.565 442.508 195.909 446 193C440.708 191.887 441.013 198.239 441 202z"/>
<path style="fill:#ced0d0; stroke:none;" d="M442 203C438.468 203.581 437.385 204.728 436 208C438.746 208.764 440.254 208.764 443 208C443 213.99 443.192 220.015 442.961 226C442.871 228.335 441.996 231.425 443.269 233.566C445.416 237.182 452.681 236.41 454.972 233.352C456.111 231.831 455.941 229.78 456 228C453.795 228.094 452.106 228.356 450 229C448.204 222.059 448.981 216.047 449 209C454.31 208.826 455.826 207.31 456 202L449 202C448.998 198.514 448.99 195.35 448 192C442.387 193.972 442.019 197.52 442 203z"/>
<path style="fill:#cdd0d0; stroke:none;" d="M497 192L497 203L492 203L491 208C493.458 208.646 494.542 208.646 497 208C497 213.324 497.168 218.68 496.961 224C496.85 226.854 495.956 230.179 497.357 232.852C501.301 240.371 510.522 234.288 511 228C508.558 228.11 506.377 228.428 504 229C502.767 222.358 503 215.732 503 209C508.017 208.941 510.578 208.411 511 203L503 203C504.571 197.174 503.698 192.517 497 192z"/>
<path style="fill:#b4d6d4; stroke:none;" d="M496 193L496 202C492.243 202.299 490.599 203.061 491 207C491.683 205.494 491.826 204.685 492 203L497 203C497 199.586 497.327 196.163 496 193z"/>
<path style="fill:#000000; stroke:none;" d="M155 194L156 195L155 194z"/>
<path style="fill:#b7d5d4; stroke:none;" d="M170 229C182.45 221.934 171.535 204.289 180 196C176.64 195.245 176.149 198.024 176.019 201.005C175.549 211.775 175.126 219.255 170 229z"/>
<path style="fill:#9cdbd9; stroke:none;" d="M283 195C282.946 199.539 282.702 202.572 278 204L278 207L283 207C283 213.956 281.379 223.223 283.434 229.891C285.104 235.312 290.75 233.849 293 230C282.435 231.739 286 213.863 286 207C289.284 206.895 291.177 206.818 293 204L286 204L286 195L283 195M443 204L439 204L439 207L444 207C444 213.954 442.377 223.225 444.434 229.891C446.068 235.188 451.635 233.562 454 230C442.315 231.924 446.981 213.832 447 207C450.284 206.895 452.177 206.818 454 204L447 204L447 195C442.613 196.456 443.015 199.85 443 204z"/>
<path style="fill:#9bdcda; stroke:none;" d="M498 195L498 204L493 204C494.446 206.283 495.311 206.582 498 207C498 214.582 494.44 238.371 508 232C506.019 231.066 503.461 230.643 502.178 228.683C498.91 223.689 501 212.795 501 207L508 207L508 204C502.024 203.544 501.066 200.561 501 195L498 195z"/>
<path style="fill:#b1d7d6; stroke:none;" d="M158 197L158 221C160.349 215.403 160.349 202.597 158 197z"/>
<path style="fill:#b3d6d5; stroke:none;" d="M281 199C278.695 201.502 276.085 202.676 275 206C277.609 204.067 281.807 202.609 281 199z"/>
<path style="fill:#b5d6d4; stroke:none;" d="M212 213C214.683 211.25 215.892 208.528 218.213 206.34C223.51 201.346 228.624 202.543 235 204C226.06 196.225 215.716 204.142 212 213z"/>
<path style="fill:#ffffff; stroke:none;" d="M255 201L256 202L255 201z"/>
<path style="fill:#b5d5d4; stroke:none;" d="M243 225C245.912 217.139 242.925 206.487 253.998 203.434C256.234 202.817 258.706 203.007 261 203C247.539 194.198 241.262 215.497 243 225z"/>
<path style="fill:#b2d4d4; stroke:none;" d="M264 205C265.731 203.994 267.053 203.454 269 203C266.346 201.005 264.869 201.9 264 205z"/>
<path style="fill:#80ffff; stroke:none;" d="M268 201L269 202L268 201z"/>
<path style="fill:#b5d5d4; stroke:none;" d="M305 208C309.839 204.856 313.145 203.053 319 203C313.674 199.425 307.603 202.721 305 208z"/>
<path style="fill:#b5d6d4; stroke:none;" d="M334 213C336.683 211.25 337.892 208.528 340.213 206.34C345.51 201.346 350.624 202.543 357 204C348.06 196.225 337.716 204.142 334 213z"/>
<path style="fill:#aed7d6; stroke:none;" d="M368 201L368 203L371 203L371 201L368 201M374 206C378.116 203.736 381.324 203.017 386 203C381.289 200.514 376.6 201.17 374 206z"/>
<path style="fill:#cfd0d0; stroke:none;" d="M481 233C483.041 236.145 488.884 237.093 489.538 232.031C489.943 228.894 486.741 226.074 486.231 222.996C485.067 215.955 488.109 209.136 486 202C478.96 203.162 469.16 198.691 463.364 204.433C457.117 210.622 455.615 229.906 464.094 234.543C469.697 237.607 475.646 235.181 481 233z"/>
<path style="fill:#add7d7; stroke:none;" d="M479 202C481.3 202.916 482.377 202.879 484 201L479 202z"/>
<path style="fill:#b6d5d5; stroke:none;" d="M514 233C517.349 225.019 509.595 204.819 521 203C517.155 200.538 514.454 202.553 514.059 207.005C513.301 215.537 514 224.432 514 233z"/>
<path style="fill:#b5d6d4; stroke:none;" d="M526 222C527.212 219.119 526.895 215.967 527.97 213C530.587 205.772 536.644 202.341 544 202C530.791 196.509 526.001 212.32 526 222z"/>
<path style="fill:#cdd0d0; stroke:none;" d="M544 201.613C539.099 201.697 533.829 203.3 530.638 207.188C521.638 218.156 526.788 236.308 542 235.985C553.474 235.74 557.751 226.345 556.907 216C556.324 208.862 551.933 201.478 544 201.613z"/>
<path style="fill:#ffffff; stroke:none;" d="M563 201L564 202L563 201z"/>
<path style="fill:#80d5d5; stroke:none;" d="M564.667 201.333C564.222 201.778 565.278 201.722 565.333 201.667C565.778 201.222 564.722 201.278 564.667 201.333z"/>
<path style="fill:#b6d5d4; stroke:none;" d="M568 208C572.904 204.704 576.016 203.021 582 203C576.585 199.364 570.598 202.606 568 208z"/>
<path style="fill:#ced0d0; stroke:none;" d="M238 227C233.07 227.642 229.09 230.179 224 230L225 228C222.967 226.46 221.584 225.012 220 223C225.11 222.999 231.523 223.566 235.852 220.272C240.453 216.772 240.548 206.245 234.891 203.703C226.072 199.739 219.327 203.803 214.093 210.745C212.585 212.745 210.423 214.459 209.947 217.054C209.192 221.16 212.895 228.747 215.558 231.786C221.357 238.404 239.276 238.464 238 227z"/>
<path style="fill:#cdd0d0; stroke:none;" d="M265 232C266.612 234.924 272.483 238.292 273.627 232.852C274.385 229.249 271.466 225.567 271.109 222C270.425 215.162 273.008 208.794 271 202C268.391 202.577 266.667 202.92 265 205C261.945 200.382 251.756 202.421 248.083 206.083C238.702 215.44 241.408 237.019 257 235.972C260.461 235.74 262.469 234.212 265 232z"/>
<path style="fill:#ffffff; stroke:none;" d="M309 202L310 203L309 202z"/>
<path style="fill:#ced0d0; stroke:none;" d="M360 227C355.07 227.642 351.09 230.179 346 230L347 228C344.967 226.46 343.584 225.012 342 223C347.11 222.999 353.523 223.566 357.852 220.272C362.453 216.772 362.548 206.245 356.891 203.703C348.072 199.739 341.327 203.803 336.093 210.745C334.585 212.745 332.423 214.459 331.947 217.054C331.192 221.16 334.895 228.747 337.558 231.786C343.357 238.404 361.276 238.464 360 227z"/>
<path style="fill:#cfd0d0; stroke:none;" d="M366 202C366.772 206.223 366.532 209.77 366 214C368.815 214 368.22 216.47 367.833 219C367.017 224.343 366.982 229.67 366 235C376.571 238.027 373.143 226.634 374.329 220C375.041 216.021 377.322 212.61 379 209C382.041 209.9 384.831 209.992 388 210L388 203C382.63 203 378.497 202.765 374 206L373 202C370.572 202.262 368.428 202.262 366 202z"/>
<path style="fill:#b1d6d5; stroke:none;" d="M503 202C505.331 202.984 507.457 202.981 510 203C507.668 202.015 505.543 202.019 503 202z"/>
<path style="fill:#ffffff; stroke:none;" d="M514 202L515 203L514 202z"/>
<path style="fill:#ccd0d0; stroke:none;" d="M561 209L563 208C563 215.886 561.262 224.189 561.654 231.941C561.802 234.873 564.691 237.08 567.4 234.968C570.676 232.414 568.646 224.636 569.214 221C570.042 215.694 573.771 211.993 577 208C579.854 210.614 581.939 212.963 582.246 217.001C582.626 221.989 580.112 230.109 583.938 234.258C586.469 237.001 591.799 235.885 592.423 232.031C592.866 229.298 590.52 226.672 590.143 223.985C589.403 218.7 590.915 213.117 588.852 208.015C585.09 198.713 573.432 202.978 568 208L569 202C563.348 202.067 561.194 203.1 561 209z"/>
<path style="fill:#ffffff; stroke:none;" d="M218 203L219 204L218 203z"/>
<path style="fill:#9bdcda; stroke:none;" d="M211 216C212.843 220.681 214.637 227.071 218.34 230.606C223.922 235.934 233.477 234.776 237 228C234.112 229.033 231.095 231.011 228 231.254C221.599 231.756 217.973 225.369 217 220C222.931 220.468 231.086 222.404 235.397 216.772C241.456 208.855 230.315 201.223 223.004 204.232C217.532 206.484 215.329 212.326 211 216z"/>
<path style="fill:#ffffff; stroke:none;" d="M340 203L341 204L340 203z"/>
<path style="fill:#9bdcda; stroke:none;" d="M333 216C334.843 220.681 336.637 227.071 340.34 230.606C345.922 235.934 355.477 234.776 359 228C356.112 229.033 353.095 231.011 350 231.254C343.599 231.756 339.973 225.369 339 220C344.931 220.468 353.086 222.404 357.397 216.772C363.457 208.855 352.315 201.223 345.004 204.232C339.532 206.484 337.329 212.326 333 216z"/>
<path style="fill:#cdd0d0; stroke:none;" d="M514 235C516.205 235.632 519.077 236.595 520.821 234.396C523.173 231.429 521.488 226.344 521.17 223C520.531 216.285 521.982 209.702 522 203C520.007 203.065 517.416 202.826 516.026 204.603C514.235 206.893 515 211.294 515 214C515 221.056 515.292 228.038 514 235z"/>
<path style="fill:#ffffff; stroke:none;" d="M532 203L533 204L532 203z"/>
<path style="fill:#9bdcda; stroke:none;" d="M539 203.573C521.487 207.716 526.773 238.634 545 233.427C561.02 228.851 556.014 199.548 539 203.573M267 228C267.497 231.207 268.15 232.444 271 234L272 233C269.903 227.093 268.653 222.376 269.09 216C269.29 213.065 271.065 208.248 269.011 205.657C267.661 203.954 263.905 204.863 261.961 204.581C252.317 203.182 245.525 207.763 245.04 218C244.707 225.034 247.625 235.597 257 233.526C260.675 232.715 263.612 229.549 267 228z"/>
<path style="fill:#b1d7d6; stroke:none;" d="M366 204L366 211C367.059 208.466 367.059 206.534 366 204z"/>
<path style="fill:#9bdcda; stroke:none;" d="M368 204L368 233L371 233C371 225.609 369.601 210.62 379.092 207.634C381.175 206.979 383.878 207.793 386 208C383.272 200.243 375.617 206.902 371 209L371 204L368 204M482 228C482.397 230.301 482.957 231.905 484 234C485.948 233.064 486.55 232.608 488 231C481.175 224.977 485.421 216.814 484.927 209.019C484.754 206.29 483.388 203.477 481 206C475.962 204.164 469.774 202.522 465.213 206.434C457.739 212.843 457.221 233.025 470.001 233.678C474.683 233.918 478.039 229.809 482 228M517 204C514.385 212.847 516 223.797 516 233C517.854 232.383 519.159 232.068 519.517 229.852C520.012 226.79 519.016 223.133 519.001 220C518.976 214.749 520.277 209.053 519 204L517 204M564 204C564 213.496 561.849 224.861 564 234L566 234C568.321 226.149 565.323 218.109 570.789 211.094C574.407 206.452 580.316 204.95 583.347 211.094C586.828 218.149 579.949 230.397 589 234L590 233L590 231C584.484 225.158 588.569 217.105 586.566 210.015C584.899 204.11 577.89 202.655 573.005 205.585C570.9 206.847 569.02 208.601 567 210L567 204L564 204z"/>
<path style="fill:#000000; stroke:none;" d="M219 215C222.21 215.947 231.921 217.073 231.079 211.015C229.834 202.068 220.518 211.879 219 215M257.014 207.993C250.693 208.78 248.465 216.734 249.688 221.999C250.406 225.091 252.177 228.927 256 228.338C264.644 227.006 268.216 206.598 257.014 207.993z"/>
<path style="fill:#ffffff; stroke:none;" d="M258 207L259 208L258 207z"/>
<path style="fill:#000000; stroke:none;" d="M341 215C344.21 215.947 353.921 217.073 353.079 211.015C351.834 202.068 342.518 211.879 341 215z"/>
<path style="fill:#afd6d6; stroke:none;" d="M461 207C457.872 212.584 458 217.752 458 224C459.226 221.078 458.741 218.083 459.39 215C459.993 212.131 461.487 209.907 461 207z"/>
<path style="fill:#000000; stroke:none;" d="M472.039 207.867C466.058 208.854 463.782 216.918 464.968 221.996C465.653 224.933 467.425 228.697 471.029 228.338C480.226 227.421 482.905 206.073 472.039 207.867z"/>
<path style="fill:#00ffff; stroke:none;" d="M539 207L540 208L539 207z"/>
<path style="fill:#000000; stroke:none;" d="M540.04 207.762C529.969 209.902 530.965 230.457 541.996 228.623C552.988 226.796 551.22 205.385 540.04 207.762z"/>
<path style="fill:#00ffff; stroke:none;" d="M223 208L224 209L223 208z"/>
<path style="fill:#ffffff; stroke:none;" d="M230 208L231 209L230 208z"/>
<path style="fill:#00ffff; stroke:none;" d="M254 208L255 209L254 208z"/>
<path style="fill:#afd6d6; stroke:none;" d="M281 208L281 230C283.219 224.713 283.219 213.287 281 208z"/>
<path style="fill:#00ffff; stroke:none;" d="M345 208L346 209L345 208z"/>
<path style="fill:#ffffff; stroke:none;" d="M352 208L353 209L352 208z"/>
<path style="fill:#add7d6; stroke:none;" d="M442 208L442 231C444.284 225.557 444.284 213.443 442 208z"/>
<path style="fill:#b9d6d4; stroke:none;" d="M496 208L496 229C498.153 223.869 498.153 213.131 496 208z"/>
<path style="fill:#bad4d2; stroke:none;" d="M562 208L561 232C563.643 225.873 564.605 214.209 562 208z"/>
<path style="fill:#ffffff; stroke:none;" d="M262 209L263 210L262 209z"/>
<path style="fill:#b7d6d5; stroke:none;" d="M194 210C192.908 215.884 194.047 225.195 187 227C189.291 229.929 191.561 228.102 192.852 224.977C194.459 221.086 195.407 213.924 194 210z"/>
<path style="fill:#00ffff; stroke:none;" d="M221 210L222 211L221 210M343 210L344 211L343 210M467 210L468 211L467 210M535 210L536 211L535 210M251 211L252 212L251 211z"/>
<path style="fill:#abd9d6; stroke:none;" d="M587 212L587 230C588.952 225.349 588.952 216.651 587 212z"/>
<path style="fill:#a1dddd; stroke:none;" d="M209 213L209 218C210.062 216.307 210.52 214.96 211 213L209 213M331 213L331 218C332.062 216.307 332.52 214.96 333 213L331 213z"/>
<path style="fill:#aed7d6; stroke:none;" d="M367 213L366 233C368.003 228.228 369.011 217.804 367 213z"/>
<path style="fill:#b6d5d4; stroke:none;" d="M405 230C405.518 227.556 404.549 225.487 404.668 222.999C404.92 217.748 409.379 214.933 414 214C403.803 210.071 402.236 223.449 405 230z"/>
<path style="fill:#add7d6; stroke:none;" d="M320 214C319.942 216.784 319.648 219.291 319 222C321.476 219.837 321.223 216.92 320 214z"/>
<path style="fill:#00ffff; stroke:none;" d="M219 215L220 216L219 215M341 215L342 216L341 215z"/>
<path style="fill:#abd9d6; stroke:none;" d="M371 216L371 232C372.812 227.681 372.812 220.319 371 216z"/>
<path style="fill:#00ffff; stroke:none;" d="M464 217L465 218L464 217z"/>
<path style="fill:#ffffff; stroke:none;" d="M366 219L367 220L366 219z"/>
<path style="fill:#b5d5d5; stroke:none;" d="M428 219C426.62 225.837 421.885 229.473 415 228C420.26 234.018 430.73 226.087 428 219z"/>
<path style="fill:#ffffff; stroke:none;" d="M549 220L550 221L549 220z"/>
<path style="fill:#00ffff; stroke:none;" d="M249 221L250 222L249 221z"/>
<path style="fill:#000000; stroke:none;" d="M412 221C411.66 223.018 411.677 223.968 412 226C412.924 224.352 413.449 222.825 414 221L412 221z"/>
<path style="fill:#ffffff; stroke:none;" d="M262 222L263 223L262 222M548 223L549 224L548 223M561 223L562 224L561 223z"/>
<path style="fill:#00ffff; stroke:none;" d="M465 224L466 225L465 224z"/>
<path style="fill:#ffffff; stroke:none;" d="M476 224L477 225L476 224z"/>
<path style="fill:#b8d6d5; stroke:none;" d="M224 229C228.869 232.01 234.731 225.422 238 230C238.683 228.494 238.826 227.685 239 226C233.709 226.157 229.253 228.716 224 229M346 229C350.869 232.01 356.731 225.422 360 230C360.683 228.494 360.826 227.685 361 226C355.709 226.157 351.253 228.716 346 229z"/>
<path style="fill:#00ffff; stroke:none;" d="M466 226L467 227L466 226z"/>
<path style="fill:#ffffff; stroke:none;" d="M546 226L547 227L546 226M258 227L259 228L258 227M545 227L546 228L545 227z"/>
<path style="fill:#b7d5d5; stroke:none;" d="M288 229C290.558 229.917 292.354 229.714 294 232C294.683 230.494 294.826 229.685 295 228C292.558 228.11 290.377 228.428 288 229z"/>
<path style="fill:#00ffff; stroke:none;" d="M468 228L469 229L468 228z"/>
<path style="fill:#ffffff; stroke:none;" d="M505 228L506 229L505 228z"/>
</svg>
