<?xml version="1.0" standalone="yes"?>
<svg width="600" height="250">
<path style="fill:#000000; stroke:none;" d="M0 0L0 250L600 250L600 0L0 0z"/>
<path style="fill:#bdbebf; stroke:none;" d="M23 6.63812C4.34975 12.0307 12.1401 36.4426 14.4136 50L16.2469 61C24.466 110.314 32.3181 159.694 40.5864 209C43.0498 223.689 43.9125 254.325 67 248.071C75.6455 245.729 81.0435 237.882 80.4861 229C78.9437 204.423 72.8001 179.291 68.7531 155C67.6294 148.255 63.0048 135.943 67.3326 130.001C82.9135 108.609 113.437 107.225 137 104.831C156.158 102.885 173.922 94.1394 190 84.0502C196.843 79.7561 204.738 75.1428 208.991 68C213.408 60.5813 210.627 52.3851 202.996 48.9051C192.583 44.1563 179.953 45.3989 169 42.2901C150.421 37.017 133.868 27.092 115 22.375C101.414 18.9785 86.9946 16.6522 73 16.0394C65.3719 15.7053 57.6087 16.6114 50.0039 15.9414C44.889 15.4907 42.9181 11.3626 38.9853 8.70293C34.6128 5.74583 28.024 5.18546 23 6.63812z"/>
<path style="fill:#000000; stroke:none;" d="M28.0008 17.7863C23.3032 18.4121 21.5355 22.8129 21.848 27C22.6432 37.6559 25.334 48.4574 27.0802 59C34.4135 103.273 42.8773 147.546 49 192C50.6523 203.997 52.5868 216.118 54.9352 227.999C55.8186 232.468 58.532 237.451 63.9823 236.461C68.6002 235.623 69.7929 231.025 69.3696 227C68.2448 216.305 65.8377 205.61 64.0802 195C56.7941 151.011 49.4815 107.022 42.4105 63C40.4852 51.0138 38.7804 38.9008 36.385 27C35.5168 22.6861 33.5371 17.0487 28.0008 17.7863M48 28C49.2815 57.8474 59.6462 87.2158 62 117C74.8067 110.464 84.6306 101.676 99 97.8843C112.612 94.2921 126.28 94.8314 140 92.385C153.519 89.9746 166.155 84.2005 178 77.4213C185.777 72.9699 195.599 68.1176 200 60C188.182 56.679 175.797 56.7799 164 53.2793C148.142 48.5735 133.925 39.972 118 35.4275C94.9725 28.8562 71.7481 28 48 28z"/>
<path style="fill:#76a9b1; stroke:none;" d="M272 52C274.052 52.8742 275.747 52.9528 278 53C275.948 52.1257 274.253 52.0472 272 52z"/>
<path style="fill:#99dad8; stroke:none;" d="M178 117C182.732 117.642 185.809 115.664 190 113.682C198.248 109.782 204.921 104.52 212 98.8032C219.897 92.427 226.296 84.505 234.039 78.0008C248.464 65.884 268.97 57.4669 288 61C279.029 63.3407 267.088 62.165 259.546 68.9691C248.18 79.2224 246.437 97.8911 262 105.084C270.918 109.206 283.875 107.414 293 105C293.397 117.229 305.558 116.996 315 117.008C332.075 117.03 345.736 110.022 360.001 100.875C364.464 98.0131 368.228 94.3769 373 92C373.002 95.5962 372.75 99.332 374.189 102.715C382.181 121.506 415.469 118.907 430 110.64C440.87 104.457 447.586 93.817 456 85C453.993 97.6081 461.657 110.014 474 113.942C479.385 115.656 485.424 115 491 115C494.921 115 499.187 115.445 503 114.363C508.002 112.943 511.752 109.622 516.089 107.006C523.31 102.652 530.633 98.0925 538 94L537 98C539.099 100.727 539.118 104.025 540.843 106.996C544.807 113.821 553.269 117.758 561 117.909C568.284 118.051 575.474 117.863 581.995 114.356C583.665 113.458 588.448 111.215 586.824 108.564C584.837 105.322 577.173 108.669 574.424 109.235C565.928 110.983 553.674 110.162 549.497 100.996C546.053 93.4386 554.375 87.2151 561 87C556.755 89.1122 548.459 94.0472 557.109 97.9907C566.668 102.349 578.474 93.068 571.258 83.2137C567.277 77.778 559.024 77.7454 553 78.0401C536.715 78.837 521.38 93.589 508 101.6C501.678 105.386 492.695 110.359 485 108.733C477.13 107.07 471.723 101.265 468.829 94C467.367 90.328 466.363 85.5921 469.652 82.4923C474.024 78.371 477.349 87.9046 482.683 85.392C486.425 83.6293 484.931 77.6263 482.682 75.3032C479.349 71.8604 472.536 71.4366 468 71.2091C459.145 70.765 449.969 75.4541 444.305 82.0147C441.746 84.9782 440.298 88.6634 437.716 91.5748C429.104 101.286 418.43 108.669 405.116 109.295C401.385 109.47 397.545 110.005 394.015 108.481C389.719 106.627 377.792 93.6869 387.144 90.7361C391.083 89.4934 394.713 94.9108 398.552 92.716C404.202 89.486 396.104 82.8781 392.999 81.7238C377.929 76.1203 365.692 86.3996 353.996 94.1628C347.019 98.7939 339.53 102.894 331.83 106.111C321.654 110.363 311.247 113.778 302 106C306.726 104.711 310.274 104.711 315 106C315.622 100.361 312.741 96.9842 307 96.189C294.668 94.481 283.087 103.706 271.001 99.3866C253.005 92.9549 265.109 73.7225 278 70C272.682 76.3084 274.627 83.7167 283 86.3472C291.086 88.8875 302.538 87.7818 308.285 81.2755C313.751 75.0864 311.922 65.6016 305.826 60.6343C297.963 54.2283 286.846 52.3858 277 52.7454C258.789 53.4105 240.428 59.4583 226 70.8187C216.909 77.9767 209.555 87.2076 201 95C196.031 99.5261 191.108 104.349 185.985 108.672C182.708 111.438 179.326 112.749 178 117z"/>
<path style="fill:#73a5a4; stroke:none;" d="M279 52C281.332 52.9845 283.457 52.9813 286 53C283.668 52.0155 281.543 52.0187 279 52z"/>
<path style="fill:#0d525d; stroke:none;" d="M293 54L294 55L293 54z"/>
<path style="fill:#7eb4ae; stroke:none;" d="M253.667 56.3333C253.222 56.7778 254.278 56.7222 254.333 56.6667C254.778 56.2222 253.722 56.2778 253.667 56.3333z"/>
<path style="fill:#669b90; stroke:none;" d="M300 57L301 58L300 57z"/>
<path style="fill:#5a7d81; stroke:none;" d="M246 59L247 60L246 59z"/>
<path style="fill:#476769; stroke:none;" d="M242 60L243 61L242 60z"/>
<path style="fill:#4d7373; stroke:none;" d="M275 60C277.441 61.1546 279.318 61.2786 282 61C279.668 60.0155 277.543 60.0187 275 60z"/>
<path style="fill:#83c0c0; stroke:none;" d="M282 60C284.013 61.2247 285.659 61.6453 288 62C285.958 60.584 284.489 60.2549 282 60z"/>
<path style="fill:#5e8e91; stroke:none;" d="M268 61L269 62L268 61z"/>
<path style="fill:#3c5e4a; stroke:none;" d="M269 61L270 62L269 61z"/>
<path style="fill:#5e7892; stroke:none;" d="M282 61L283 62L282 61z"/>
<path style="fill:#405a5f; stroke:none;" d="M283.667 61.3333C283.222 61.7778 284.278 61.7222 284.333 61.6667C284.778 61.2221 283.722 61.2778 283.667 61.3333z"/>
<path style="fill:#689fa2; stroke:none;" d="M264 62L265 63L264 62z"/>
<path style="fill:#64807a; stroke:none;" d="M274 62L275 63L274 62z"/>
<path style="fill:#79b0ad; stroke:none;" d="M275.667 62.3333C275.222 62.7777 276.278 62.7223 276.333 62.6667C276.778 62.2221 275.722 62.2778 275.667 62.3333z"/>
<path style="fill:#659596; stroke:none;" d="M238 63L239 64L238 63z"/>
<path style="fill:#7db0ad; stroke:none;" d="M257 63C258.506 63.683 259.315 63.8259 261 64C259.494 63.3169 258.685 63.1741 257 63z"/>
<path style="fill:#649698; stroke:none;" d="M271 63L272 64L271 63z"/>
<path style="fill:#709094; stroke:none;" d="M308 63L309 64L308 63z"/>
<path style="fill:#345552; stroke:none;" d="M235 64L236 65L235 64z"/>
<path style="fill:#28353c; stroke:none;" d="M256 64L257 65L256 64z"/>
<path style="fill:#8ac7c7; stroke:none;" d="M265 65C267.08 65.5069 268.838 65.2369 271 65C268.677 64.0785 267.419 64.3127 265 65z"/>
<path style="fill:#055451; stroke:none;" d="M259 68L260 69L259 68z"/>
<path style="fill:#619295; stroke:none;" d="M284 68L285 69L284 68z"/>
<path style="fill:#000000; stroke:none;" d="M282 69C282.732 70.7064 283.45 72.3725 284.393 73.9799C290.108 83.7243 297.015 69.6548 287.02 68.5131C285.337 68.3209 283.646 68.7296 282 69z"/>
<path style="fill:#446a6c; stroke:none;" d="M288 68L289 69L288 68z"/>
<path style="fill:#000000; stroke:none;" d="M278 69L279 70L278 69z"/>
<path style="fill:#315956; stroke:none;" d="M279 69L280 70L279 69z"/>
<path style="fill:#62a29e; stroke:none;" d="M280.667 69.3333C280.222 69.7777 281.278 69.7223 281.333 69.6667C281.778 69.2221 280.722 69.2778 280.667 69.3333z"/>
<path style="fill:#8dcac8; stroke:none;" d="M291 69C292.317 72.2635 292.544 74.5293 292 78C294.892 74.6251 294.986 71.3536 291 69z"/>
<path style="fill:#608084; stroke:none;" d="M277 70L278 71L277 70z"/>
<path style="fill:#7ec6b1; stroke:none;" d="M467 70C468.248 70.6848 468.548 70.7488 470 71C468.752 70.3152 468.452 70.2512 467 70z"/>
<path style="fill:#8fccca; stroke:none;" d="M257 71C255.123 73.3267 253.941 75.1727 253 78C255.292 75.9389 257.163 74.1447 257 71z"/>
<path style="fill:#597d80; stroke:none;" d="M273 71L274 72L273 71z"/>
<path style="fill:#668a8d; stroke:none;" d="M276 71L277 72L276 71z"/>
<path style="fill:#638889; stroke:none;" d="M311 71L312 72L311 71z"/>
<path style="fill:#76a8a5; stroke:none;" d="M462.667 71.3333C462.222 71.7777 463.278 71.7223 463.333 71.6667C463.778 71.2221 462.722 71.2778 462.667 71.3333z"/>
<path style="fill:#8dc9c4; stroke:none;" d="M470 71C472.052 71.8742 473.747 71.9528 476 72C473.948 71.1257 472.253 71.0472 470 71z"/>
<path style="fill:#6fa0a2; stroke:none;" d="M240 72L241 73L240 72z"/>
<path style="fill:#7fc1bb; stroke:none;" d="M311 72L311 75C311.696 73.4463 311.696 73.5536 311 72z"/>
<path style="fill:#83b0ae; stroke:none;" d="M457 72C458.248 72.6848 458.548 72.7488 460 73C458.752 72.3152 458.452 72.2512 457 72z"/>
<path style="fill:#84c3c0; stroke:none;" d="M477.667 72.3333C477.222 72.7777 478.278 72.7223 478.333 72.6667C478.778 72.2221 477.722 72.2779 477.667 72.3333z"/>
<path style="fill:#466d6c; stroke:none;" d="M479 72L480 73L479 72z"/>
<path style="fill:#608f90; stroke:none;" d="M455 73L456 74L455 73z"/>
<path style="fill:#486e6e; stroke:none;" d="M311 76L312 77L311 76z"/>
<path style="fill:#5c8e8f; stroke:none;" d="M450 76L451 77L450 76z"/>
<path style="fill:#73a39f; stroke:none;" d="M291 77L292 78L291 77z"/>
<path style="fill:#35636d; stroke:none;" d="M553 77L554 78L553 77z"/>
<path style="fill:#6e9fab; stroke:none;" d="M554 77C555.506 77.6831 556.315 77.8259 558 78C556.494 77.317 555.685 77.1741 554 77z"/>
<path style="fill:#57767a; stroke:none;" d="M265 78L266 79L265 78z"/>
<path style="fill:#618e91; stroke:none;" d="M274.333 78.6667C274.278 78.7223 274.222 79.7777 274.667 79.3333C274.722 79.2779 274.778 78.2222 274.333 78.6667z"/>
<path style="fill:#556e74; stroke:none;" d="M287 78L288 79L287 78z"/>
<path style="fill:#507c72; stroke:none;" d="M289 78L290 79L289 78z"/>
<path style="fill:#8ac4bf; stroke:none;" d="M310 78C309.014 79.4785 309 79.2032 309 81C310.289 79.5574 310.401 79.7663 310 78z"/>
<path style="fill:#5b8d94; stroke:none;" d="M447 78L448 79L447 78z"/>
<path style="fill:#89c8c7; stroke:none;" d="M485 78L485 84C485.951 81.7147 485.951 80.2853 485 78z"/>
<path style="fill:#629b8a; stroke:none;" d="M230 80L231 81L230 80z"/>
<path style="fill:#79b4b5; stroke:none;" d="M263.333 80.6667C263.278 80.7224 263.222 81.7777 263.667 81.3333C263.722 81.2779 263.778 80.2222 263.333 80.6667z"/>
<path style="fill:#485e60; stroke:none;" d="M380.667 80.3333C380.222 80.7777 381.278 80.7223 381.333 80.6667C381.778 80.2221 380.722 80.2778 380.667 80.3333z"/>
<path style="fill:#5a7372; stroke:none;" d="M386 80C387.248 80.6848 387.548 80.7488 389 81C387.752 80.3152 387.452 80.2512 386 80z"/>
<path style="fill:#73b3b5; stroke:none;" d="M471 80C472.248 80.6848 472.548 80.7488 474 81C472.752 80.3152 472.452 80.2512 471 80z"/>
<path style="fill:#14a1a1; stroke:none;" d="M543 80L544 81L543 80z"/>
<path style="fill:#5e878c; stroke:none;" d="M469 81L470 82L469 81z"/>
<path style="fill:#517678; stroke:none;" d="M540 81L541 82L540 81z"/>
<path style="fill:#234b4a; stroke:none;" d="M263 82L264 83L263 82z"/>
<path style="fill:#7bbdb5; stroke:none;" d="M305 84C306.58 83.3164 306.777 83.1952 308 82C306.42 82.6835 306.223 82.8049 305 84z"/>
<path style="fill:#4d7663; stroke:none;" d="M372 82L373 83L372 82z"/>
<path style="fill:#459499; stroke:none;" d="M475 82L476 83L475 82z"/>
<path style="fill:#507e82; stroke:none;" d="M396 83L397 84L396 83z"/>
<path style="fill:#82baba; stroke:none;" d="M250.333 84.6667C250.278 84.7222 250.222 85.7778 250.667 85.3333C250.722 85.2777 250.778 84.2223 250.333 84.6667z"/>
<path style="fill:#446d6d; stroke:none;" d="M305 84L306 85L305 84z"/>
<path style="fill:#71a0a1; stroke:none;" d="M397 84L398 85L397 84z"/>
<path style="fill:#c8ffff; stroke:none;" d="M442 84L443 85L442 84z"/>
<path style="fill:#648687; stroke:none;" d="M535 84L536 85L535 84z"/>
<path style="fill:#bfffff; stroke:none;" d="M572 84L573 85L572 84z"/>
<path style="fill:#8acbc9; stroke:none;" d="M261 85C261.026 88.1217 261.276 90.9605 262 94C263.104 90.9204 262.404 87.9216 261 85z"/>
<path style="fill:#699894; stroke:none;" d="M262.333 85.6667C262.278 85.7223 262.222 86.7777 262.667 86.3333C262.722 86.2778 262.778 85.2222 262.333 85.6667z"/>
<path style="fill:#21434a; stroke:none;" d="M366 85L367 86L366 85z"/>
<path style="fill:#000000; stroke:none;" d="M455 85L456 86L455 85z"/>
<path style="fill:#188f67; stroke:none;" d="M467 85L468 86L467 85z"/>
<path style="fill:#517d7b; stroke:none;" d="M210 86L211 87L210 86z"/>
<path style="fill:#6b8e91; stroke:none;" d="M282 86L283 87L282 86z"/>
<path style="fill:#3f8c79; stroke:none;" d="M455 86L456 87L455 86z"/>
<path style="fill:#8bc5c6; stroke:none;" d="M478 86C479.769 86.779 481.036 86.9124 483 87C481.231 86.2211 479.964 86.0876 478 86z"/>
<path style="fill:#568082; stroke:none;" d="M209 87L210 88L209 87z"/>
<path style="fill:#548687; stroke:none;" d="M284 87L285 88L284 87z"/>
<path style="fill:#8dc8c7; stroke:none;" d="M285 87C289.317 89.9156 295.082 88.8859 300 88C295.529 86.1237 289.817 87 285 87z"/>
<path style="fill:#5b9696; stroke:none;" d="M480 87L481 88L480 87z"/>
<path style="fill:#318285; stroke:none;" d="M560 87L561 88L560 87z"/>
<path style="fill:#4d6363; stroke:none;" d="M573 87L574 88L573 87z"/>
<path style="fill:#557c7e; stroke:none;" d="M208 88L209 89L208 88z"/>
<path style="fill:#6d8c8c; stroke:none;" d="M291.667 88.3333C291.222 88.7777 292.278 88.7223 292.333 88.6667C292.778 88.2222 291.722 88.2778 291.667 88.3333z"/>
<path style="fill:#365957; stroke:none;" d="M452 88L453 89L452 88z"/>
<path style="fill:#5e8e8f; stroke:none;" d="M529 88L530 89L529 88z"/>
<path style="fill:#000000; stroke:none;" d="M561 88C561.406 90.0925 561.217 90.0197 563 91C562.316 89.4199 562.195 89.2229 561 88z"/>
<path style="fill:#6ca4a4; stroke:none;" d="M562 88L563 89L562 88z"/>
<path style="fill:#83bfbe; stroke:none;" d="M573 88L573 94C573.951 91.7147 573.951 90.2853 573 88z"/>
<path style="fill:#68999b; stroke:none;" d="M207 89L208 90L207 89z"/>
<path style="fill:#74aaa3; stroke:none;" d="M221 89L222 90L221 89z"/>
<path style="fill:#7cb3b3; stroke:none;" d="M387.667 89.3333C387.222 89.7776 388.278 89.7224 388.333 89.6667C388.778 89.2221 387.722 89.2779 387.667 89.3333z"/>
<path style="fill:#8cc9c5; stroke:none;" d="M439 89C438.014 90.4786 438 90.2031 438 92C439.289 90.5574 439.401 90.7663 439 89z"/>
<path style="fill:#6aa1a0; stroke:none;" d="M451 89L452 90L451 89z"/>
<path style="fill:#537a7c; stroke:none;" d="M467.333 89.6667C467.278 89.7223 467.222 90.7777 467.667 90.3333C467.722 90.278 467.778 89.2221 467.333 89.6667z"/>
<path style="fill:#6a9d9e; stroke:none;" d="M206 90L207 91L206 90z"/>
<path style="fill:#312528; stroke:none;" d="M359 90L360 91L359 90z"/>
<path style="fill:#234a52; stroke:none;" d="M390 90L391 91L390 90z"/>
<path style="fill:#7dbcbd; stroke:none;" d="M455.333 90.6667C455.278 90.7223 455.222 91.7777 455.667 91.3333C455.722 91.2779 455.778 90.2222 455.333 90.6667z"/>
<path style="fill:#4f797b; stroke:none;" d="M525 90L526 91L525 90z"/>
<path style="fill:#288c55; stroke:none;" d="M553 90L554 91L553 90z"/>
<path style="fill:#2694a1; stroke:none;" d="M560 90L561 91L560 90z"/>
<path style="fill:#5d9986; stroke:none;" d="M358 91L359 92L358 91z"/>
<path style="fill:#2d5c50; stroke:none;" d="M373 91L374 92L373 91z"/>
<path style="fill:#86afaf; stroke:none;" d="M384.333 91.6667C384.278 91.7223 384.222 92.7777 384.667 92.3333C384.722 92.2779 384.778 91.2222 384.333 91.6667z"/>
<path style="fill:#77a2a5; stroke:none;" d="M450 91L451 92L450 91z"/>
<path style="fill:#004e68; stroke:none;" d="M551 91L552 92L551 91z"/>
<path style="fill:#74aaaa; stroke:none;" d="M449 92L450 93L449 92z"/>
<path style="fill:#65898a; stroke:none;" d="M455 92L456 93L455 92z"/>
<path style="fill:#3e9630; stroke:none;" d="M550 92L551 93L550 92z"/>
<path style="fill:#00878f; stroke:none;" d="M263 93L264 94L263 93z"/>
<path style="fill:#477274; stroke:none;" d="M369 93L370 94L369 93z"/>
<path style="fill:#429f9f; stroke:none;" d="M398 93L399 94L398 93z"/>
<path style="fill:#2d3a40; stroke:none;" d="M520 93L521 94L520 93z"/>
<path style="fill:#6e959c; stroke:none;" d="M549 93L550 94L549 93z"/>
<path style="fill:#649898; stroke:none;" d="M368 94L369 95L368 94z"/>
<path style="fill:#304522; stroke:none;" d="M434 94L435 95L434 94z"/>
<path style="fill:#0a585d; stroke:none;" d="M537 94L538 95L537 94z"/>
<path style="fill:#70d3d3; stroke:none;" d="M572.333 94.6667C572.278 94.7222 572.222 95.7778 572.667 95.3333C572.722 95.2777 572.778 94.2222 572.333 94.6667z"/>
<path style="fill:#6e878a; stroke:none;" d="M264 95L265 96L264 95z"/>
<path style="fill:#5a8d8d; stroke:none;" d="M299.667 95.3333C299.222 95.7777 300.278 95.7223 300.333 95.6667C300.778 95.2221 299.722 95.2778 299.667 95.3333z"/>
<path style="fill:#85babb; stroke:none;" d="M301 95C302.248 95.6848 302.548 95.7488 304 96C302.752 95.3152 302.452 95.2512 301 95z"/>
<path style="fill:#709da1; stroke:none;" d="M304.667 95.3333C304.222 95.7777 305.278 95.7223 305.333 95.6667C305.778 95.2221 304.722 95.2778 304.667 95.3333z"/>
<path style="fill:#526b74; stroke:none;" d="M306 95L307 96L306 95z"/>
<path style="fill:#5c9598; stroke:none;" d="M352 95L353 96L352 95z"/>
<path style="fill:#75b1a9; stroke:none;" d="M372 95L372 99C372.71 97.2405 372.71 96.7595 372 95z"/>
<path style="fill:#7db8b9; stroke:none;" d="M383 95L383 98C383.696 96.4463 383.696 96.5537 383 95z"/>
<path style="fill:#79b4ad; stroke:none;" d="M534.667 95.3333C534.222 95.7778 535.278 95.7222 535.333 95.6667C535.778 95.2223 534.722 95.2777 534.667 95.3333z"/>
<path style="fill:#46e8e8; stroke:none;" d="M553 95L554 96L553 95z"/>
<path style="fill:#6ba8a8; stroke:none;" d="M214 96L215 97L214 96z"/>
<path style="fill:#629b92; stroke:none;" d="M309 96L310 97L309 96z"/>
<path style="fill:#549291; stroke:none;" d="M365 96L366 97L365 96z"/>
<path style="fill:#8dbdbe; stroke:none;" d="M445 96C444.014 97.4785 444 97.2032 444 99C445.289 97.5573 445.401 97.7663 445 96z"/>
<path style="fill:#6a9b92; stroke:none;" d="M516 96L517 97L516 96z"/>
<path style="fill:#75a2a0; stroke:none;" d="M533 96L534 97L533 96z"/>
<path style="fill:#79b6b5; stroke:none;" d="M548.333 96.6667C548.278 96.7221 548.222 97.7779 548.667 97.3333C548.722 97.2777 548.778 96.2221 548.333 96.6667z"/>
<path style="fill:#549396; stroke:none;" d="M198 97L199 98L198 97z"/>
<path style="fill:#2c2837; stroke:none;" d="M213 97L214 98L213 97z"/>
<path style="fill:#81baba; stroke:none;" d="M291 97C292.506 97.683 293.315 97.8259 295 98C293.494 97.317 292.685 97.1741 291 97z"/>
<path style="fill:#71a2a0; stroke:none;" d="M432 97L433 98L432 97z"/>
<path style="fill:#368858; stroke:none;" d="M555 97L556 98L555 97z"/>
<path style="fill:#3b7075; stroke:none;" d="M569 97L570 98L569 97z"/>
<path style="fill:#395559; stroke:none;" d="M197 98L198 99L197 98z"/>
<path style="fill:#4e8685; stroke:none;" d="M470 98L471 99L470 98z"/>
<path style="fill:#678d91; stroke:none;" d="M513 98L514 99L513 98z"/>
<path style="fill:#618d8d; stroke:none;" d="M530 98L531 99L530 98z"/>
<path style="fill:#6d9f9f; stroke:none;" d="M537 98L538 99L537 98z"/>
<path style="fill:#90cdcd; stroke:none;" d="M538 98C538.052 104.254 538.963 109.099 545 112C541.818 107.283 540.264 103.031 538 98z"/>
<path style="fill:#538a8a; stroke:none;" d="M548.333 98.6667C548.278 98.7221 548.222 99.7778 548.667 99.3333C548.722 99.2777 548.778 98.2221 548.333 98.6667z"/>
<path style="fill:#657d80; stroke:none;" d="M443 99L444 100L443 99z"/>
<path style="fill:#466262; stroke:none;" d="M561.667 99.3333C561.222 99.7778 562.278 99.7223 562.333 99.6667C562.778 99.2223 561.722 99.2777 561.667 99.3333z"/>
<path style="fill:#74a4a3; stroke:none;" d="M209 100L210 101L209 100z"/>
<path style="fill:#6d9e95; stroke:none;" d="M280.667 100.333C280.222 100.778 281.278 100.722 281.333 100.667C281.778 100.222 280.722 100.278 280.667 100.333z"/>
<path style="fill:#527a75; stroke:none;" d="M360 100L361 101L360 100z"/>
<path style="fill:#6ea097; stroke:none;" d="M429 100L430 101L429 100z"/>
<path style="fill:#548d8e; stroke:none;" d="M208 101L209 102L208 101z"/>
<path style="fill:#4dc792; stroke:none;" d="M256 101L257 102L256 101z"/>
<path style="fill:#648688; stroke:none;" d="M427 101L428 102L427 101z"/>
<path style="fill:#69aaa8; stroke:none;" d="M441 101L442 102L441 101z"/>
<path style="fill:#558b5e; stroke:none;" d="M458 101L459 102L458 101z"/>
<path style="fill:#58a1a9; stroke:none;" d="M207 102L208 103L207 102z"/>
<path style="fill:#619d99; stroke:none;" d="M440 102L441 103L440 102z"/>
<path style="fill:#627e84; stroke:none;" d="M459 102L460 103L459 102z"/>
<path style="fill:#253b42; stroke:none;" d="M473 102L474 103L473 102z"/>
<path style="fill:#5e9395; stroke:none;" d="M506 102L507 103L506 102z"/>
<path style="fill:#375f65; stroke:none;" d="M206 103L207 104L206 103z"/>
<path style="fill:#6ca3a3; stroke:none;" d="M315.333 103.667C315.278 103.722 315.222 104.778 315.667 104.333C315.722 104.278 315.778 103.222 315.333 103.667z"/>
<path style="fill:#5d8f84; stroke:none;" d="M338 103L339 104L338 103z"/>
<path style="fill:#81c4c5; stroke:none;" d="M353 105C354.58 104.316 354.777 104.195 356 103C354.42 103.684 354.223 103.805 353 105z"/>
<path style="fill:#658a86; stroke:none;" d="M439 103L440 104L439 103z"/>
<path style="fill:#6c9d9e; stroke:none;" d="M205 104L206 105L205 104z"/>
<path style="fill:#578587; stroke:none;" d="M260 104L261 105L260 104z"/>
<path style="fill:#77b6b7; stroke:none;" d="M375.333 104.667C375.278 104.722 375.222 105.778 375.667 105.333C375.722 105.278 375.778 104.222 375.333 104.667z"/>
<path style="fill:#416761; stroke:none;" d="M438 104L439 105L438 104z"/>
<path style="fill:#68adb3; stroke:none;" d="M520.667 104.333C520.222 104.778 521.278 104.722 521.333 104.667C521.778 104.222 520.722 104.278 520.667 104.333z"/>
<path style="fill:#729fa2; stroke:none;" d="M202.667 105.333C202.222 105.778 203.278 105.722 203.333 105.667C203.778 105.222 202.722 105.278 202.667 105.333z"/>
<path style="fill:#7eb6b4; stroke:none;" d="M290 105C291.006 106.731 291.546 108.053 292 110C292.779 108.231 292.912 106.964 293 105L290 105z"/>
<path style="fill:#3b5c56; stroke:none;" d="M334 105L335 106L334 105z"/>
<path style="fill:#73878b; stroke:none;" d="M419.667 105.333C419.222 105.778 420.278 105.722 420.333 105.667C420.778 105.222 419.722 105.278 419.667 105.333z"/>
<path style="fill:#004844; stroke:none;" d="M476 105L477 106L476 105z"/>
<path style="fill:#487b7a; stroke:none;" d="M501 105L502 106L501 105z"/>
<path style="fill:#659d97; stroke:none;" d="M265 106L266 107L265 106z"/>
<path style="fill:#51807a; stroke:none;" d="M302 106L303 107L302 106z"/>
<path style="fill:#699093; stroke:none;" d="M389 106L390 107L389 106z"/>
<path style="fill:#1f6068; stroke:none;" d="M417 106L418 107L417 106z"/>
<path style="fill:#71a9a4; stroke:none;" d="M435 106L436 107L435 106z"/>
<path style="fill:#68a0a0; stroke:none;" d="M462 106L463 107L462 106z"/>
<path style="fill:#67969a; stroke:none;" d="M478 106L479 107L478 106z"/>
<path style="fill:#83c0c1; stroke:none;" d="M516.667 106.333C516.222 106.778 517.278 106.722 517.333 106.667C517.778 106.222 516.722 106.278 516.667 106.333z"/>
<path style="fill:#5f9181; stroke:none;" d="M553 106L554 107L553 106z"/>
<path style="fill:#8ac8c6; stroke:none;" d="M268 107C272.974 109.087 279.638 108 285 108C280.026 105.913 273.362 107 268 107z"/>
<path style="fill:#518289; stroke:none;" d="M329 107L330 108L329 107z"/>
<path style="fill:#00313c; stroke:none;" d="M349 107L350 108L349 107z"/>
<path style="fill:#62868a; stroke:none;" d="M434 107L435 108L434 107z"/>
<path style="fill:#69a093; stroke:none;" d="M463 107L464 108L463 107z"/>
<path style="fill:#82bdb9; stroke:none;" d="M513 109C514.58 108.316 514.777 108.195 516 107C514.42 107.684 514.223 107.805 513 109z"/>
<path style="fill:#396b6f; stroke:none;" d="M516 107L517 108L516 107z"/>
<path style="fill:#396d59; stroke:none;" d="M555 107L556 108L555 107z"/>
<path style="fill:#657d84; stroke:none;" d="M581 107L582 108L581 107z"/>
<path style="fill:#274d51; stroke:none;" d="M275.667 108.333C275.222 108.778 276.278 108.722 276.333 108.667C276.778 108.222 275.722 108.278 275.667 108.333z"/>
<path style="fill:#77afaa; stroke:none;" d="M346.667 108.333C346.222 108.778 347.278 108.722 347.333 108.667C347.778 108.222 346.722 108.278 346.667 108.333z"/>
<path style="fill:#458672; stroke:none;" d="M393 108L394 109L393 108z"/>
<path style="fill:#214f55; stroke:none;" d="M412 108L413 109L412 108z"/>
<path style="fill:#40767c; stroke:none;" d="M433 108L434 109L433 108z"/>
<path style="fill:#00dbdb; stroke:none;" d="M185 109L186 110L185 109z"/>
<path style="fill:#65b1b1; stroke:none;" d="M322 109C323.248 109.685 323.548 109.749 325 110C323.752 109.315 323.452 109.251 322 109z"/>
<path style="fill:#7db1b1; stroke:none;" d="M395 109C396.248 109.685 396.549 109.749 398 110C396.752 109.315 396.452 109.251 395 109z"/>
<path style="fill:#3f5b5a; stroke:none;" d="M398 109L399 110L398 109z"/>
<path style="fill:#516b6b; stroke:none;" d="M404 109L405 110L404 109z"/>
<path style="fill:#527a7a; stroke:none;" d="M407 109L408 110L407 109z"/>
<path style="fill:#74a9a9; stroke:none;" d="M486.667 109.333C486.222 109.778 487.278 109.722 487.333 109.667C487.778 109.222 486.722 109.278 486.667 109.333z"/>
<path style="fill:#5ba3a6; stroke:none;" d="M559.667 109.333C559.222 109.778 560.278 109.722 560.333 109.667C560.778 109.222 559.722 109.278 559.667 109.333z"/>
<path style="fill:#ccffff; stroke:none;" d="M561 109L562 110L561 109z"/>
<path style="fill:#406260; stroke:none;" d="M574 109L575 110L574 109z"/>
<path style="fill:#8bc3c5; stroke:none;" d="M307 110C309.89 111.213 312.874 110.998 316 111C313.11 109.787 310.126 110.002 307 110z"/>
<path style="fill:#7eb6b3; stroke:none;" d="M317.667 110.333C317.222 110.778 318.278 110.722 318.333 110.667C318.778 110.222 317.722 110.278 317.667 110.333z"/>
<path style="fill:#648f90; stroke:none;" d="M467 110L468 111L467 110z"/>
<path style="fill:#75b1b0; stroke:none;" d="M566 110C567.248 110.685 567.548 110.749 569 111C567.752 110.315 567.452 110.251 566 110z"/>
<path style="fill:#004645; stroke:none;" d="M588 110L589 111L588 110z"/>
<path style="fill:#4a0c17; stroke:none;" d="M182 111L183 112L182 111z"/>
<path style="fill:#413f39; stroke:none;" d="M194 111L195 112L194 111z"/>
<path style="fill:#376e74; stroke:none;" d="M426 112L427 113L426 112z"/>
<path style="fill:#69a7a5; stroke:none;" d="M507 112L508 113L507 112z"/>
<path style="fill:#435151; stroke:none;" d="M544 112L545 113L544 112z"/>
<path style="fill:#41d2d2; stroke:none;" d="M585 112L586 113L585 112z"/>
<path style="fill:#69abab; stroke:none;" d="M189 113L190 114L189 113z"/>
<path style="fill:#4d8383; stroke:none;" d="M385 113L386 114L385 113z"/>
<path style="fill:#619190; stroke:none;" d="M423 113L424 114L423 113z"/>
<path style="fill:#085251; stroke:none;" d="M472 113L473 114L472 113z"/>
<path style="fill:#378c8c; stroke:none;" d="M546 113L547 114L546 113z"/>
<path style="fill:#4ea6ae; stroke:none;" d="M583 113L584 114L583 113z"/>
<path style="fill:#6e9898; stroke:none;" d="M297 114L298 115L297 114z"/>
<path style="fill:#60907f; stroke:none;" d="M388 114L389 115L388 114z"/>
<path style="fill:#5f9296; stroke:none;" d="M420 114L421 115L420 114z"/>
<path style="fill:#2d6265; stroke:none;" d="M475 114L476 115L475 114z"/>
<path style="fill:#106166; stroke:none;" d="M548 114L549 115L548 114z"/>
<path style="fill:#399494; stroke:none;" d="M581 114L582 115L581 114z"/>
<path style="fill:#679ea2; stroke:none;" d="M177 115L178 116L177 115z"/>
<path style="fill:#57886e; stroke:none;" d="M330 115L331 116L330 115z"/>
<path style="fill:#639a9c; stroke:none;" d="M417 115L418 116L417 115z"/>
<path style="fill:#91d0cf; stroke:none;" d="M479 115C484.635 117.364 492.94 116.353 499 116C493.285 113.602 485.169 115 479 115z"/>
<path style="fill:#6a9c9e; stroke:none;" d="M499 115L500 116L499 115z"/>
<path style="fill:#81ffff; stroke:none;" d="M177 116L178 117L177 116z"/>
<path style="fill:#82c1be; stroke:none;" d="M301 116C302.506 116.683 303.315 116.826 305 117C303.494 116.317 302.685 116.174 301 116z"/>
<path style="fill:#66979c; stroke:none;" d="M327 116L328 117L327 116z"/>
<path style="fill:#86c2c1; stroke:none;" d="M394 116C398.217 117.769 403.459 117 408 117C403.783 115.231 398.541 116 394 116z"/>
<path style="fill:#75a6a0; stroke:none;" d="M408 116C409.248 116.685 409.549 116.749 411 117C409.752 116.315 409.452 116.251 408 116z"/>
<path style="fill:#3e575a; stroke:none;" d="M411 116L412 117L411 116z"/>
<path style="fill:#285238; stroke:none;" d="M413 116L414 117L413 116z"/>
<path style="fill:#7cb1b2; stroke:none;" d="M482 116C485.432 117.44 489.3 117 493 117C489.568 115.56 485.7 116 482 116z"/>
<path style="fill:#475759; stroke:none;" d="M494 116L495 117L494 116z"/>
<path style="fill:#56cb73; stroke:none;" d="M179 117L180 118L179 117z"/>
<path style="fill:#83b7b8; stroke:none;" d="M305.667 117.333C305.222 117.778 306.278 117.722 306.333 117.667C306.778 117.222 305.722 117.278 305.667 117.333z"/>
<path style="fill:#7db6b3; stroke:none;" d="M308 117C312.217 118.769 317.459 118 322 118C317.783 116.231 312.541 117 308 117z"/>
<path style="fill:#61908f; stroke:none;" d="M564.667 117.333C564.222 117.778 565.278 117.722 565.333 117.667C565.778 117.222 564.722 117.278 564.667 117.333z"/>
<path style="fill:#77a5a4; stroke:none;" d="M568 117C569.248 117.685 569.549 117.749 571 118C569.752 117.315 569.452 117.251 568 117z"/>
<path style="fill:#61b5b5; stroke:none;" d="M572 117L573 118L572 117z"/>
<path style="fill:#639bc9; stroke:none;" d="M104 118C100.109 128.033 95.8206 137.919 92.0502 148C90.2577 152.792 89.2963 158.333 84 160C84.2164 163.713 84.2164 167.287 84 171C89.6101 170.553 91.1733 165.27 97.0008 165.019C99.6864 164.904 103.22 164.565 105.61 166.023C107.784 167.349 108.62 169.923 111.213 170.682C116.458 172.218 123.549 171 129 171C122.819 152.843 113.359 135.699 106 118L104 118z"/>
<path style="fill:#808080; stroke:none;" d="M106 119L107 120L106 119z"/>
<path style="fill:#639bc9; stroke:none;" d="M331 132C328.795 132.094 327.106 132.356 325 133L325 135C327.106 135.644 328.795 135.906 331 136C331 145.349 326.96 165.965 338.005 170.258C342.799 172.121 350.8 171.514 354.891 168.347C356.549 167.063 359.43 163.978 357.878 161.662C356.015 158.883 348.991 165.96 347 167L347 136C350.801 136 354.343 136.081 358 135C359.004 140.648 361.834 145.78 364.14 151C367.381 158.336 370.226 165.921 374 173C379.822 168.009 382.18 159.545 386 153C388.841 159.825 392.274 166.616 396 173C400.019 169.329 401.58 163.967 403.603 159C406.603 151.639 409.633 144.197 413 137C416.27 144.855 420.442 152.39 424.247 160C425.833 163.173 428.804 167.281 428.353 170.999C427.781 175.726 422.783 178.14 422 183C430.605 182.721 432.9 176.163 435.799 169C438.637 161.99 441.498 154.974 444.424 148C446.597 142.823 447.86 136.999 454 136L454.001 157C454.022 161.073 454.105 165.416 457.394 168.347C461.737 172.217 471.051 171.928 475.956 169.312C478.283 168.07 481.335 165.344 480.292 162.333C478.858 158.192 471.964 165.952 470 167L470 136C473.486 135.998 476.65 135.99 480 135C477.033 131.97 474.114 132.015 470 132C470 127.887 470.171 123.96 469 120C463.782 121.503 459.218 124.497 454 126L454 132C451.505 132.057 447.546 131.511 445.421 133.078C441.178 136.206 439.25 146.245 437 151C435.028 146.258 432.687 137.048 428.363 134.028C426.107 132.453 422.59 133.013 420 132.999C417.119 132.984 413.005 131.846 410.275 132.773C405.861 134.272 403.376 144.958 402 149L392 131L390 131C387.476 137.062 383.823 142.673 382 149C379.563 144.825 377.521 136.783 373.502 134.028C370.991 132.307 366.873 133.013 364 132.999C358.299 132.971 352.715 132.004 347 132L347 120C340.377 121.893 331.602 124.196 331 132z"/>
<path style="fill:#0000ff; stroke:none;" d="M469 120L470 121L469 120z"/>
<path style="fill:#00ffff; stroke:none;" d="M107 121L108 122L107 121z"/>
<path style="fill:#639bc9; stroke:none;" d="M134 121L134 171C145.405 171 164.01 174.568 172.787 165.787C180.489 158.082 179.899 142.547 170.907 136.108C164.515 131.531 157.382 131.63 150 133L150 121L134 121z"/>
<path style="fill:#808080; stroke:none;" d="M347 121L348 122L347 121z"/>
<path style="fill:#639bc9; stroke:none;" d="M485 121L485 171L502 171C499.382 160.003 498.295 143.463 510 138L510 171L526 171L526 150C526 146.496 526.553 142.338 525.258 139.005C522.641 132.271 514.234 130.771 508.002 132.853C505.348 133.739 503.21 135.348 501 137L501 121L485 121z"/>
<path style="fill:#00ffff; stroke:none;" d="M501 121L502 122L501 121M340 122L341 123L340 122z"/>
<path style="fill:#55aaaa; stroke:none;" d="M347 122L347 132C348.346 128.793 348.346 125.207 347 122z"/>
<path style="fill:#80c0c0; stroke:none;" d="M501 122L501 137C502.74 132.852 502.74 126.148 501 122z"/>
<path style="fill:#00ffff; stroke:none;" d="M456 125L457 126L456 125z"/>
<path style="fill:#808080; stroke:none;" d="M110 128L111 129L110 128z"/>
<path style="fill:#00ffff; stroke:none;" d="M111 130L112 131L111 130z"/>
<path style="fill:#639bc9; stroke:none;" d="M219 161C211.633 161.555 206.858 166.934 199 167L199 153L222 153C220.424 146.383 220.918 140.375 214.907 135.8C206.753 129.595 192.159 130.769 185.8 139.094C182.144 143.881 181.447 150.165 182.185 156C183.621 167.35 193.971 171.244 204 170.985C210.709 170.812 217.838 168.309 219 161M245 139C244.356 136.894 244.094 135.205 244 133L228 133L228 171L245 171C242.239 159.402 245.598 149.586 250 139C252.688 139.592 254.341 139.675 257 139C259.986 146.172 263.773 153.051 267.247 160C268.771 163.048 271.746 167.054 271.725 170.575C271.694 175.559 265.801 178.05 265 183C272.792 182.747 275.225 177.588 278.138 171C281.488 163.424 284.483 155.673 287.603 148C289.044 144.457 290.91 140.877 291.323 137.019C291.468 135.662 291.618 133.281 289.801 132.921C287.627 132.491 286.592 135.541 285.965 137.019C283.981 141.701 282.394 146.505 280 151C277.988 146.095 276.045 138.338 272.185 134.603C269.873 132.367 265.931 133.032 263 132.996C255.102 132.899 249.361 130.797 245 139z"/>
<path style="fill:#00ffff; stroke:none;" d="M291 132L292 133L291 132z"/>
<path style="fill:#639bc9; stroke:none;" d="M312 166C304.869 167.678 300.724 163.963 294 163C295.983 175.709 320.474 173.314 323.566 161.999C326.91 149.767 312.306 145.209 308 136C312.803 137.007 317.16 139.37 322 140C320.013 127.435 295.869 129.891 294.269 142C292.824 152.93 306.451 158.745 312 166z"/>
<path style="fill:#008080; stroke:none;" d="M448 132L449 133L448 132z"/>
<path style="fill:#00ffff; stroke:none;" d="M478 132L479 133L478 132M166 133L167 134L166 133M193 133L194 134L193 133M244 133L245 134L244 133z"/>
<path style="fill:#ffffff; stroke:none;" d="M393 133L394 134L393 133z"/>
<path style="fill:#0000ff; stroke:none;" d="M479 133L480 134L479 133z"/>
<path style="fill:#80ffff; stroke:none;" d="M168 134L169 135L168 134z"/>
<path style="fill:#80c0c0; stroke:none;" d="M244 134L244 139C244.83 136.969 244.83 136.031 244 134z"/>
<path style="fill:#00ffff; stroke:none;" d="M292 134L293 135L292 134M429 134L430 135L429 134M214 135L215 136L214 135z"/>
<path style="fill:#0000ff; stroke:none;" d="M292 135L293 136L292 135z"/>
<path style="fill:#00ffff; stroke:none;" d="M357 135L358 136L357 135z"/>
<path style="fill:#808080; stroke:none;" d="M394 135L395 136L394 135z"/>
<path style="fill:#0000ff; stroke:none;" d="M479 135L480 136L479 135M523 135L524 136L523 135z"/>
<path style="fill:#000000; stroke:none;" d="M159 167C159 157.21 160.781 145.408 158 136C148.278 138.345 150 145.585 150 154C150 157.049 149.147 161.851 151.028 164.486C152.778 166.939 156.323 166.876 159 167z"/>
<path style="fill:#808080; stroke:none;" d="M171 136L172 137L171 136z"/>
<path style="fill:#000000; stroke:none;" d="M200 149L207 149L207 137C198.558 135.691 200 142.549 200 149z"/>
<path style="fill:#808080; stroke:none;" d="M273 136L274 137L273 136z"/>
<path style="fill:#55aaff; stroke:none;" d="M291.333 136.667C291.278 136.722 291.222 137.778 291.667 137.333C291.722 137.278 291.778 136.222 291.333 136.667z"/>
<path style="fill:#80ffff; stroke:none;" d="M308 136L309 137L308 136z"/>
<path style="fill:#55aaaa; stroke:none;" d="M347 136L347 167C349.497 161.049 348 152.42 348 146C348 142.581 348.328 139.166 347 136z"/>
<path style="fill:#808080; stroke:none;" d="M375 136L376 137L375 136z"/>
<path style="fill:#00ffff; stroke:none;" d="M430 136L431 137L430 136M114 137L115 138L114 137z"/>
<path style="fill:#80c0c0; stroke:none;" d="M199 137L199 149C200.512 145.396 200.512 140.604 199 137z"/>
<path style="fill:#0000ff; stroke:none;" d="M322 137L323 138L322 137z"/>
<path style="fill:#ffffff; stroke:none;" d="M412 137L413 138L412 137z"/>
<path style="fill:#00ffff; stroke:none;" d="M274 138L275 139L274 138M291 138L292 139L291 138M322 138L323 139L322 138M376 138L377 139L376 138M507 138L508 139L507 138M115 139L116 140L115 139M174 139L175 140L174 139M218 139L219 140L218 139M250 139L251 140L250 139z"/>
<path style="fill:#808080; stroke:none;" d="M396 139L397 140L396 139z"/>
<path style="fill:#ffffff; stroke:none;" d="M249 140L250 141L249 140z"/>
<path style="fill:#00ffff; stroke:none;" d="M377 140L378 141L377 140M447 140L448 141L447 140M360 142L361 143L360 142M410 142L411 143L410 142z"/>
<path style="fill:#0000ff; stroke:none;" d="M289 143L290 144L289 143z"/>
<path style="fill:#00ffff; stroke:none;" d="M313 143L314 144L313 143M433 143L434 144L433 143z"/>
<path style="fill:#0000ff; stroke:none;" d="M526 143L526 170C528.541 163.945 528.541 149.055 526 143z"/>
<path style="fill:#808080; stroke:none;" d="M117 144L118 145L117 144z"/>
<path style="fill:#80c0c0; stroke:none;" d="M501 144L501 170C503.477 164.097 503.477 149.903 501 144z"/>
<path style="fill:#00ffff; stroke:none;" d="M177 145L178 146L177 145z"/>
<path style="fill:#808080; stroke:none;" d="M277 145L278 146L277 145z"/>
<path style="fill:#ffffff; stroke:none;" d="M288 145L289 146L288 145z"/>
<path style="fill:#00ffff; stroke:none;" d="M434 145L435 146L434 145z"/>
<path style="fill:#0000ff; stroke:none;" d="M445 145L446 146L445 145z"/>
<path style="fill:#000000; stroke:none;" d="M98 146C96.8498 150.854 94.7995 155.36 93 160C96.9602 161.171 100.887 161 105 161C103.022 155.902 101.058 150.546 98 146z"/>
<path style="fill:#00ffff; stroke:none;" d="M118 146L119 147L118 146M221 146L222 147L221 146M246 146L247 147L246 146M294 146L295 147L294 146z"/>
<path style="fill:#55aaff; stroke:none;" d="M221.333 147.667C221.278 147.722 221.222 148.778 221.667 148.333C221.722 148.278 221.778 147.222 221.333 147.667z"/>
<path style="fill:#00ffff; stroke:none;" d="M278 147L279 148L278 147z"/>
<path style="fill:#0000ff; stroke:none;" d="M318 147L319 148L318 147M408 147L409 148L408 147z"/>
<path style="fill:#ffffff; stroke:none;" d="M444 147L445 148L444 147M97 148L98 149L97 148z"/>
<path style="fill:#00ffff; stroke:none;" d="M99 148L100 149L99 148M319 148L320 149L319 148z"/>
<path style="fill:#55aaff; stroke:none;" d="M96.3333 149.667C96.2778 149.722 96.2222 150.778 96.6667 150.333C96.7222 150.278 96.7778 149.222 96.3333 149.667z"/>
<path style="fill:#80c0c0; stroke:none;" d="M221 149L221 152C221.696 150.446 221.696 150.554 221 149z"/>
<path style="fill:#808080; stroke:none;" d="M245 149L246 150L245 149z"/>
<path style="fill:#00ffff; stroke:none;" d="M320 149L321 150L320 149z"/>
<path style="fill:#ffffff; stroke:none;" d="M407 149L408 150L407 149z"/>
<path style="fill:#00ffff; stroke:none;" d="M286 150L287 151L286 150M296 150L297 151L296 150M321 150L322 151L321 150z"/>
<path style="fill:#0000ff; stroke:none;" d="M96 151L97 152L96 151M178 151L179 152L178 151z"/>
<path style="fill:#00ffff; stroke:none;" d="M364 151L365 152L364 151z"/>
<path style="fill:#ffffff; stroke:none;" d="M442 152L443 153L442 152z"/>
<path style="fill:#808080; stroke:none;" d="M121 153L122 154L121 153z"/>
<path style="fill:#80c0c0; stroke:none;" d="M199 153L199 167C200.667 163.028 200.667 156.972 199 153z"/>
<path style="fill:#0000ff; stroke:none;" d="M323 153L324 154L323 153z"/>
<path style="fill:#80c0c0; stroke:none;" d="M244 154L244 170C245.812 165.681 245.812 158.319 244 154z"/>
<path style="fill:#00ffff; stroke:none;" d="M386 154L387 155L386 154z"/>
<path style="fill:#0000ff; stroke:none;" d="M405 154L406 155L405 154z"/>
<path style="fill:#00ffff; stroke:none;" d="M122 155L123 156L122 155z"/>
<path style="fill:#4080c0; stroke:none;" d="M177.333 155.667C177.278 155.722 177.222 156.778 177.667 156.333C177.722 156.278 177.778 155.222 177.333 155.667z"/>
<path style="fill:#00ffff; stroke:none;" d="M284 155L285 156L284 155M94 156L95 157L94 156M324 156L325 157L324 156M387 156L388 157L387 156z"/>
<path style="fill:#ffffff; stroke:none;" d="M404 156L405 157L404 156z"/>
<path style="fill:#00ffff; stroke:none;" d="M103 157L104 158L103 157M303 157L304 158L303 157z"/>
<path style="fill:#ffffff; stroke:none;" d="M324 157L324 160C324.696 158.446 324.696 158.554 324 157z"/>
<path style="fill:#00ffff; stroke:none;" d="M440 157L441 158L440 157M388 158L389 159L388 158z"/>
<path style="fill:#ffffff; stroke:none;" d="M176 160L177 161L176 160z"/>
<path style="fill:#0000ff; stroke:none;" d="M282 160L283 161L282 160z"/>
<path style="fill:#00ffff; stroke:none;" d="M324 160L325 161L324 160M389 160L390 161L389 160z"/>
<path style="fill:#008080; stroke:none;" d="M480 160L481 161L480 160z"/>
<path style="fill:#0000ff; stroke:none;" d="M381 161L382 162L381 161z"/>
<path style="fill:#00ffff; stroke:none;" d="M402 161L403 162L402 161M125 162L126 163L125 162M175 162L176 163L175 162z"/>
<path style="fill:#ffffff; stroke:none;" d="M281 162L282 163L281 162z"/>
<path style="fill:#00ffff; stroke:none;" d="M309 162L310 163L309 162M390 162L391 163L390 162z"/>
<path style="fill:#0000ff; stroke:none;" d="M438 162L439 163L438 162z"/>
<path style="fill:#ffffff; stroke:none;" d="M481 162L482 163L481 162M323 163L324 164L323 163z"/>
<path style="fill:#0000ff; stroke:none;" d="M380 163L381 164L380 163z"/>
<path style="fill:#00ffff; stroke:none;" d="M481 163L482 164L481 163M126 164L127 165L126 164z"/>
<path style="fill:#808080; stroke:none;" d="M358 164L359 165L358 164z"/>
<path style="fill:#00ffff; stroke:none;" d="M391 164L392 165L391 164M426 164L427 165L426 164z"/>
<path style="fill:#ffffff; stroke:none;" d="M437 164L438 165L437 164z"/>
<path style="fill:#00ffff; stroke:none;" d="M454 164L455 165L454 164z"/>
<path style="fill:#40c0ff; stroke:none;" d="M217 165L218 166L217 165z"/>
<path style="fill:#0000ff; stroke:none;" d="M300 165L301 166L300 165M322 165L323 166L322 165z"/>
<path style="fill:#00ffff; stroke:none;" d="M379 165L380 166L379 165z"/>
<path style="fill:#ffffff; stroke:none;" d="M480 165L481 166L480 165M90 166L91 167L90 166z"/>
<path style="fill:#40c0ff; stroke:none;" d="M216 166L217 167L216 166z"/>
<path style="fill:#00ffff; stroke:none;" d="M310 166L311 167L310 166M321 166L322 167L321 166z"/>
<path style="fill:#0000ff; stroke:none;" d="M357 166L358 167L357 166z"/>
<path style="fill:#00ffff; stroke:none;" d="M392 166L393 167L392 166z"/>
<path style="fill:#0000ff; stroke:none;" d="M400 166L401 167L400 166z"/>
<path style="fill:#00ffff; stroke:none;" d="M427 166L428 167L427 166M455 166L456 167L455 166z"/>
<path style="fill:#ffffff; stroke:none;" d="M279 167L280 168L279 167z"/>
<path style="fill:#00ffff; stroke:none;" d="M294 167L295 168L294 167z"/>
<path style="fill:#0000ff; stroke:none;" d="M320 167L321 168L320 167M356 167L357 168L356 167z"/>
<path style="fill:#00ffff; stroke:none;" d="M371 167L372 168L371 167M378 167L379 168L378 167z"/>
<path style="fill:#0000ff; stroke:none;" d="M436 167L437 168L436 167z"/>
<path style="fill:#00ffff; stroke:none;" d="M169 168L170 169L169 168M190 168L191 169L190 168z"/>
<path style="fill:#0000ff; stroke:none;" d="M214 168L215 169L214 168z"/>
<path style="fill:#00ffff; stroke:none;" d="M295 168L296 169L295 168M393 168L394 169L393 168z"/>
<path style="fill:#ffffff; stroke:none;" d="M399 168L400 169L399 168z"/>
<path style="fill:#00ffff; stroke:none;" d="M428 168L429 169L428 168z"/>
<path style="fill:#808080; stroke:none;" d="M477 168L478 169L477 168z"/>
<path style="fill:#0000ff; stroke:none;" d="M89 169L90 170L89 169z"/>
<path style="fill:#808080; stroke:none;" d="M128 169L129 170L128 169M167 169L168 170L167 169z"/>
<path style="fill:#0000ff; stroke:none;" d="M212 169L213 170L212 169z"/>
<path style="fill:#00ffff; stroke:none;" d="M353 169L354 170L353 169M377 169L378 170L377 169z"/>
<path style="fill:#ffffff; stroke:none;" d="M435 169L436 170L435 169z"/>
<path style="fill:#00ffff; stroke:none;" d="M458 169L459 170L458 169z"/>
<path style="fill:#80ffff; stroke:none;" d="M209 170L210 171L209 170z"/>
<path style="fill:#00ffff; stroke:none;" d="M314 170L315 171L314 170M394 170L395 171L394 170z"/>
<path style="fill:#80ffff; stroke:none;" d="M473 170L474 171L473 170z"/>
<path style="fill:#ffffff; stroke:none;" d="M376 171L377 172L376 171z"/>
<path style="fill:#00ffff; stroke:none;" d="M277 172L278 173L277 172z"/>
<path style="fill:#0000ff; stroke:none;" d="M375 172L376 173L375 172z"/>
<path style="fill:#00ffff; stroke:none;" d="M395 172L396 173L395 172z"/>
<path style="fill:#0000ff; stroke:none;" d="M397 172L398 173L397 172z"/>
<path style="fill:#808080; stroke:none;" d="M276 174L277 175L276 174z"/>
<path style="fill:#00ffff; stroke:none;" d="M433 174L434 175L433 174z"/>
<path style="fill:#808080; stroke:none;" d="M275 176L276 177L275 176z"/>
<path style="fill:#00ffff; stroke:none;" d="M432 176L433 177L432 176z"/>
<path style="fill:#ffffff; stroke:none;" d="M274 178L275 179L274 178z"/>
<path style="fill:#0000ff; stroke:none;" d="M431 178L432 179L431 178z"/>
<path style="fill:#ffffff; stroke:none;" d="M150 186L151 187L150 186z"/>
<path style="fill:#9bdcda; stroke:none;" d="M157 197C159.963 207.026 155.951 218.023 159.815 227.996C162.125 233.96 169.043 237.398 174.826 233.401C176.834 232.013 178.4 229.81 180 228C183.676 235.789 193.931 237.835 198.03 228.985C203.434 217.317 198.647 203.855 203 192C205.423 193.1 211.451 194.041 208.914 189.129C205.942 183.375 196.88 186.252 194.703 191.044C189.95 201.509 199.116 221.907 187 228C185.563 223.983 183.45 220.336 183.093 216C182.659 210.727 184.603 205.149 183.757 200.019C183.337 197.47 181.308 194.483 178.302 195.662C175.116 196.912 176.001 202.347 176 205C175.995 214.225 174.289 220.848 170 229C163.859 221.334 165.001 212.305 165 203C165 198.809 165.602 193.78 163.142 190.109C157.852 182.214 143.574 186.82 147.604 196.941C149.58 201.904 155.423 201.752 157 197z"/>
<path style="fill:#ffffff; stroke:none;" d="M198 186L199 187L198 186M299 186L300 187L299 186z"/>
<path style="fill:#9bdcda; stroke:none;" d="M306 205L306 197C305.995 194.288 306.438 190.694 304.821 188.323C302.719 185.239 299.109 186.926 298.333 190.059C297.485 193.477 298.9 197.518 298.985 201C299.191 209.399 298.907 217.657 298.171 226C297.899 229.069 297.87 234.049 301.95 234.534C305.205 234.921 305.801 231.43 305.956 228.995C306.344 222.911 305.201 217.149 309.39 212.048C310.697 210.456 312.964 207.912 315.316 208.613C323.012 210.906 317.996 224.715 319.573 229.981C320.523 233.155 324.271 236.512 327.377 233.407C329.982 230.802 326.152 225.209 326.019 221.999C325.836 217.563 326.901 212.228 325.258 208.005C321.849 199.245 312.193 200.785 306 205M413 219C413.123 220.437 413.025 222.365 413.682 223.702C415.124 226.634 418.546 225.112 419.806 222.851C421.665 219.514 419.785 216.061 416.891 214.179C415.789 213.462 414.285 213.216 412.999 213.153C411.312 213.069 409.552 213.372 408.055 214.179C401.479 217.722 402.306 227.039 407.225 231.606C411.97 236.011 422.395 236.44 427.985 233.427C436.818 228.668 437.232 215.812 429.895 209.529C425.617 205.866 418.94 204.371 415.492 199.791C412.472 195.779 416.813 192.071 421 192.912C424.983 193.712 427.734 195.864 432 196C431.564 182.59 407.968 182.273 406.152 195.001C404.781 204.606 413.166 208.193 420 212.349C423.141 214.259 428.104 217.669 427.11 221.996C424.745 232.287 407.186 228.899 413 219z"/>
<path style="fill:#00ffff; stroke:none;" d="M208 187L209 188L208 187z"/>
<path style="fill:#ffffff; stroke:none;" d="M411 187L412 188L411 187z"/>
<path style="fill:#9bdcda; stroke:none;" d="M516.302 189.086C512.237 191.429 515.059 198.918 519.567 195.953C523.18 193.576 520.511 186.661 516.302 189.086z"/>
<path style="fill:#ffffff; stroke:none;" d="M147 189L148 190L147 189M514 189L515 190L514 189z"/>
<path style="fill:#00ffff; stroke:none;" d="M521 190L522 191L521 190M203 192L204 193L203 192z"/>
<path style="fill:#9bdcda; stroke:none;" d="M281 202C274.466 202.509 274.466 207.491 281 208C281 214.388 278.712 226.252 282.028 231.852C285.901 238.394 294.074 233.857 295 228C292.558 228.11 290.377 228.428 288 229C286.377 222.182 287 214.971 287 208C295.795 207.896 295.795 202.104 287 202C287.251 199.859 287.954 197.243 287.168 195.147C286.144 192.416 282.858 191.746 281.193 194.323C279.727 196.592 280.569 199.56 281 202z"/>
<path style="fill:#ffffff; stroke:none;" d="M442 192L443 193L442 192z"/>
<path style="fill:#9bdcda; stroke:none;" d="M441 202C434.693 203.053 436.466 207.569 442 208C442 214.681 439.887 225.658 442.742 231.772C446.025 238.8 455.098 233.704 456 228C453.558 228.11 451.377 228.428 449 229C447.377 222.182 448 214.971 448 208C456.795 207.896 456.795 202.104 448 202C447.998 199.589 448.649 195.62 446.973 193.623C442.353 188.118 441.008 199.792 441 202M496 202C489.792 202.496 490.075 207.053 496 208C496 214.813 494.229 224.573 496.894 230.941C499.888 238.097 508.872 234.691 511 229C508.097 228.263 505.951 228.471 503 229L503 208C511.375 207.727 511.547 202.101 503 202C502.998 199.656 503.471 196.487 502.397 194.319C501.18 191.863 497.82 191.863 496.603 194.319C495.529 196.487 496.002 199.656 496 202z"/>
<path style="fill:#000000; stroke:none;" d="M154 193C154.902 194.923 155.076 194.999 157 196C156.101 193.876 156.124 193.899 154 193z"/>
<path style="fill:#00ffff; stroke:none;" d="M415 193L416 194L415 193M413 195L414 196L413 195z"/>
<path style="fill:#9bdcda; stroke:none;" d="M209 213C209.207 219.475 213.099 230.278 219.093 233.543C226.497 237.576 237.966 235.083 239 226C230.081 226.481 224.783 231.763 219 222C224.872 222 232.965 222.801 237.106 217.606C243.89 209.098 233.505 200.16 225 201.192C216.904 202.174 215.356 209.706 209 213z"/>
<path style="fill:#ffffff; stroke:none;" d="M255 201L256 202L255 201z"/>
<path style="fill:#9bdcda; stroke:none;" d="M265 231C266.549 233.806 271.745 236.983 273.253 231.941C274.086 229.158 271.015 225.732 270.497 222.996C269.404 217.223 273.571 208.544 269.972 203.333C268.011 200.493 263.723 202.102 260.83 201.795C257.164 201.406 253.399 201.311 250.04 203.164C237.673 209.989 240.239 237.163 257 234.782C260.12 234.339 262.486 232.767 265 231M331 213C331.207 219.475 335.099 230.278 341.093 233.543C348.497 237.576 359.966 235.083 361 226C352.081 226.481 346.783 231.763 341 222C346.872 222 354.965 222.801 359.106 217.606C365.89 209.098 355.505 200.16 347 201.192C338.904 202.174 337.356 209.706 331 213M373 205C371.222 201.816 367.599 200.391 366.318 205.059C365.335 208.641 366.645 212.409 366.741 216C366.83 219.331 366.037 222.653 366.004 226C365.982 228.208 365.534 231.537 367.027 233.392C368.895 235.713 371.951 234.314 372.682 231.852C374.687 225.105 371.581 218.243 376.649 212.113C379.128 209.114 388.628 210.574 387.11 205.125C385.236 198.403 376.296 202.49 373 205z"/>
<path style="fill:#ffffff; stroke:none;" d="M406 201L407 202L406 201z"/>
<path style="fill:#00ffff; stroke:none;" d="M416 201L417 202L416 201z"/>
<path style="fill:#9bdcda; stroke:none;" d="M480 231C481.557 233.539 487.719 237.53 488.539 231.941C488.963 229.049 486.161 225.872 485.673 222.996C484.673 217.107 488.243 208.951 485.397 203.438C483.734 200.217 478.712 202.1 475.83 201.795C472.45 201.436 469.219 201.325 466.04 202.819C452.753 209.064 455.554 238.438 472.998 234.606C475.702 234.013 477.781 232.56 480 231M516.299 202.137C513.924 203.442 514.048 206.682 514.005 209C513.875 215.876 513.435 223.133 514.059 229.981C514.281 232.425 515.584 235.582 518.701 234.338C521.422 233.253 520.983 229.339 520.999 227C521.047 220.112 521.578 212.902 520.941 206.044C520.72 203.659 519.278 200.498 516.299 202.137M537.001 201.558C524.557 204.818 522.268 223.677 531.108 231.772C534.928 235.269 541.083 235.819 545.996 234.581C564.662 229.876 557.184 196.269 537.001 201.558z"/>
<path style="fill:#00ffff; stroke:none;" d="M545 201L546 202L545 201z"/>
<path style="fill:#ffffff; stroke:none;" d="M563 201L564 202L563 201z"/>
<path style="fill:#9bdcda; stroke:none;" d="M569 205C567.313 202.433 563.39 199.888 561.643 204.232C560.603 206.818 561.843 210.311 561.961 213C562.183 218.09 561.118 222.961 561.055 227.999C561.03 229.965 561.039 232.614 562.738 233.968C565.455 236.132 568.227 233.671 568.772 230.941C570.111 224.228 567.581 217.905 572.39 212.048C573.867 210.25 576.521 207.401 579.058 208.971C585.785 213.133 580.339 224.841 582.893 230.941C584.169 233.989 588.689 236.428 590.914 232.721C592.522 230.042 589.292 225.877 589.058 222.996C588.669 218.21 590.036 212.574 588.258 208.005C584.849 199.245 575.193 200.785 569 205z"/>
<path style="fill:#00ffff; stroke:none;" d="M270 202L271 203L270 202M294 202L295 203L294 202z"/>
<path style="fill:#ffffff; stroke:none;" d="M309 202L310 203L309 202M366 202L367 203L366 202z"/>
<path style="fill:#00ffff; stroke:none;" d="M372 202L373 203L372 202z"/>
<path style="fill:#ffffff; stroke:none;" d="M514 202L515 203L514 202M572 202L573 203L572 202M218 203L219 204L218 203M340 203L341 204L340 203M464 203L465 204L464 203M532 203L533 204L532 203z"/>
<path style="fill:#00ffff; stroke:none;" d="M236 204L237 205L236 204M358 204L359 205L358 204M387 204L388 205L387 204M183 205L184 206L183 205z"/>
<path style="fill:#ffffff; stroke:none;" d="M215 206L216 207L215 206M337 206L338 207L337 206M410 206L411 207L410 206M461 206L462 207L461 206z"/>
<path style="fill:#00ffff; stroke:none;" d="M510 206L511 207L510 206z"/>
<path style="fill:#ffffff; stroke:none;" d="M529 206L530 207L529 206z"/>
<path style="fill:#000000; stroke:none;" d="M219 215C222.21 215.947 231.921 217.073 231.079 211.015C229.834 202.068 220.518 211.879 219 215z"/>
<path style="fill:#ffffff; stroke:none;" d="M245 207L246 208L245 207z"/>
<path style="fill:#000000; stroke:none;" d="M257.014 207.993C250.693 208.78 248.465 216.734 249.688 221.999C250.406 225.091 252.177 228.927 256 228.338C264.644 227.006 268.216 206.598 257.014 207.993z"/>
<path style="fill:#ffffff; stroke:none;" d="M258 207L259 208L258 207z"/>
<path style="fill:#000000; stroke:none;" d="M341 215C344.21 215.947 353.921 217.073 353.079 211.015C351.834 202.068 342.518 211.879 341 215M472.039 207.867C466.058 208.854 463.782 216.918 464.968 221.996C465.653 224.933 467.425 228.697 471.029 228.338C480.226 227.421 482.905 206.073 472.039 207.867z"/>
<path style="fill:#00ffff; stroke:none;" d="M539 207L540 208L539 207z"/>
<path style="fill:#000000; stroke:none;" d="M540.04 207.762C529.969 209.902 530.965 230.457 541.996 228.623C552.988 226.796 551.22 205.385 540.04 207.762z"/>
<path style="fill:#00ffff; stroke:none;" d="M223 208L224 209L223 208z"/>
<path style="fill:#ffffff; stroke:none;" d="M230 208L231 209L230 208z"/>
<path style="fill:#00ffff; stroke:none;" d="M254 208L255 209L254 208M345 208L346 209L345 208z"/>
<path style="fill:#ffffff; stroke:none;" d="M352 208L353 209L352 208M380 208L381 209L380 208M413 208L414 209L413 208M262 209L263 210L262 209z"/>
<path style="fill:#00ffff; stroke:none;" d="M221 210L222 211L221 210M343 210L344 211L343 210M467 210L468 211L467 210M535 210L536 211L535 210M251 211L252 212L251 211M219 215L220 216L219 215M341 215L342 216L341 215M434 215L435 216L434 215M200 216L201 217L200 216M237 217L238 218L237 217M359 217L360 218L359 217M464 217L465 218L464 217z"/>
<path style="fill:#ffffff; stroke:none;" d="M427 218L428 219L427 218M366 219L367 220L366 219z"/>
<path style="fill:#00ffff; stroke:none;" d="M165 220L166 221L165 220z"/>
<path style="fill:#ffffff; stroke:none;" d="M549 220L550 221L549 220z"/>
<path style="fill:#00ffff; stroke:none;" d="M249 221L250 222L249 221z"/>
<path style="fill:#ffffff; stroke:none;" d="M262 222L263 223L262 222z"/>
<path style="fill:#00ffff; stroke:none;" d="M219 223L220 224L219 223M341 223L342 224L341 223M410 223L411 224L410 223z"/>
<path style="fill:#ffffff; stroke:none;" d="M548 223L549 224L548 223M561 223L562 224L561 223z"/>
<path style="fill:#00ffff; stroke:none;" d="M465 224L466 225L465 224z"/>
<path style="fill:#ffffff; stroke:none;" d="M476 224L477 225L476 224M191 225L192 226L191 225M403 225L404 226L403 225z"/>
<path style="fill:#00ffff; stroke:none;" d="M221 226L222 227L221 226z"/>
<path style="fill:#ffffff; stroke:none;" d="M233 226L234 227L233 226M243 226L244 227L243 226z"/>
<path style="fill:#00ffff; stroke:none;" d="M343 226L344 227L343 226z"/>
<path style="fill:#ffffff; stroke:none;" d="M355 226L356 227L355 226z"/>
<path style="fill:#00ffff; stroke:none;" d="M412 226L413 227L412 226M466 226L467 227L466 226z"/>
<path style="fill:#ffffff; stroke:none;" d="M546 226L547 227L546 226z"/>
<path style="fill:#00ffff; stroke:none;" d="M187 227L188 228L187 227z"/>
<path style="fill:#ffffff; stroke:none;" d="M213 227L214 228L213 227z"/>
<path style="fill:#00ffff; stroke:none;" d="M222 227L223 228L222 227z"/>
<path style="fill:#ffffff; stroke:none;" d="M258 227L259 228L258 227z"/>
<path style="fill:#00ffff; stroke:none;" d="M287 227L288 228L287 227z"/>
<path style="fill:#ffffff; stroke:none;" d="M335 227L336 228L335 227z"/>
<path style="fill:#00ffff; stroke:none;" d="M344 227L345 228L344 227M486 227L487 228L486 227z"/>
<path style="fill:#ffffff; stroke:none;" d="M545 227L546 228L545 227M230 228L231 229L230 228M352 228L353 229L352 228z"/>
<path style="fill:#00ffff; stroke:none;" d="M415 228L416 229L415 228z"/>
<path style="fill:#ffffff; stroke:none;" d="M459 228L460 229L459 228z"/>
<path style="fill:#00ffff; stroke:none;" d="M468 228L469 229L468 228z"/>
<path style="fill:#ffffff; stroke:none;" d="M505 228L506 229L505 228z"/>
<path style="fill:#00ffff; stroke:none;" d="M177 230L178 231L177 230z"/>
<path style="fill:#ffffff; stroke:none;" d="M215 230L216 231L215 230z"/>
<path style="fill:#00ffff; stroke:none;" d="M238 230L239 231L238 230z"/>
<path style="fill:#ffffff; stroke:none;" d="M245 230L246 231L245 230M337 230L338 231L337 230z"/>
<path style="fill:#00ffff; stroke:none;" d="M360 230L361 231L360 230M552 230L553 231L552 230z"/>
<path style="fill:#ffffff; stroke:none;" d="M161 231L162 232L161 231M461 231L462 232L461 231z"/>
<path style="fill:#00ffff; stroke:none;" d="M510 231L511 232L510 231z"/>
<path style="fill:#ffffff; stroke:none;" d="M182 232L183 233L182 232z"/>
<path style="fill:#00ffff; stroke:none;" d="M429 232L430 233L429 232z"/>
<path style="fill:#ffffff; stroke:none;" d="M462 232L463 233L462 232M480 232L481 233L480 232z"/>
<path style="fill:#00ffff; stroke:none;" d="M550 232L551 233L550 232z"/>
<path style="fill:#ffffff; stroke:none;" d="M183 233L184 234L183 233M248 233L249 234L248 233z"/>
<path style="fill:#00ffff; stroke:none;" d="M273 233L274 234L273 233z"/>
<path style="fill:#ffffff; stroke:none;" d="M282 233L283 234L282 233z"/>
<path style="fill:#00ffff; stroke:none;" d="M305 233L306 234L305 233z"/>
<path style="fill:#ffffff; stroke:none;" d="M320 233L321 234L320 233z"/>
<path style="fill:#00ffff; stroke:none;" d="M328 233L329 234L328 233M476 233L477 234L476 233M508 233L509 234L508 233z"/>
<path style="fill:#ffffff; stroke:none;" d="M583 233L584 234L583 233z"/>
<path style="fill:#00ffff; stroke:none;" d="M591 233L592 234L591 233z"/>
<path style="fill:#ffffff; stroke:none;" d="M250 234L251 235L250 234z"/>
<path style="fill:#00ffff; stroke:none;" d="M272 234L273 235L272 234z"/>
<path style="fill:#ffffff; stroke:none;" d="M299 234L300 235L299 234M321 234L322 235L321 234z"/>
<path style="fill:#00ffff; stroke:none;" d="M327 234L328 235L327 234z"/>
<path style="fill:#ffffff; stroke:none;" d="M584 234L585 235L584 234z"/>
<path style="fill:#00ffff; stroke:none;" d="M590 234L591 235L590 234z"/>
</svg>
